<?xml version="1.0" encoding="UTF-8" standalone="no"?>
<!-- Created with Inkscape (http://www.inkscape.org/) -->

<svg
   xmlns:dc="http://purl.org/dc/elements/1.1/"
   xmlns:cc="http://creativecommons.org/ns#"
   xmlns:rdf="http://www.w3.org/1999/02/22-rdf-syntax-ns#"
   xmlns:svg="http://www.w3.org/2000/svg"
   xmlns="http://www.w3.org/2000/svg"
   xmlns:sodipodi="http://sodipodi.sourceforge.net/DTD/sodipodi-0.dtd"
   xmlns:inkscape="http://www.inkscape.org/namespaces/inkscape"
   id="svg2"
   version="1.1"
   inkscape:version="0.48.4 r9939"
   width="983.92902"
   height="1036.3824"
   xml:space="preserve"
   sodipodi:docname="Vetor_Maps.ai"><metadata
     id="metadata8"><rdf:RDF><cc:Work
         rdf:about=""><dc:format>image/svg+xml</dc:format><dc:type
           rdf:resource="http://purl.org/dc/dcmitype/StillImage" /><dc:title></dc:title></cc:Work></rdf:RDF></metadata><defs
     id="defs6"><clipPath
       clipPathUnits="userSpaceOnUse"
       id="clipPath34"><path
         d="m 0,692.965 655.467,0 L 655.467,0 0,0 0,692.965 z"
         id="path36"
         inkscape:connector-curvature="0" /></clipPath></defs><sodipodi:namedview
     pagecolor="#ffffff"
     bordercolor="#666666"
     borderopacity="1"
     objecttolerance="10"
     gridtolerance="10"
     guidetolerance="10"
     inkscape:pageopacity="0"
     inkscape:pageshadow="2"
     inkscape:window-width="1301"
     inkscape:window-height="744"
     id="namedview4"
     showgrid="false"
     fit-margin-top="0"
     fit-margin-left="0"
     fit-margin-right="0"
     fit-margin-bottom="0"
     inkscape:zoom="0.19265297"
     inkscape:cx="-185.77978"
     inkscape:cy="515.86223"
     inkscape:window-x="65"
     inkscape:window-y="336"
     inkscape:window-maximized="1"
     inkscape:current-layer="g10" /><g
     id="g10"
     inkscape:groupmode="layer"
     inkscape:label="Vetor_Maps"
     transform="matrix(1.25,0,0,-1.25,-0.77125,862.52602)"><path
       d="m 0.617,-139.08473 787.14313,0 0,828.9927 -787.14313,0 0,-828.9927 z"
       style="fill:#dbdde1;fill-opacity:1;fill-rule:nonzero;stroke:none"
       id="path12"
       inkscape:connector-curvature="0" /><g
       id="g14"
       transform="matrix(1.2020206,0,0,1.2020206,610.80675,429.56739)"><path
         d="M 0,0 17.02,-38.338 146.373,13.336 146.154,94.688 0,0 z"
         style="fill:#c2c5cb;fill-opacity:1;fill-rule:nonzero;stroke:none"
         id="path16"
         inkscape:connector-curvature="0" /></g><g
       id="g18"
       transform="matrix(1.2020206,0,0,1.2020206,0.61748081,689.90809)"><path
         d="m 0,0 0.678,-165.904 21.883,10.212 35.493,86.874 -27.053,16.773 15.047,10.907 L 61.558,0 0,0 z"
         style="fill:#dbdde1;fill-opacity:1;fill-rule:nonzero;stroke:none"
         id="path20"
         inkscape:connector-curvature="0" /></g><g
       id="g22"
       transform="matrix(1.2020206,0,0,1.2020206,180.61357,645.62794)"><path
         d="m 0,0 -28.231,-87.795 -7.187,-33.663 55.97,10.347 3.718,42.527 L 36.038,-0.889 0,0 z"
         style="fill:#c2c5cb;fill-opacity:1;fill-rule:nonzero;stroke:none"
         id="path24"
         inkscape:connector-curvature="0" /></g><g
       id="g26"
       transform="matrix(1.2020206,0,0,1.2020206,522.18718,305.78127)"><path
         d="m 0,0 31.455,-74.469 42.27,0 L 59.618,-7.81 42.308,24.209 0,0 z"
         style="fill:#c2c5cb;fill-opacity:1;fill-rule:nonzero;stroke:none"
         id="path28"
         inkscape:connector-curvature="0" /></g><g
       id="g30"
       transform="matrix(1.2020206,0,0,1.2020206,-0.12464668,-139.61843)"><g
         id="g32"
         clip-path="url(#clipPath34)"><g
           id="g38"
           transform="translate(4.0685,314.6096)"><path
             d="m 0,0 c 1.166,2.025 0.552,4.662 -1.371,5.891 l -1.403,0.895 0,-8.78 C -1.66,-1.785 -0.632,-1.098 0,0"
             style="fill:#f8f5f2;fill-opacity:1;fill-rule:nonzero;stroke:none"
             id="path40"
             inkscape:connector-curvature="0" /></g><g
           id="g42"
           transform="translate(455.5523,101.2777)"><path
             d="m 0,0 c -0.44,2.438 -1.362,5.532 -2.673,9.189 -0.052,0.16 -0.108,0.318 -0.169,0.472 -2.205,6.077 -5.456,13.673 -9.379,22.433 l 59.491,14.734 1.333,-28.717 0.774,-39.613 c -5.985,-0.465 -11.66,-0.937 -16.877,-1.413 -6.972,-0.636 -13.616,-1.213 -19.955,-1.762 -2.386,-0.207 -4.719,-0.41 -7.018,-0.611 C 2.693,-12.837 0.627,-3.476 0,0 m -82.702,-43.141 c -14.275,-7.756 -39.229,-11.297 -58.424,-12.413 3.766,11.623 4.234,22.247 3.96,31.067 6.057,-3.01 13.469,-4.071 22.174,-3.176 5.929,0.609 12.457,2.124 19.561,4.544 32.559,11.094 67.281,18.445 81.021,21.149 0.071,-0.307 0.134,-0.602 0.183,-0.874 0.62,-3.441 2.534,-12.157 5.166,-23.762 -32.177,-3.046 -55.185,-6.507 -73.641,-16.535 m -67.153,46.662 c -0.717,-1.319 -1.183,-2.634 -1.479,-3.904 -1.871,0.884 -3.914,1.725 -6.174,2.516 6.765,2.533 7.783,3.936 8.57,5.024 2.197,3.032 6.285,8.676 1.461,72.591 -0.681,9.02 -1.503,18.469 -2.386,27.652 9.732,0.688 27.433,2.51 35.584,6.953 3.75,2.044 8.063,4.2 12.526,6.326 l 3.115,-7.605 c -4.938,-2.554 -10.21,-5.438 -14.843,-8.311 -12.272,-7.607 -21.979,-9.087 -22.065,-9.1 -2.142,-0.298 -3.689,-2.308 -3.525,-4.577 l 5.473,-75.637 C -141.76,12.47 -147.137,8.526 -149.855,3.521 m -6.979,-59.473 c -3.483,0.052 -6.298,0.218 -8.194,0.471 -11.782,1.568 -30.908,-6.81 -38.966,-10.685 -2.566,1.795 -6.8,5.294 -11.505,11.372 -4.259,5.504 -4.538,28.29 -2.385,46.983 2.693,1.169 8.837,1.874 16.748,1.768 1.308,-0.094 2.677,-0.136 4.111,-0.125 7.078,-0.324 15.196,-1.254 23.372,-3.002 14.752,-3.152 20.472,-7.069 21.637,-8.503 0.66,-10.255 1.4,-23.587 -4.818,-38.279 m -12.537,-19.458 c -2.397,-2.973 -4.877,-6.047 -7.057,-9.082 -1.124,-1.565 -2.171,-3.111 -3.169,-4.642 -1.543,2.175 -3.08,4.382 -4.6,6.625 -1.634,2.412 -3.432,4.46 -5.362,6.212 8.581,3.492 17.877,6.336 22.71,5.688 0.365,-0.048 0.766,-0.094 1.199,-0.137 -1.169,-1.501 -2.431,-3.065 -3.721,-4.664 m 9.497,99.495 c -0.137,-3.174 -0.354,-5.4 -0.602,-6.829 -4.995,-2.059 -18.507,-6.561 -31.067,-7.851 -2.014,-0.207 -3.769,-0.3 -5.316,-0.319 -1.224,0.054 -2.437,0.095 -3.629,0.115 -3.549,0.299 -5.336,1.076 -6.095,1.527 -2.887,1.719 -5.121,3.701 -6.736,5.971 l 53.445,7.386 z m -79.76,111.791 c -1.146,3.036 -2.501,5.567 -3.994,7.701 17.678,5.146 40.043,16.779 65.764,31.619 3.436,-6.096 6.2,-12.58 7.435,-19.035 0.907,-4.743 2.129,-13.423 3.433,-24.487 l -14.412,-3.51 -1.325,11.303 c -0.276,2.351 -2.322,3.993 -4.541,3.731 -2.232,-0.29 -3.818,-2.431 -3.543,-4.782 l 1.88,-16.029 c 0.142,-1.205 0.763,-2.292 1.708,-2.989 0.8,-0.589 1.769,-0.852 2.729,-0.753 0.176,0.018 0.349,0.048 0.523,0.09 l 17.952,4.373 c 1.357,-12.389 2.739,-26.862 3.9,-41.795 1.757,-22.584 2.37,-38.197 2.398,-48.557 l -56.645,-7.828 c -0.003,0.023 -0.007,0.044 -0.009,0.067 -0.585,5.667 -1.44,12.063 -2.49,18.865 l 46.214,5.171 c 2.236,0.25 3.857,2.363 3.619,4.718 -0.237,2.343 -2.223,4.043 -4.444,3.815 -0.013,-10e-4 -0.024,-0.002 -0.036,-0.003 l -46.725,-5.228 c -5.414,32.053 -14.202,69.792 -19.391,83.543 m -22.837,-214.647 c -11.783,-3.83 -23.967,-7.789 -34.793,-9.612 -14.017,-2.361 -26.026,1.183 -38.527,5.266 0.844,2.241 3.873,9.174 10.991,15.397 0.374,0.226 0.712,0.512 1.001,0.848 3.584,2.939 8.123,5.656 13.821,7.559 0.264,0.056 0.517,0.139 0.758,0.246 6.898,2.174 15.45,3.161 26.001,1.961 1.907,-0.214 3.705,1 4.305,2.923 0.198,0.632 4.525,15.022 -2.686,37.179 l 1.186,0.124 c 2.239,0.232 3.873,2.332 3.652,4.689 -0.22,2.356 -2.212,4.076 -4.448,3.847 -0.001,0 -0.003,-0.001 -0.005,-0.001 l -3.366,-0.35 c -3.223,8.823 -5.749,16.128 -7.243,22.011 l 43.558,0.997 5.798,-51.727 c 0.213,-1.901 1.595,-3.423 3.388,-3.73 l 5.86,-1.006 c 0.784,-8.967 2.654,-17.312 6.497,-22.277 1.135,-1.466 2.25,-2.804 3.343,-4.049 -12.327,-1.599 -25.807,-5.978 -39.091,-10.295 m -82.046,19.93 -0.5,35.236 27.587,2.872 2.33,-31.423 c -5.286,-2.086 -9.589,-4.749 -13.035,-7.482 l -16.382,0.797 z m -13.87,0.673 1.46,33.323 3.776,0.393 0.483,-33.993 -5.719,0.277 z m 68.435,40.295 c 5.06,-14.421 4.62,-25.247 3.924,-30.363 -4.795,0.347 -9.205,0.263 -13.258,-0.153 -2.775,-0.285 -5.382,-0.726 -7.828,-1.293 l -2.208,29.792 19.37,2.017 z m -66.004,15.188 c 3.142,0.567 6.389,1.233 9.703,2.016 18.052,4.267 33.202,10.934 45.033,19.719 0.07,-0.602 0.155,-1.217 0.254,-1.845 0.019,-0.315 0.071,-0.619 0.151,-0.91 1.201,-6.87 3.988,-15.275 7.828,-25.865 l -63.56,-6.616 0.591,13.501 z m 122.288,-30.698 -1.071,0.184 -5.347,47.7 11.335,0.259 c 1.196,-3.15 2.868,-6.063 4.995,-8.707 -4.445,-1.976 -7.883,-5.186 -8.312,-10.429 -0.517,-4.184 -1.841,-16.341 -1.6,-29.007 m -59.41,59.318 c 3.182,3.07 6.03,6.344 8.527,9.807 0.174,0.201 0.326,0.416 0.458,0.642 1.857,2.636 3.513,5.382 4.965,8.232 22.618,44.416 13.766,78.571 10.224,88.642 l 9.731,4.873 c 2.54,-1.52 4.531,-3.777 6.082,-7.886 5.844,-15.487 18.819,-73.006 22.314,-106.898 0.002,-0.018 0.006,-0.035 0.007,-0.054 l -10.275,-0.235 -11.343,101.196 c -0.264,2.351 -2.315,4.053 -4.522,3.756 -2.234,-0.277 -3.831,-2.409 -3.567,-4.761 l 11.251,-100.378 -44.077,-1.01 c -0.082,1.528 -0.012,2.884 0.225,4.074 m -11.701,45.475 29.985,9.416 c -2.027,-9.65 -5.581,-20.509 -11.512,-32.155 -0.435,-0.856 -0.888,-1.693 -1.359,-2.517 l -17.114,25.256 z m 11.424,59.102 -45.096,31.88 5.811,8.729 6.578,-5.302 c 1.786,-1.44 4.342,-1.084 5.709,0.798 1.367,1.881 1.027,4.573 -0.758,6.013 l -9.95,8.02 c -0.88,0.71 -1.986,1.013 -3.096,0.833 -1.097,-0.178 -2.077,-0.82 -2.715,-1.776 l -3.735,-5.611 -2.974,2.647 11.183,15.447 c 21.754,-21.967 40.589,-38.994 54.632,-46.721 0.003,-0.002 0.007,-0.005 0.011,-0.007 2.468,-1.564 5.002,-2.56 7.515,-3.376 l -23.115,-11.574 z m -14.733,-7.377 -42.507,6.955 4.445,20.737 3.022,4.54 41.219,-29.138 -6.179,-3.094 z m -62.815,49.688 24.243,34.014 c 3.73,-3.886 7.392,-7.663 10.981,-11.319 l -12.806,-17.688 c -0.731,-1.009 -0.582,-2.444 0.34,-3.264 l 4.93,-4.388 -4.254,-6.39 c -0.024,-0.036 -0.049,-0.072 -0.073,-0.109 l -3.431,-5.156 -19.93,14.3 z m 12.241,-41.413 -8.175,1.337 -2.883,28.848 15.192,-10.9 -4.134,-19.285 z m -59.199,9.685 c 0.116,0.28 0.203,0.575 0.253,0.883 0.01,0.066 1.147,6.843 7.006,22.278 2.575,6.785 6.327,15.499 10.668,24.259 0.045,-0.029 0.085,-0.064 0.134,-0.089 l 21.699,-11.413 -1.876,-2.632 c -0.667,-0.937 -0.942,-2.121 -0.76,-3.277 0.182,-1.155 0.806,-2.182 1.725,-2.842 l 5.261,-3.774 c -0.442,-0.483 -0.693,-1.153 -0.62,-1.875 l 2.908,-29.109 -46.398,7.591 z m 32.01,71.776 c 3.39,-2.257 6.721,-4.463 8.844,-5.837 3.451,-2.235 6.399,-2.085 8.259,-1.564 3.178,0.886 5.258,3.314 6.265,4.78 l 9.075,3.652 c 0.306,-0.322 0.609,-0.638 0.915,-0.96 l -22.847,-32.055 -22.438,11.801 c -0.012,0.006 -0.024,0.009 -0.036,0.015 3.756,7.262 7.855,14.346 11.963,20.168 m 9.098,25.868 c 0.771,-0.825 1.555,-1.664 2.339,-2.503 -2.745,-2.859 -5.509,-5.617 -8.12,-8.029 -1.829,-1.69 -3.67,-3.713 -5.501,-5.98 -1.446,0.967 -2.759,1.846 -3.83,2.564 l 15.112,13.948 z m -13.598,33.339 10.899,11.117 19.98,-22.169 -9.553,-8.817 c -2.105,2.249 -4.156,4.437 -6.134,6.54 -4.505,4.786 -9.631,9.215 -15.192,13.329 m -29.62,17.519 c 5.898,8.859 12.682,19.701 19.507,30.927 l 20.416,-18.926 c -1.581,-0.188 -3.071,-0.913 -4.226,-2.092 l -18.679,-19.054 c -5.461,3.28 -11.172,6.322 -17.018,9.145 m 33.085,53.614 13.88,-6.715 2.045,-40.573 -3.024,3.355 c -0.052,0.059 -0.111,0.11 -0.165,0.166 0.754,0.988 0.651,2.431 -0.262,3.276 L -398,324.588 c 3.772,6.243 7.523,12.54 11.114,18.623 m 38.541,-33.399 c 0.005,-1.303 -0.87,-2.942 -2.534,-4.757 -0.1,0.039 -0.199,0.078 -0.299,0.117 -2.23,0.864 -4.198,2.925 -4.678,4.901 -0.314,1.291 0.155,2.051 0.536,2.511 0.852,1.03 1.751,1.6 2.673,1.694 0.044,0.005 0.089,0.008 0.133,0.011 0.924,0.049 1.57,-0.381 1.666,-0.473 0.15,-0.174 0.346,-0.38 0.575,-0.616 1.014,-1.045 1.925,-2.091 1.928,-3.388 m -28.807,50.027 46.033,-31.335 c 0.606,-0.411 1.32,-0.591 2.027,-0.518 0.175,0.018 0.348,0.051 0.519,0.1 0.867,0.246 1.593,0.868 1.999,1.712 l 8.99,18.675 c 0.791,1.643 0.167,3.65 -1.393,4.483 -1.56,0.833 -3.466,0.176 -4.257,-1.467 l -7.4,-15.371 -43.217,29.418 c 2.268,3.924 4.323,7.497 6.096,10.593 l 39.699,-25.388 c 0.609,-0.389 1.291,-0.537 1.949,-0.469 0.959,0.098 1.864,0.655 2.403,1.588 0.908,1.575 0.432,3.627 -1.063,4.583 l -39.722,25.403 c 2.068,3.631 3.369,5.934 3.652,6.435 0.07,0.123 0.136,0.248 0.199,0.375 0.227,0.461 1.53,3.104 3.546,7.305 2.225,-0.445 11.501,-2.443 20.431,-6.486 -0.002,-0.024 -0.004,-0.048 -0.004,-0.072 l -0.526,-12.498 c -0.06,-1.423 0.744,-2.729 2.003,-3.251 4.389,-1.821 25.319,-10.23 34.984,-9.263 l 13.999,-10.272 c 2.241,-5.839 4.883,-12.354 7.934,-19.286 3.456,-7.856 7.041,-15.348 10.736,-22.447 l -35.612,-45.801 -19.044,18.98 c -0.725,0.724 -1.639,1.092 -2.565,1.148 l -0.443,0.501 c -0.054,0.06 -0.11,0.119 -0.167,0.175 -0.45,0.439 -9.4,9.093 -19.514,14.768 1.914,2.565 2.878,5.139 2.87,7.676 -0.012,4.197 -2.591,6.857 -3.831,8.134 -0.13,0.134 -0.243,0.247 -0.327,0.344 -1.439,1.664 -3.855,2.681 -6.303,2.652 -1.99,-0.021 -4.929,-0.737 -7.625,-3.996 -1.982,-2.395 -2.656,-5.431 -1.898,-8.549 1.006,-4.134 4.392,-7.866 8.629,-9.507 10.717,-4.153 22.525,-15.298 23.618,-16.343 l 0.759,-0.858 c 0.146,-0.877 0.537,-1.715 1.198,-2.374 l 0.658,-0.655 -14.063,-15.784 -24.965,27.7 -2.399,47.589 c -0.002,0.043 -0.014,0.082 -0.018,0.124 -0.009,0.083 -0.02,0.164 -0.036,0.244 -0.016,0.076 -0.034,0.15 -0.056,0.223 -0.022,0.072 -0.047,0.142 -0.075,0.212 -0.029,0.073 -0.061,0.143 -0.097,0.211 -0.034,0.067 -0.072,0.131 -0.113,0.194 -0.04,0.063 -0.082,0.123 -0.128,0.181 -0.048,0.06 -0.098,0.117 -0.151,0.173 -0.052,0.053 -0.105,0.104 -0.161,0.152 -0.056,0.048 -0.113,0.093 -0.174,0.135 -0.066,0.047 -0.135,0.088 -0.206,0.128 -0.035,0.019 -0.064,0.044 -0.1,0.062 l -14.608,7.068 c 2.567,4.367 5.028,8.583 7.33,12.546 m 23.417,43.174 c 0.442,0.938 0.898,1.908 1.37,2.915 9.523,-1.917 30.619,-5.344 44.536,-1.466 0.789,0.22 1.561,0.431 2.325,0.638 0.945,-4.14 3.01,-9.341 5.162,-14.117 l -27.426,1.333 c -0.375,0.215 -0.75,0.427 -1.12,0.636 -5.139,2.883 -11.348,5.388 -18.455,7.444 -2.825,0.818 -4.895,1.365 -6.432,1.712 l 0.04,0.905 z m 10.807,23.578 2.32,3.946 c 4.877,0.377 20.355,1.545 39.904,2.726 -1.255,-5.147 -3.87,-15.993 -4.94,-21.315 -1.234,-0.329 -2.5,-0.673 -3.805,-1.037 -11.819,-3.292 -30.326,-0.585 -40.017,1.25 2.051,4.444 4.265,9.313 6.538,14.43 m 20.308,51.12 c 3.589,11.105 6.535,25.064 9.654,39.844 2.283,10.82 4.759,22.548 7.776,34.439 l 33.49,-7.145 -11.661,-66.464 c -0.026,-0.149 -0.042,-0.3 -0.049,-0.452 l -0.502,-11.478 -0.726,-25.571 c -23.794,-1.267 -44.609,-2.787 -53.561,-3.471 5.858,13.647 11.628,28.075 15.579,40.298 m 53.405,108.451 c 4.154,-1.115 13.629,-3.246 22.962,-5.287 l -5.979,-33.38 -24.762,5.283 c 2.425,13.909 5.749,28.956 7.779,33.384 m 27.394,-6.253 c 4.34,-0.942 8.443,-1.822 11.742,-2.526 4.69,-6.916 9.951,-14.726 15.841,-23.537 4.217,-6.31 7.901,-11.87 11.12,-16.832 l -44.678,9.534 5.975,33.361 z m 34.532,-5.603 27.219,-2.695 c 0.811,-10.052 1.106,-25.127 -1.221,-30.049 -1.091,-2.307 -2.613,-3.885 -4.129,-4.972 -4.553,7.318 -10.149,15.818 -16.977,26.033 -1.825,2.729 -3.589,5.363 -5.295,7.904 l 0.403,3.779 z m 30.5,-37.887 19.819,-3.59 -5.356,-23.588 c -2.915,-0.551 -5.648,-1.516 -8.002,-2.561 -2.124,6.936 -5.83,14.498 -11.66,24.283 1.833,1.274 3.676,3.034 5.199,5.456 m 3.122,34.558 33.846,-3.35 -8.368,-29.619 -26.105,4.728 c 1.777,8.297 1.127,21.519 0.627,28.241 m 35.926,-71.424 -12.167,-50.997 -24.201,-0.054 c 0.31,2.101 0.657,4.246 1.055,6.449 0.467,2.591 0.919,5.026 1.345,7.327 2.905,15.695 4.604,25.855 3.257,35.906 3.402,1.679 8.054,3.348 12.513,2.888 2.104,-0.217 8.834,-0.773 18.198,-1.519 m 36.539,-33.389 c 0.101,-5.774 0.572,-11.636 1.323,-17.498 l -43.301,-0.095 6.558,23.064 35.42,-5.471 z m -30.128,32.88 c 9.472,-0.748 20.771,-1.627 32.4,-2.526 -0.598,-6.022 -1.146,-11.292 -1.62,-15.475 -0.304,-2.678 -0.49,-5.398 -0.59,-8.146 l -35.133,5.427 4.943,20.72 z m 10.55,44.222 21.857,-5.052 3.549,-3.801 c -0.936,-10.369 -1.864,-20.416 -2.723,-29.358 -11.147,0.862 -21.99,1.705 -31.218,2.432 l 8.535,35.779 z m 29.989,-136.414 -83.808,-4.839 c -1.364,8.733 -2.359,22.203 -0.379,39.816 l 76.069,0.168 c 1.967,-12.153 4.964,-24.14 8.118,-35.145 m 5.295,-17.443 -43.172,0.28 c -0.85,0.005 -1.657,-0.345 -2.255,-0.973 -0.599,-0.627 -0.934,-1.481 -0.932,-2.371 0.026,-11.524 -0.304,-25 -0.89,-29.21 -3.473,-0.599 -13.781,-0.4 -23.851,0.195 -8.339,18.025 -14.079,30.368 -15.414,33.236 -0.186,0.547 -0.711,2.187 -1.325,4.839 l 84.474,4.877 c 1.138,-3.785 2.273,-7.422 3.365,-10.873 m 71.045,74.721 c 0.675,-5.194 2.247,-17.351 4.035,-31.485 l -69.063,-12.069 c -4.131,15.878 -7.402,33.047 -7.259,48.835 l 72.287,-5.281 z m -71.721,15.107 c 0.493,4.353 1.066,9.863 1.691,16.167 26.817,-2.064 52.11,-3.987 57.593,-4.403 l 17.882,-10.873 -4.529,-9.378 -72.93,5.328 c 0.081,1.061 0.175,2.116 0.293,3.159 m 4.502,45.906 c 19.509,-1.3 46.59,-3.9 55.823,-6.779 l -1.686,-18.714 c -7.137,0.542 -30.924,2.353 -56.117,4.291 0.632,6.59 1.3,13.757 1.98,21.202 m 60.195,-8.701 c 8.109,-3.897 25.04,-11.181 42.772,-16.344 L 9.4,478.84 l -32.483,19.752 1.608,17.85 z m 6.121,67.978 20.879,-6.814 -8.323,-49.279 c -0.163,-0.961 0.083,-1.95 0.673,-2.704 0.588,-0.754 1.462,-1.198 2.389,-1.215 8.162,-0.153 21.364,-0.728 25.548,-1.701 0.735,-2.044 -0.114,-9.201 -1.893,-16.465 -19.29,5.514 -37.875,13.777 -44.759,17.249 l 5.486,60.929 z m 27.058,-8.326 52.256,-5.758 -0.147,-3.229 -8.801,-66.685 c -3.234,0.383 -6.273,0.755 -8.904,1.077 -5.143,0.631 -10.575,1.723 -16.043,3.095 1.534,6.188 3.635,16.925 1.167,21.612 -0.956,1.817 -2.318,2.535 -3.291,2.817 -4.299,1.247 -17.276,1.773 -23.855,1.964 l 7.618,45.107 z m 16.547,-118.622 -6.445,-2.798 c -1.137,-0.495 -1.899,-1.636 -1.956,-2.931 l -0.422,-9.618 -7.173,-2.348 -3.236,6.826 -4.236,16.51 5.165,5.489 18.303,-11.13 z m 11.752,-37.714 -15.977,-4.808 -8.904,18.78 8.308,2.719 c 1.273,0.417 2.163,1.629 2.224,3.032 l 0.431,9.834 7.4,3.214 6.518,-32.771 z m 1.302,-6.547 7.356,-36.981 c -4.759,-2.733 -8.534,-4.742 -10.99,-5.792 l -5.08,-1.75 -6.77,39.864 15.484,4.659 z m 9.698,-45.378 14.116,-30.018 C 56.231,332.853 48.145,327.749 41.25,322.55 14.54,302.411 -7.393,286.986 -25.822,274.902 c -2.149,9.927 -7.192,26.54 -19.002,47.633 -1.686,3.013 -3.252,5.965 -4.707,8.844 l 89.866,30.952 c 0.083,0.029 0.166,0.061 0.249,0.096 2.394,1.011 5.963,2.879 10.419,5.406 M 72.977,279.4 40.062,266.437 26.725,293.136 c 7.249,5.275 14.887,10.933 22.954,17.016 4.489,3.385 9.55,6.74 15.057,10.05 1.625,-4.187 3.492,-10.805 4.088,-20.115 0.285,-4.451 1.919,-12.013 4.153,-20.687 m 14.756,-49.757 -37.282,-1.649 -6.462,30.266 c -0.038,0.173 -0.085,0.344 -0.142,0.511 l 31.347,12.345 c 4.342,-15.717 9.773,-32.891 12.539,-41.473 m 1.897,78.813 c 1.667,-0.213 3.758,-0.544 6.177,-0.927 4.16,-0.659 9.36,-1.481 15.116,-2.114 l 2.514,-74.633 -17.218,-0.763 c -3.943,12.165 -18.43,57.591 -19.268,70.646 -0.093,1.44 -0.215,2.82 -0.359,4.153 1.326,1.373 5.352,4.625 13.038,3.638 m 25.088,-115.662 c 0.004,-0.116 0.03,-0.224 0.042,-0.337 l -32.258,3.578 -2.953,24.662 13.895,0.615 c 0.052,10e-4 0.105,0.003 0.157,0.007 l 20.125,0.89 0.992,-29.415 z m 12.62,-11.316 -0.114,-57.138 -15.494,-0.428 c -0.079,0.276 -0.184,0.54 -0.312,0.789 l -0.364,58.583 16.284,-1.806 z m 13.461,123.793 7.254,-116.508 -25.403,2.818 c 0.151,0.476 0.225,0.987 0.208,1.518 l -3.762,111.604 c 7.028,-0.441 14.496,-0.427 21.703,0.568 m 15.582,4.161 c 0.849,0.368 1.721,0.712 2.603,1.044 l 3.275,-122.237 c 0.01,-0.374 0.079,-0.728 0.174,-1.071 l -6.172,0.685 c 0,0.029 0.002,0.057 0.001,0.086 0.001,0.006 0,0.011 0,0.017 -0.001,0.082 -0.005,0.164 -0.011,0.244 l -7.388,118.659 c 2.594,0.683 5.113,1.53 7.518,2.573 m 16.922,4.906 15.09,-127.392 -0.049,-2.653 -18.432,2.045 c 0.326,0.638 0.509,1.367 0.488,2.142 l -3.335,124.499 c 2.076,0.524 4.168,0.972 6.238,1.359 m 14.307,-170.195 -32.899,8.217 1.138,25.955 32.321,-3.586 -0.56,-30.586 z m -24.2,-52.626 -0.136,-106.203 c -4.809,-0.237 -10.16,-0.504 -15.92,-0.8 l 4.715,107.554 11.341,-0.551 z m -16.987,57.769 c -0.004,-0.057 -0.006,-0.114 -0.007,-0.171 l -1.065,-24.275 -9.981,-0.276 0.111,56.011 12.253,-1.36 -1.311,-29.929 z m -2.301,-52.491 c -0.001,-0.016 -0.001,-0.032 -0.003,-0.048 0,-0.015 0,-0.03 -0.002,-0.046 l -0.986,-22.513 c -0.72,0.153 -1.47,0.194 -2.233,0.101 l -86.262,-10.47 -0.085,1.815 c -0.004,0.086 -0.01,0.172 -0.019,0.257 -0.297,2.857 -0.635,7.677 -0.727,13.133 l 55.756,2.031 c 1.083,0.038 2.113,0.535 2.851,1.376 0.737,0.841 1.125,1.958 1.077,3.102 l -1.27,29.812 32.755,0.904 -0.852,-19.454 z m -4.94,-112.706 c -24.972,-1.314 -55.549,-3.064 -81.67,-4.978 l -0.767,39.236 c 0,0.04 -0.002,0.081 -0.003,0.121 L 55.344,48.555 68.431,50.144 66.275,9.441 c -0.126,-2.365 1.593,-4.388 3.839,-4.521 0.212,-0.012 0.421,-0.008 0.626,0.013 1.966,0.202 3.553,1.889 3.667,4.03 l 2.235,42.177 18.533,2.25 -0.449,-22.508 c -0.047,-2.368 1.738,-4.328 3.986,-4.378 0.165,-0.003 0.327,0.004 0.487,0.02 2.025,0.208 3.627,1.983 3.671,4.178 l 0.472,23.679 21.542,2.615 1.452,-52.015 c 0.065,-2.367 1.942,-4.23 4.19,-4.16 0.094,0.002 0.188,0.009 0.28,0.019 2.113,0.217 3.734,2.125 3.671,4.394 l -1.473,52.747 9.467,1.149 -3.289,-75.041 z M 72.003,197.2 c -0.122,0.021 -0.246,0.032 -0.372,0.041 l -14.967,1.661 -4.397,20.588 19.116,0.846 2.799,-23.378 -2.179,0.242 z m 32.073,-82.079 1.091,-25.645 -51.275,-1.868 c 0.283,7.043 1.155,14.027 3.145,18.513 0.695,1.564 1.524,3.285 2.402,5.107 0.42,0.87 0.852,1.767 1.296,2.697 l 43.341,1.196 z m -39.454,7.491 c 5.493,13.342 10.974,32.641 10.866,64.618 l 27.415,-3.041 0.377,-60.51 -38.658,-1.067 z m -56.576,81.683 -3.736,9.808 15.158,6.953 c 2.062,0.946 3.006,3.472 2.107,5.643 -0.897,2.172 -3.298,3.166 -5.359,2.22 L 1.277,222.067 -14.77,264.194 c 10.441,6.918 21.951,14.862 34.735,24.052 l 16.195,-32.422 7.072,-33.118 c 0.012,-0.063 0.025,-0.125 0.04,-0.186 l 4.841,-22.669 -40.067,4.444 z M -20.645,50.611 c -9.67,21.107 -20.628,45.03 -28.333,66.123 -2.054,5.621 -5.558,14.206 -10.111,24.908 l 68.184,51.085 c 0.6,0.45 1.047,1.05 1.336,1.72 l 10.878,-1.206 2.108,-95.453 -29.818,-7.695 c -2.185,-0.564 -3.522,-2.886 -2.987,-5.187 0.536,-2.3 2.744,-3.708 4.925,-3.144 L 23.61,89.006 24.322,56.809 -18.614,46.175 c -0.667,1.458 -1.344,2.936 -2.031,4.436 m -67.718,14.214 -39.966,-9.291 -2.349,32.44 c 4.408,1.145 12.233,3.76 21.329,9.398 4.186,2.595 8.992,5.235 13.578,7.621 l 7.408,-40.168 z m -6.086,121.078 c 2.606,-5.836 5.129,-11.509 7.542,-16.963 l -27.417,-15.044 -4.12,11.571 c -0.79,2.218 -3.136,3.343 -5.243,2.51 -2.106,-0.832 -3.173,-3.304 -2.383,-5.521 l 5.735,-16.108 c 0.41,-1.149 1.267,-2.059 2.357,-2.499 0.596,-0.24 1.23,-0.327 1.852,-0.263 0.513,0.053 1.018,0.208 1.487,0.465 l 31.167,17.102 c 3.046,-6.924 5.878,-13.422 8.44,-19.373 -9.33,-3.865 -29.414,-12.409 -42.992,-19.809 -6.383,-3.48 -22.519,-5.298 -32.687,-6.027 -1.907,18.644 -3.981,35.169 -5.523,43.229 -0.018,0.096 -0.042,0.191 -0.061,0.287 l 61.846,26.443 z m -59.122,3.587 c 5.606,3.344 10.902,6.502 15.9,9.429 10.496,6.148 19.937,10.351 30.628,15.022 3.65,-8.087 7.223,-16.033 10.664,-23.721 L -157.4,164.13 c -1.782,6.441 -4.544,12.662 -7.776,18.474 3.807,2.245 7.675,4.542 11.605,6.886 m -37.952,27.225 -0.806,0.846 c -1.163,1.222 -2.59,2.082 -4.269,2.58 l 0.173,3.953 c 0.315,7.202 -3.93,11.754 -11.636,20.017 -0.357,0.382 -0.722,0.775 -1.096,1.176 l 15.813,11.113 31.511,-54.313 c -3.654,-2.179 -7.495,-4.467 -11.464,-6.811 -6.962,9.629 -14.205,17.226 -18.226,21.439 m -56.495,-33.056 c 17.034,9.832 38.302,20.584 46.824,21.679 3.319,-3.483 9.235,-9.779 15.049,-17.563 -16.989,-9.779 -35.064,-19.539 -50.226,-25.641 l -11.647,21.525 z m -23.311,-15.22 c 2.352,2.328 9.913,7.322 19.354,12.908 l 11.295,-20.875 c -10.31,-3.796 -18.961,-5.576 -24.536,-4.053 -0.599,0.186 -1.181,0.378 -1.742,0.578 -0.557,0.212 -1.131,0.453 -1.725,0.726 -1.9,4.224 -3.118,9.011 -2.646,10.716 m -22.521,41.926 15.878,19.319 5.499,-5.481 c 1.605,-1.599 4.126,-1.559 5.685,0.088 l 33.803,35.72 c 8.057,-10.055 14.369,-16.823 19.112,-21.909 7.189,-7.709 9.457,-10.305 9.311,-13.612 l -0.19,-4.337 c -15.379,-3.182 -49.622,-21.61 -67.466,-33.79 l -21.632,24.002 z m -22.973,3.339 9.391,-10.42 c 0.235,-0.589 0.583,-1.138 1.074,-1.585 0.277,-0.252 0.582,-0.441 0.897,-0.602 l 21.953,-24.358 c -1.401,-2.313 -2.083,-4.905 -2.271,-7.567 -11.181,9.005 -24.457,21.698 -37.798,35.203 l 6.754,9.329 z m -15.431,17.121 12.275,-13.62 -6.876,-9.497 c -4.621,4.718 -9.229,9.504 -13.741,14.24 l 8.342,8.877 z m 3.781,27.822 c -0.33,-0.381 -0.571,-0.837 -0.705,-1.333 l -1.609,-5.965 -7.288,8.085 14.229,15.972 3.679,-3.667 1.522,-1.721 -9.828,-11.371 z m 31.349,-9.874 -13.962,-19.284 -14.633,16.236 2.431,9.011 9.34,10.805 16.824,-16.768 z m 9.646,13.325 -4.68,-6.465 -5.058,5.041 4.562,5.867 5.176,-4.443 z m 3.585,-26.512 -15.591,-18.97 -8.446,9.371 14.111,19.492 9.926,-9.893 z m 36.152,44.052 c 3.393,-4.783 6.573,-9.087 9.55,-12.977 l -31.565,-33.355 -5.672,5.653 c -0.023,0.023 -0.046,0.046 -0.069,0.069 l -13.356,13.311 6.302,8.705 c 0.74,1.022 0.576,2.479 -0.371,3.291 l -6.866,5.892 26.558,34.157 c 4.989,-8.968 10.162,-17.237 15.489,-24.746 m -2.848,59.895 c 1.169,-2.527 3.527,-8.61 6.196,-15.744 l -16.386,-6.537 c -2.699,5.217 -5.338,10.652 -7.912,16.297 7.626,3.48 15.31,6.026 18.102,5.984 m -15.604,95.546 -4.251,-28.174 -6.149,9.065 -1.37,18.556 c 3.881,0.195 7.817,0.381 11.77,0.553 m 21.792,0.795 c -0.066,-0.276 -0.108,-0.562 -0.121,-0.857 l -1.671,-38.123 -0.008,-0.24 -14.246,-1.608 -4.687,4.54 5.395,35.763 c 5.147,0.205 10.285,0.383 15.338,0.525 m 58.479,29.322 c -0.43,-2.322 -0.885,-4.78 -1.357,-7.395 -1.04,-5.754 -1.794,-11.197 -2.319,-16.321 -18.775,2.38 -55.754,1.379 -88.693,-0.269 l 0.709,24.99 0.49,11.197 11.602,66.127 67.4,-14.38 c 7.711,-12.3 11.906,-20.332 13.979,-27.264 3.077,-10.284 1.443,-19.107 -1.811,-36.685 m 55.259,-199.271 -20.908,-9.967 -26.153,57.925 3.748,0.889 c 2.18,0.517 3.556,2.787 3.086,5.087 l -12.303,60.082 c 6.6,-14.21 28.797,-62.069 52.53,-114.016 m -17.41,-17.714 20.94,9.982 c 4.621,-10.13 9.274,-20.357 13.855,-30.468 -7.314,-3.198 -14.103,-6.229 -21.109,-9.828 l -13.686,30.314 z m -42.185,163.636 c 0.368,-5.627 0.997,-10.414 1.683,-14.34 l -49.454,-0.38 0.446,10.164 47.325,4.556 z m -46.315,24.22 c 18.961,0.391 35.976,0.172 46.413,-1.207 -0.469,-6.859 -0.524,-13.059 -0.32,-18.581 l -46.899,-4.341 0.994,22.684 c 0.022,0.505 -0.055,0.988 -0.188,1.445 m 38.98,-172.343 -17.311,-12.165 c -3.171,3.534 -6.792,7.719 -10.888,12.783 l 23.013,8.322 5.186,-8.94 z m -4.739,18.17 -29.022,-10.494 c -3.061,3.981 -6.345,8.414 -9.862,13.371 -5.337,7.525 -10.525,15.853 -15.525,24.919 l 15.307,6.108 c 2.181,-5.941 4.359,-11.974 6.108,-16.886 0.385,-1.079 1.164,-1.95 2.164,-2.416 1.002,-0.467 2.137,-0.489 3.154,-0.064 l 38.965,16.31 c 2.09,0.875 3.111,3.369 2.28,5.57 -0.831,2.201 -3.202,3.277 -5.289,2.401 l -35.112,-14.697 c -1.154,3.215 -2.828,7.851 -4.651,12.822 l 14.284,5.699 c 1.046,0.417 1.883,1.27 2.315,2.357 0.431,1.088 0.418,2.315 -0.036,3.392 l -21.337,50.649 0.326,9.519 44.59,0.343 c 0.008,-0.254 0.029,-0.509 0.081,-0.766 l 4.154,-20.283 -10.277,-1.294 c -0.047,-0.005 -0.095,-0.011 -0.142,-0.018 l -17.355,-2.185 -10.533,21.309 c -1.039,2.101 -3.499,2.917 -5.493,1.824 -1.996,-1.093 -2.771,-3.683 -1.732,-5.784 l 11.833,-23.94 c 0.783,-1.583 2.454,-2.486 4.096,-2.278 l 16.826,2.119 5.363,-18.671 -14.971,-6.964 c -2.058,-0.957 -2.988,-3.49 -2.08,-5.656 0.91,-2.167 3.316,-3.144 5.371,-2.19 l 18.267,8.497 c 1.881,0.875 2.848,3.091 2.252,5.165 l -5.99,20.853 6.289,0.792 8.011,-39.122 -4.782,-1.134 c -1.207,-0.287 -2.225,-1.136 -2.767,-2.308 -0.541,-1.173 -0.547,-2.54 -0.015,-3.718 l 45.625,-101.052 c -1.016,-0.573 -2.029,-1.14 -3.067,-1.748 -3.225,-1.889 -6.574,-3.875 -10.032,-5.932 l -42.793,73.761 c -0.995,1.716 -2.984,2.474 -4.798,1.82 m 157.994,-69.607 -10.137,27.374 c 9.586,5.429 20.348,11.929 32.683,19.928 l 9.693,-25.446 -32.239,-21.856 z m 10.166,-3.308 25.161,17.057 7.894,-20.724 -33.055,3.667 z m -28.331,-59.368 c -2.485,5.765 -5.203,11.996 -8.107,18.6 l 16.991,9.323 2.733,-5.024 c 1.118,-2.055 3.606,-2.768 5.558,-1.59 1.952,1.177 2.627,3.797 1.51,5.852 l -2.572,4.729 17.556,9.633 c 1.995,1.094 2.769,3.684 1.73,5.785 -0.438,0.885 -1.135,1.525 -1.936,1.907 l 28.071,-3.114 -61.534,-46.101 z m -11.542,26.387 c -6.009,13.585 -12.67,28.459 -19.611,43.84 9.074,4.08 19.138,8.862 31.121,15.356 l 11.608,-31.347 c 0.615,-1.661 2.059,-2.821 3.742,-3.008 l 15.598,-1.73 c -0.343,-0.08 -0.684,-0.19 -1.011,-0.369 L -74.045,175.998 z M -51.358,45.57 c 1.162,0.291 2.145,1.103 2.689,2.224 0.543,1.121 0.591,2.436 0.132,3.597 l -26.893,68.033 c -0.417,1.055 -1.216,1.891 -2.222,2.323 -1.005,0.43 -2.132,0.422 -3.131,-0.024 -0.368,-0.165 -4.665,-2.095 -10.499,-4.951 l -3.02,7.372 c 8.932,4.065 17.546,7.7 22.62,9.802 4.134,-9.742 7.311,-17.543 9.189,-22.686 7.918,-21.679 19.015,-45.902 28.806,-67.275 0.287,-0.626 0.573,-1.25 0.859,-1.874 -9.053,-2.797 -24.574,-7.501 -40.833,-12.008 l -1.747,9.468 24.05,5.999 z m -10.294,16.681 3.754,-9.498 -19.063,-4.755 -1.892,10.254 17.201,3.999 z m -26.529,46.572 c 2.661,1.307 5.017,2.426 6.825,3.274 l 16.524,-41.802 -15.575,-3.62 -7.774,42.148 z m -38.702,-73.278 -0.822,11.351 40.896,9.507 1.914,-10.384 -41.988,-10.474 z m 43.543,2.047 1.78,-9.646 c -13.271,-3.563 -26.418,-6.773 -36.373,-8.504 -2.733,-0.476 -5.276,-1.013 -7.669,-1.599 l -0.655,9.044 42.917,10.705 z m 18.745,291.237 c 2.164,-4.496 4.585,-9.192 7.298,-14.038 13.69,-24.45 17.351,-42.024 18.287,-48.349 -26.678,-16.714 -45.269,-25.818 -60.876,-32.823 -13.432,29.65 -27.473,60.293 -39.578,86.588 l 41.734,4.806 21.516,-55.055 c 0.7,-1.791 2.419,-2.816 4.16,-2.637 0.388,0.04 0.777,0.139 1.156,0.303 2.08,0.902 3.072,3.408 2.216,5.598 l -20.619,52.762 24.706,2.845 z m -3.764,8.195 -16.449,-1.895 c -1.398,9.769 -3.719,32.115 -0.54,39.33 l 2.677,6.074 c 0.498,-1.567 0.977,-3.08 1.424,-4.518 0.593,-3.078 3.787,-18.19 12.888,-38.991 m 61.283,68.821 -62.627,-18.078 c -0.089,0.279 -0.176,0.552 -0.266,0.835 -2.398,7.515 -5.172,16.216 -7.767,25.516 l 68.154,11.91 c 0.834,-6.634 1.69,-13.514 2.506,-20.183 m 20.799,6.004 -14.629,-4.223 c -0.814,6.643 -1.666,13.473 -2.492,20.041 l 12.391,4.056 8.836,-18.638 -4.106,-1.236 z M 3.346,381.244 c -0.674,1.538 -1.622,4.415 -2.194,9.288 -0.389,3.31 -0.808,6.809 -1.244,10.412 l 15.523,4.481 4.267,1.284 3.389,-19.954 -19.741,-5.511 z m -66.059,-18.12 c -3.241,9.949 -4.375,16.089 -4.396,16.206 -0.058,0.332 -0.137,0.66 -0.237,0.981 -0.113,0.365 -0.233,0.744 -0.349,1.118 l 61.432,17.734 c 0.394,-3.264 0.773,-6.437 1.127,-9.451 0.549,-4.664 1.433,-7.939 2.292,-10.196 l -13.767,-3.844 -46.102,-12.548 z m 47.707,6.095 38.31,10.696 3.008,-13.389 -79.579,-27.41 c -2.986,6.482 -5.379,12.455 -7.279,17.707 l 45.54,12.396 z m 13.199,94.007 4.793,-18.685 c 0.055,-0.214 0.13,-0.421 0.224,-0.62 l 2.916,-6.15 -10.371,-3.395 c -1.974,15.594 -3.665,28.633 -4.144,32.313 l 4.876,10.098 7.789,-4.736 L -1,466.444 c -0.794,-0.844 -1.102,-2.07 -0.807,-3.218 m -114.146,-81.682 c -1.747,0.085 -3.229,-1.337 -3.31,-3.178 l -0.573,-13.075 -1.311,-23.05 c -4.532,0.056 -11.883,0.556 -16.591,0.921 l -0.384,6.937 c 9.297,0.27 10.134,1.771 10.766,2.901 1.19,2.126 1.807,12.212 1.837,29.997 l 36.845,-0.238 c -0.61,-1.383 -1.399,-3.174 -2.42,-5.492 -4.286,-9.726 -1.088,-35.31 -0.017,-42.863 l -4.327,-0.499 c -0.09,-0.006 -0.177,-0.017 -0.263,-0.03 l -47.537,-5.474 c -3.502,7.599 -6.806,14.755 -9.841,21.323 l 8.699,-1.214 0.478,-8.645 c 0.092,-1.661 1.332,-2.997 2.907,-3.131 0.717,-0.061 17.613,-1.488 23.048,-1.1 1.627,0.123 2.853,1.453 2.948,3.128 l 1.489,26.176 0.575,13.12 c 0.081,1.84 -1.27,3.401 -3.018,3.486 m -180.864,32.636 c 1.638,7.33 4.318,18.244 4.647,19.584 2.582,0.146 5.208,0.292 7.877,0.434 l 1.261,-17.081 c -2.8,-0.511 -7.543,-1.448 -13.785,-2.937 m -0.884,-7.063 c 8.217,2.02 14.184,3.152 16.868,3.624 l 9.717,-14.322 c 0.022,-0.032 0.048,-0.061 0.071,-0.093 0.095,-0.131 0.199,-0.253 0.31,-0.366 0.021,-0.023 0.037,-0.05 0.06,-0.072 l 6.996,-6.775 c 0.671,-0.65 1.609,-0.953 2.482,-0.862 l 14.766,1.668 -0.331,-9.663 c -0.023,-0.651 0.096,-1.298 0.347,-1.894 l 19.972,-47.411 -10.332,-4.122 c -3.105,8.289 -6.087,15.93 -7.291,18.035 -1.086,1.9 -4.318,7.548 -28.075,-3.531 -10.186,23.644 -15.521,42.188 -15.576,42.38 -0.083,0.289 -0.194,0.569 -0.332,0.833 -4.235,8.107 -8.617,18.115 -9.652,22.571 m -13.517,-34.642 c -6.152,1.585 -13.547,4.143 -19.543,6.531 l 0.284,6.763 0.928,-0.045 c 0.923,-0.556 1.817,-1.13 2.613,-1.715 l 15.718,-11.534 z m -6.17,12.658 20.296,-0.986 c 0.623,-1.248 1.202,-2.381 1.702,-3.343 0.464,-1.589 2.122,-7.122 4.974,-15.236 l -6.789,5.138 c -0.396,0.299 -0.844,0.494 -1.311,0.579 l -18.872,13.848 z m -20.133,-148.463 0.904,-1.003 -8.459,-9.002 c -0.558,0.59 -1.114,1.178 -1.668,1.765 l 9.223,8.24 z m -21.729,5.078 c 3.406,3.838 6.348,7.279 8.399,9.712 l 7.714,-8.559 -9.36,-8.362 c -2.306,2.456 -4.561,4.865 -6.753,7.209 m -6.595,7.059 9.491,8.759 0.497,-0.552 c -1.986,-2.358 -4.981,-5.869 -8.482,-9.82 -0.504,0.54 -1.007,1.079 -1.506,1.613 m 7.54,-29.734 -7.396,-2.977 c -0.701,-0.282 -1.284,-0.817 -1.645,-1.511 -0.012,-0.022 -1.223,-2.164 -3.023,-2.666 -0.987,-0.274 -2.069,-0.013 -3.319,0.797 -1.975,1.279 -5.012,3.288 -8.165,5.386 1.38,1.653 2.749,3.132 4.092,4.373 2.734,2.525 5.599,5.381 8.43,8.325 3.723,-3.977 7.399,-7.888 11.026,-11.727 m 259.347,-220.161 1.25,-6.787 c -0.728,-0.244 -1.455,-0.489 -2.18,-0.736 -18.297,-6.232 -27.58,-4.266 -32.145,-1.517 -3.671,2.212 -4.827,5.339 -5.106,6.3 0.765,1.031 4.861,5.319 21.566,8.225 26.4,4.591 72.614,18.648 89.09,23.781 2.561,-5.68 4.909,-11.002 6.858,-15.67 C -33.501,9.716 -61.617,3.59 -89.88,-5.331 l -1.082,5.876 c -0.428,2.326 -2.566,3.847 -4.773,3.394 -2.209,-0.451 -3.651,-2.701 -3.223,-5.027 M 52.176,115.11 c -0.908,-1.885 -1.767,-3.667 -2.517,-5.358 C 43.494,95.864 46.17,67.583 46.421,65.093 l 0.129,-2.779 -14.126,-3.498 -2.948,133.519 37.863,-4.201 c 0.214,-31.928 -5.345,-50.624 -10.74,-63.401 l -5.62,3.104 c -1.548,0.856 -3.442,0.576 -4.706,-0.696 L 36.025,116.827 c -1.626,-1.637 -1.685,-4.352 -0.131,-6.064 1.555,-1.713 4.135,-1.773 5.758,-0.138 l 8.133,8.185 3.295,-1.82 c -0.307,-0.642 -0.609,-1.268 -0.904,-1.88 m -453.867,411.7 -14.942,8.796 c 2.507,3.387 5.145,7.396 7.747,12.088 l 10.965,-4.015 -3.77,-16.869 z m 472.72,39.589 0.355,2.686 87.608,-14.255 3.928,-15.011 -92.572,11.599 0.681,14.981 z M 8.965,-40.289 c 1.572,0.137 3.157,0.274 4.77,0.414 3.927,0.341 7.986,0.694 12.153,1.063 l 10.372,-62.022 8.27,0 -10.494,62.754 c 10.997,0.999 24.001,1.982 37.726,2.913 l 3.583,-12.331 -15.573,-1.147 c -2.259,-0.163 -3.935,-2.215 -3.778,-4.578 0.157,-2.362 2.103,-4.144 4.347,-3.978 l 20.56,1.514 c 0.078,0.003 0.197,0.003 0.235,0.018 l 12.312,0.907 3.697,-32.502 -36.164,-3.551 c -0.006,0 -0.012,-0.001 -0.018,-0.002 -2.23,-0.229 -3.867,-2.314 -3.659,-4.666 0.208,-2.358 2.193,-4.092 4.433,-3.872 l 17.531,1.721 0.322,-3.2 8.191,0 -0.403,3.997 14.686,1.441 c 0.006,0.001 0.012,0.002 0.017,0.002 1.088,0.112 2.087,0.679 2.773,1.575 0.691,0.899 1.006,2.055 0.876,3.203 l -4.656,40.926 c -0.259,2.27 -2.162,3.928 -4.328,3.768 l -13.062,-0.961 -3.566,12.27 c 19.772,1.286 40.456,2.452 58.393,3.4 l -0.286,-6.521 -23.056,1.121 c -1.13,0.05 -2.233,-0.389 -3.041,-1.224 -0.808,-0.836 -1.249,-1.988 -1.218,-3.18 l 0.27,-10.188 c 0.063,-2.367 1.936,-4.232 4.185,-4.167 0.095,0.004 0.19,0.01 0.285,0.019 2.111,0.217 3.732,2.122 3.672,4.388 l -0.148,5.57 22.745,-1.105 c 1.078,-0.051 2.133,0.349 2.932,1.116 0.797,0.766 1.274,1.834 1.324,2.971 l 0.509,11.626 c 20.856,1.076 36.708,1.798 40.755,1.98 4.509,-1.126 8.897,-2.143 13.229,-3.061 l 0,15.573 c -3.557,0.784 -7.158,1.636 -10.846,2.565 -0.651,0.163 -1.318,0.231 -1.987,0.202 -0.247,-0.011 -6.437,-0.285 -16.415,-0.763 l 0.134,105.412 21.271,-1.035 c 1.846,-0.269 4.618,-0.654 7.843,-1.094 l 0,8.649 c -2.855,0.391 -5.278,0.729 -6.907,0.968 -0.124,0.018 -0.248,0.03 -0.374,0.036 l -25.662,1.248 c -0.031,0.002 -0.062,0.003 -0.093,0.005 l -15.188,0.737 0.866,19.763 c 0.002,0.037 0.004,0.075 0.005,0.113 l 1.014,23.129 36.316,-9.07 c 1.199,-0.3 2.461,-0.012 3.435,0.783 0.973,0.794 1.553,2.01 1.577,3.306 l 0.643,35.168 0.116,-0.012 c 0.057,-0.007 0.115,-0.012 0.173,-0.016 l 2.307,-0.161 c 0.569,-0.039 1.163,-0.081 1.772,-0.123 l 0,9.551 c -0.397,0.028 -0.795,0.055 -1.174,0.082 l -2.219,0.154 -0.801,0.089 0.067,3.628 c 0.003,0.111 0.003,0.223 -0.002,0.334 -0.005,0.145 -0.018,0.287 -0.037,0.426 l -15.138,127.799 c 10.041,1.232 17.991,1.134 18.132,1.133 0.114,-0.002 0.229,10e-4 0.342,0.011 l 0.83,0.069 0,7.648 -1.236,-0.103 c -2.551,0.028 -27.489,0.089 -45.807,-7.854 -10.752,-4.662 -24.464,-4.957 -36.627,-3.989 -0.657,0.422 -1.433,0.657 -2.26,0.626 -0.468,-0.017 -0.906,-0.134 -1.32,-0.303 -6.311,0.636 -12.055,1.543 -16.534,2.252 -2.474,0.392 -4.611,0.73 -6.38,0.957 -6.937,0.888 -11.933,-0.835 -15.229,-2.829 -0.983,4.662 -2.212,8.369 -3.354,11.161 37.276,20.777 90.599,39.387 128.747,51.337 l 0,15.976 C 164.117,380.387 111.83,362.475 72.364,341.737 L 58.14,371.985 c 39.001,23.162 119.159,77.123 123.213,79.854 1.895,1.276 2.448,3.928 1.236,5.923 -1.212,1.995 -3.729,2.579 -5.626,1.301 -0.978,-0.658 -81.24,-54.691 -120.852,-78.449 l -6.651,33.437 23.047,-1.12 c 1.757,-0.085 3.23,1.339 3.31,3.178 0.081,1.841 -1.271,3.401 -3.018,3.487 l -24.68,1.199 -6.896,34.668 c 8.667,2.477 25.4,3.257 48.662,2.255 0.38,-0.211 0.808,-0.344 1.263,-0.376 l 43.955,-3.088 c 1.723,-0.121 3.217,1.23 3.367,3.039 0.15,1.809 -1.103,3.412 -2.817,3.606 -0.198,0.022 -19.31,2.167 -40.969,3.27 l 0.307,7.011 10.756,-0.074 c 1.752,-0.017 3.177,1.472 3.189,3.314 0.011,1.842 -1.398,3.345 -3.148,3.357 l -19.236,0.133 c -1.692,0.017 -3.093,-1.378 -3.183,-3.157 -0.091,-1.779 1.161,-3.318 2.844,-3.497 l 2.428,-0.259 -0.286,-6.54 c -24.247,0.967 -41.053,-0.01 -49.99,-2.908 -0.111,-0.036 -0.235,-0.072 -0.352,-0.108 l -23.127,14.063 12.784,22.843 c 6.024,-1.548 12.03,-2.778 17.706,-3.474 39.975,-4.899 48.589,-5.046 51.219,-0.88 2.198,3.483 6.915,21.103 0.761,28.212 -6.654,7.686 -11.395,3.306 -11.593,3.115 -1.294,-1.24 -1.388,-3.349 -0.211,-4.712 1.063,-1.23 2.8,-1.432 4.08,-0.545 0.368,-0.043 1.446,-0.509 3.042,-2.353 2.98,-3.441 0.521,-16.172 -1.118,-19.588 -3.214,-1.108 -16.61,0.061 -29.343,1.472 l 5.863,44.429 91.214,-11.431 -0.077,-1.753 c -0.048,-1.101 0.36,-2.178 1.117,-2.94 0.757,-0.762 1.792,-1.155 2.834,-1.054 l 36.336,3.507 c 0.006,10e-4 0.012,10e-4 0.019,0.002 0.411,0.042 0.793,0.17 1.149,0.345 l 0,6.951 c -0.499,0.246 -1.051,0.389 -1.636,0.367 l -27.856,-1.051 -5.827,22.268 c -0.379,1.446 -1.528,2.525 -2.937,2.754 l -92.966,15.127 c -0.402,0.226 -0.851,0.376 -1.33,0.429 l -30.826,3.396 0.345,7.892 -7.247,0 -0.295,-6.731 -18.522,1.673 c -0.752,0.067 -1.468,-0.115 -2.081,-0.478 l -16.964,5.536 -40.234,0 27.905,-3.349 -5.44,-60.411 c -13.053,3.552 -43.847,5.904 -55.823,6.713 1.771,19.58 3.576,40.367 5.005,57.047 l -14.54,0 c -1.166,-13.607 -2.569,-29.785 -3.994,-45.739 l -0.472,0.505 c -0.43,0.461 -0.979,0.781 -1.578,0.919 l -25.778,5.96 c -1.673,0.385 -3.334,-0.697 -3.752,-2.446 l -9.552,-40.037 c -10.033,0.798 -17.273,1.393 -19.42,1.614 -0.191,0.02 -0.382,0.03 -0.573,0.045 l 5.006,22.043 4.222,-0.765 c 1.583,-0.287 3.116,0.717 3.574,2.336 l 15.697,55.565 -6.61,0 -4.149,-14.687 -68.603,6.791 0.842,7.896 -4.553,0 -0.794,-7.45 -4.195,0.416 c -1.656,2.45 -3.24,4.786 -4.767,7.034 l -17.83,0 c 0.774,-1.13 1.564,-2.284 2.378,-3.478 -1.708,0.368 -3.428,0.741 -5.144,1.113 l 0.423,2.365 -4.605,0 -0.251,-1.398 c -2.176,0.476 -4.307,0.946 -6.346,1.398 l -23.55,0 c -1.334,-3.041 -2.975,-8.561 -5.191,-19.021 -1.291,-6.096 -2.394,-12.112 -3.03,-15.709 l -20.308,4.333 c 2.776,10.27 6.001,20.56 9.896,30.397 l -15.599,0 c -0.852,-2.326 -1.674,-4.666 -2.461,-7.016 -4.578,1.699 -11.317,4.2 -18.902,7.016 l -19.043,0 c 13.93,-5.175 28.1,-10.435 35.908,-13.332 -5.393,-17.371 -9.244,-35.012 -12.622,-50.972 l -65.365,23.934 c -0.37,0.45 -0.858,0.801 -1.432,0.994 l -12.647,4.247 c 1.263,2.605 2.498,5.385 3.687,8.343 4.312,10.738 7.125,19.833 9.21,26.786 l -6.646,0 c -1.98,-6.53 -4.6,-14.729 -8.399,-24.187 -9.376,-23.345 -22.029,-34.853 -25.587,-37.761 l -1.092,-0.846 c -1.386,-1.073 -1.705,-3.113 -0.721,-4.597 0.985,-1.484 2.913,-1.87 4.347,-0.871 0.115,0.081 0.667,0.473 1.562,1.205 l 10.056,7.79 15.793,-9.297 -30.152,-84.194 -20.544,-9.697 0,-7.311 24.339,11.489 c 0.77,0.363 1.37,1.035 1.668,1.867 l 31.369,87.593 c 0.172,0.297 0.318,0.613 0.395,0.961 l 4.581,20.501 64.193,-23.505 c -2.808,-13.282 -5.507,-25.728 -8.616,-35.347 -10.499,-32.481 -35.339,-83.234 -37.063,-86.743 -1.384,-2.447 -15.698,-27.726 -31.485,-54.182 l -49.381,29.178 0,-9.835 45.027,-26.606 c -8.592,-14.262 -17.308,-28.293 -24.36,-38.712 -6.904,2.892 -13.855,5.511 -20.667,7.9 l 0,-16.104 c 3.862,-1.404 7.748,-2.881 11.621,-4.442 -3.552,-4.741 -7.504,-9.837 -11.621,-15.07 l 0,-27.434 31.17,-14.734 c 0.669,-0.317 1.377,-0.427 2.059,-0.357 1.407,0.144 2.703,1.058 3.324,2.513 0.921,2.161 0.004,4.699 -2.048,5.669 l -31.179,14.739 c 7.953,9.988 15.827,19.972 22.204,28.653 16.729,-7.811 32.265,-17.337 43.283,-29.043 1.783,-1.895 3.624,-3.858 5.51,-5.874 l -16.24,-14.99 c -0.3,0.016 -0.601,0.004 -0.896,-0.072 -0.836,-0.21 -1.555,-0.769 -1.992,-1.549 l -15.863,-28.301 c -1.244,0.95 -2.825,2.027 -4.667,3.005 -5.299,2.819 -21.449,1.315 -25.133,-1.628 -1.017,-0.812 -2.259,-2.044 -3.698,-3.47 -1.669,-1.654 -3.923,-3.888 -5.834,-5.359 l 0,-7.614 c 3.291,1.296 6.942,4.91 10.176,8.116 1.252,1.242 2.436,2.414 3.156,2.991 2.111,1.437 15.247,2.73 18.478,1.009 3.706,-1.97 6.126,-4.446 6.144,-4.464 0.693,-0.724 1.649,-1.074 2.635,-0.939 0.968,0.131 1.826,0.726 2.322,1.612 l 16.074,28.679 c 0.935,-0.627 2.063,-1.382 3.295,-2.206 -10.838,-15.503 -20.795,-37.88 -25.348,-49.876 -4.366,-11.504 -6.24,-18.468 -6.984,-21.701 l -7.123,-3.041 -22.825,0.223 0,-8.577 11.947,-0.117 c -3.251,-8.724 -7.572,-19.443 -11.947,-29.096 l 0,-16.657 c 8.34,15.525 16.738,37.688 19.242,44.468 l 2.78,1.187 6.461,-0.063 117.623,-19.246 c 0.417,-0.074 0.847,-0.081 1.275,-0.013 0.422,0.064 0.825,0.199 1.2,0.393 l 29.362,14.702 c 1.05,-3.188 2.58,-8.809 3.377,-16.337 l -9.348,0.455 c -2.249,0.109 -4.152,-1.721 -4.256,-4.087 -0.103,-2.366 1.634,-4.372 3.881,-4.481 l 10.238,-0.498 c 0.06,-4.221 -0.143,-9.028 -0.796,-14.327 l -36.563,-11.482 -3.426,5.056 c -1.306,1.928 -3.848,2.375 -5.681,1 -1.831,-1.375 -2.255,-4.054 -0.949,-5.982 l 5.051,-7.454 c 0.043,-0.066 0.086,-0.131 0.132,-0.195 l 21.998,-32.461 c -0.916,-1.163 -1.874,-2.293 -2.861,-3.383 l -38.523,57.112 c -1.302,1.932 -3.846,2.385 -5.679,1.013 -1.833,-1.371 -2.264,-4.049 -0.962,-5.98 L -301.55,29.503 C -319.738,13.836 -345.577,7.311 -364.999,4.61 l 4.815,19.38 8.785,14.622 c 0.722,1.202 0.831,2.701 0.293,4.005 l -12.486,30.2 c -0.898,2.174 -3.301,3.168 -5.359,2.221 -2.063,-0.946 -3.007,-3.473 -2.109,-5.644 l 11.624,-28.116 -6.517,-10.848 -18.073,3.255 -9.802,23.624 c -0.902,2.171 -3.301,3.161 -5.362,2.214 -2.062,-0.949 -3.002,-3.477 -2.102,-5.647 l 10.52,-25.355 -44.552,-0.323 c -2.265,-0.016 -4.06,-1.949 -4.045,-4.317 0.015,-2.369 1.851,-4.276 4.1,-4.259 l 47.241,0.342 c 2.256,0.014 4.059,1.949 4.044,4.317 -0.001,0.24 -0.022,0.476 -0.059,0.706 l 15.016,-2.705 -4.643,-18.688 c -10.824,-1.033 -18.162,-0.865 -18.403,-0.857 -2.256,0.061 -4.123,-1.797 -4.188,-4.165 -0.064,-2.367 1.705,-4.34 3.953,-4.409 0.648,-0.02 12.257,-0.334 28.142,1.85 l -0.73,-16.653 c -0.005,-0.066 -0.008,-0.132 -0.008,-0.198 l -1.619,-36.934 -12.361,0.601 c -2.244,0.108 -4.152,-1.72 -4.256,-4.087 -0.103,-2.365 1.634,-4.372 3.881,-4.481 l 42.965,-2.089 c -4.595,-5.815 -6.69,-11.061 -7.293,-12.751 -15.046,4.78 -30.781,8.46 -49.48,1.073 -0.181,0.167 -0.371,0.325 -0.584,0.459 l -60.606,38.344 0,-10.006 52.207,-33.03 c -19.256,-9.797 -36.692,-14.251 -52.207,-15.766 l 0,-1.329 51.597,0 c 3.032,1.398 6.073,2.895 9.129,4.5 18.989,9.969 33.899,5.074 51.164,-0.597 4.034,-1.326 8.231,-2.699 12.605,-3.903 l 46.795,0 c 8.191,2.108 16.571,4.829 24.766,7.493 26.787,8.706 52.083,16.928 62.218,1.974 2.191,-3.233 4.407,-6.389 6.627,-9.467 l 19.775,0 c 1.397,2.318 2.946,4.698 4.702,7.144 1.933,2.69 4.277,5.597 6.545,8.409 3.575,4.433 6.953,8.62 9.368,12.629 0.318,0.528 0.627,1.053 0.928,1.579 10.543,0.295 23.746,1.319 36.677,3.538 l 6.026,-33.299 8.292,0 -6.306,34.846 c 2.637,0.568 5.233,1.194 7.767,1.878 l 7.788,-36.724 8.345,0 -8.294,39.113 c 4.239,1.463 8.185,3.13 11.681,5.03 10.894,5.918 24.248,9.308 41.087,11.772 l 6.694,-30.01 c 0.008,-0.034 0.016,-0.069 0.023,-0.103 l 5.756,-25.802 8.367,0 -5.462,24.486 13.621,7.042 c 2.019,1.044 2.852,3.614 1.861,5.74 -0.991,2.127 -3.431,3.004 -5.451,1.959 l -11.942,-6.174 -5.343,23.952 c 6.567,0.81 13.62,1.53 21.216,2.236 4.172,-18.134 9.231,-39.78 13.802,-59.241 l 14.919,0 c -4.601,19.579 -9.802,41.812 -14.121,60.545"
             style="fill:#f8f5f2;fill-opacity:1;fill-rule:nonzero;stroke:none"
             id="path44"
             inkscape:connector-curvature="0" /></g><g
           id="g46"
           transform="translate(372.2229,690.1101)"><path
             d="M 0,0 C -0.056,-0.657 -0.113,-1.32 -0.17,-1.989"
             style="fill:none;stroke:#8d949a;stroke-width:2;stroke-linecap:butt;stroke-linejoin:round;stroke-miterlimit:4;stroke-opacity:1;stroke-dasharray:none"
             id="path48"
             inkscape:connector-curvature="0" /></g><g
           id="g50"
           transform="translate(371.7103,684.1359)"><path
             d="m 0,0 c -0.205,-2.384 -0.416,-4.831 -0.632,-7.327 l -6.367,-70.71 c -0.947,-9.875 -1.813,-18.448 -2.52,-24.68 -0.261,-2.307 -0.306,-4.663 -0.534,-7.028 -2.624,-27.262 11.867,-70.299 11.867,-70.299 2.835,-9.447 5.655,-17.959 7.8,-24.871 4.083,-23.24 5.981,-22.752 12.015,-36.729 0,0 23.535,-40.913 28.297,-63.626 0.838,-3.993 1.422,-7.135 1.809,-9.362"
             style="fill:none;stroke:#8d949a;stroke-width:2;stroke-linecap:butt;stroke-linejoin:round;stroke-miterlimit:4;stroke-opacity:1;stroke-dasharray:4.002, 4.002;stroke-dashoffset:0"
             id="path52"
             inkscape:connector-curvature="0" /></g><g
           id="g54"
           transform="translate(423.7775,367.5266)"><path
             d="M 0,0 C 0.211,-1.303 0.301,-1.972 0.301,-1.972"
             style="fill:none;stroke:#8d949a;stroke-width:2;stroke-linecap:butt;stroke-linejoin:round;stroke-miterlimit:4;stroke-opacity:1;stroke-dasharray:none"
             id="path56"
             inkscape:connector-curvature="0" /></g><g
           id="g58"
           transform="translate(343.3843,312.5548)"><path
             d="m 0,0 -15.998,0.777 0.961,1.831 c 1.477,2.813 4.284,4.471 7.324,4.323 3.041,-0.148 5.69,-2.07 6.915,-5.015 L 0,0 z m -8.446,-9.802 c -3.041,0.147 -5.69,2.069 -6.915,5.013 l -0.797,1.916 15.998,-0.778 -0.962,-1.83 C -2.599,-8.294 -5.406,-9.95 -8.446,-9.802 m -0.236,-5.372 c -5.615,0.273 -10.391,4.295 -11.931,9.915 l -3.988,0.194 0.388,8.844 3.988,-0.194 c 2.024,5.446 7.133,8.99 12.747,8.717 C -1.864,12.029 2.914,8.005 4.454,2.386 l 3.99,-0.194 -0.388,-8.844 -3.99,0.194 c -2.025,-5.447 -7.134,-8.989 -12.748,-8.716"
             style="fill:#c2c5cb;fill-opacity:1;fill-rule:nonzero;stroke:none"
             id="path60"
             inkscape:connector-curvature="0" /></g><g
           id="g62"
           transform="translate(334.9949,304.0501)"><path
             d="M 0,0 C -2.636,0.128 -4.824,1.854 -5.82,4.236 L 6.166,3.654 C 4.966,1.378 2.638,-0.128 0,0 M 0.62,14.136 C 3.256,14.008 5.443,12.283 6.44,9.901 l -11.986,0.583 c 1.2,2.275 3.529,3.78 6.166,3.652 M 11.869,9.637 c -1.083,5.42 -5.515,9.604 -11.014,9.871 -5.497,0.267 -10.277,-3.469 -11.831,-8.76 l -3.671,0.178 -0.274,-6.247 3.672,-0.179 c 1.082,-5.419 5.516,-9.604 11.014,-9.871 5.498,-0.267 10.278,3.47 11.83,8.761 l 3.673,-0.179 0.274,6.248 -3.673,0.178 z"
             style="fill:#c2c5cb;fill-opacity:1;fill-rule:nonzero;stroke:none"
             id="path64"
             inkscape:connector-curvature="0" /></g><g
           id="g66"
           transform="translate(248.9833,268.6438)"><path
             d="m 0,0 -15.998,0.778 0.961,1.83 c 1.477,2.813 4.284,4.471 7.324,4.323 3.041,-0.148 5.69,-2.07 6.915,-5.015 L 0,0 z m -8.446,-9.802 c -3.041,0.147 -5.69,2.069 -6.915,5.013 l -0.797,1.916 15.998,-0.778 -0.962,-1.83 C -2.599,-8.294 -5.406,-9.95 -8.446,-9.802 m -0.236,-5.372 c -5.615,0.273 -10.391,4.295 -11.931,9.915 l -3.988,0.194 0.388,8.844 3.988,-0.194 c 2.025,5.446 7.133,8.99 12.748,8.717 C -1.864,12.029 2.914,8.005 4.454,2.386 l 3.99,-0.194 -0.388,-8.844 -3.99,0.194 c -2.025,-5.447 -7.134,-8.989 -12.748,-8.716"
             style="fill:#c2c5cb;fill-opacity:1;fill-rule:nonzero;stroke:none"
             id="path68"
             inkscape:connector-curvature="0" /></g><g
           id="g70"
           transform="translate(240.594,260.1393)"><path
             d="M 0,0 C -2.636,0.128 -4.825,1.854 -5.82,4.236 L 6.166,3.654 C 4.966,1.378 2.638,-0.128 0,0 M 0.62,14.136 C 3.256,14.008 5.443,12.283 6.44,9.901 l -11.986,0.583 c 1.2,2.275 3.529,3.78 6.166,3.652 M 11.869,9.637 c -1.083,5.419 -5.516,9.604 -11.014,9.871 -5.497,0.267 -10.277,-3.469 -11.831,-8.76 l -3.672,0.178 -0.273,-6.247 3.671,-0.179 c 1.083,-5.419 5.517,-9.604 11.015,-9.871 5.498,-0.267 10.278,3.47 11.83,8.761 l 3.673,-0.179 0.274,6.248 -3.673,0.178 z"
             style="fill:#c2c5cb;fill-opacity:1;fill-rule:nonzero;stroke:none"
             id="path72"
             inkscape:connector-curvature="0" /></g><g
           id="g74"
           transform="translate(70.2546,503.0761)"><path
             d="m 0,0 -15.998,0.777 0.961,1.831 c 1.477,2.813 4.284,4.471 7.324,4.323 3.041,-0.148 5.69,-2.07 6.915,-5.015 L 0,0 z m -8.446,-9.802 c -3.041,0.147 -5.691,2.069 -6.915,5.013 l -0.797,1.916 15.998,-0.778 -0.962,-1.83 C -2.599,-8.294 -5.406,-9.95 -8.446,-9.802 m -0.236,-5.372 c -5.615,0.273 -10.391,4.295 -11.931,9.915 l -3.988,0.194 0.388,8.844 3.987,-0.194 c 2.025,5.446 7.134,8.99 12.749,8.717 C -1.864,12.029 2.914,8.005 4.454,2.386 l 3.99,-0.194 -0.388,-8.844 -3.99,0.194 c -2.025,-5.447 -7.134,-8.989 -12.748,-8.716"
             style="fill:#c2c5cb;fill-opacity:1;fill-rule:nonzero;stroke:none"
             id="path76"
             inkscape:connector-curvature="0" /></g><g
           id="g78"
           transform="translate(61.8652,494.5715)"><path
             d="M 0,0 C -2.636,0.128 -4.825,1.854 -5.82,4.236 L 6.166,3.654 C 4.966,1.378 2.638,-0.128 0,0 M 0.62,14.136 C 3.256,14.008 5.443,12.283 6.44,9.901 l -11.986,0.583 c 1.2,2.275 3.529,3.78 6.166,3.652 M 11.869,9.638 c -1.083,5.419 -5.516,9.603 -11.014,9.87 -5.497,0.267 -10.277,-3.469 -11.831,-8.76 l -3.672,0.178 -0.273,-6.247 3.672,-0.179 c 1.082,-5.419 5.516,-9.604 11.014,-9.871 5.498,-0.267 10.278,3.47 11.83,8.761 l 3.673,-0.178 0.274,6.247 -3.673,0.179 z"
             style="fill:#c2c5cb;fill-opacity:1;fill-rule:nonzero;stroke:none"
             id="path80"
             inkscape:connector-curvature="0" /></g><g
           id="g82"
           transform="translate(495.672,667.1385)"><path
             d="m 0,0 -4.463,0.217 0.155,3.523 -3.345,0.163 -0.154,-3.523 -4.463,0.216 -0.154,-3.524 4.462,-0.216 -0.308,-7.048 3.344,-0.162 0.309,7.047 4.463,-0.217 L 0,0 z"
             style="fill:#f8f5f2;fill-opacity:1;fill-rule:nonzero;stroke:none"
             id="path84"
             inkscape:connector-curvature="0" /></g><g
           id="g86"
           transform="translate(296.2211,529.4521)"><path
             d="M 0,0 0.003,1.538 C 0.005,2.93 1.206,4.06 3.603,4.055 6,4.05 7.436,2.915 7.433,1.523 L 7.431,-0.051 0,0 z m 10.732,-0.074 -2.103,0.015 0.003,1.58 C 8.635,3.613 7.201,5.31 3.605,5.317 0.009,5.324 -1.192,3.632 -1.196,1.54 L -1.199,0.008 -3.71,0.026 c 0,0 -1.095,-5.614 -1.323,-9.901 -0.414,-7.798 16.886,-7.943 16.886,-0.242 0,4.707 -1.121,10.043 -1.121,10.043"
             style="fill:#f8f5f2;fill-opacity:1;fill-rule:nonzero;stroke:none"
             id="path88"
             inkscape:connector-curvature="0" /></g><g
           id="g90"
           transform="translate(294.4138,554.7758)"><path
             d="m 0,0 c -0.311,-7.086 -6.016,-12.565 -12.746,-12.238 -6.729,0.327 -11.932,6.336 -11.621,13.422 0.31,7.086 6.017,12.565 12.746,12.238 C -4.891,13.095 0.311,7.086 0,0"
             style="fill:#b3b8bf;fill-opacity:1;fill-rule:nonzero;stroke:none"
             id="path92"
             inkscape:connector-curvature="0" /></g><g
           id="g94"
           transform="translate(150.0168,505.506)"><path
             d="m 0,0 c -0.311,-7.086 -6.016,-12.565 -12.746,-12.238 -6.729,0.327 -11.932,6.336 -11.621,13.422 0.31,7.086 6.017,12.565 12.746,12.238 C -4.892,13.095 0.311,7.086 0,0"
             style="fill:#c2c5cb;fill-opacity:1;fill-rule:nonzero;stroke:none"
             id="path96"
             inkscape:connector-curvature="0" /></g><g
           id="g98"
           transform="translate(113.5906,480.5635)"><path
             d="m 0,0 c -0.311,-7.086 -6.016,-12.565 -12.746,-12.238 -6.729,0.327 -11.932,6.336 -11.621,13.422 0.31,7.086 6.017,12.565 12.746,12.238 C -4.891,13.095 0.311,7.086 0,0"
             style="fill:#c2c5cb;fill-opacity:1;fill-rule:nonzero;stroke:none"
             id="path100"
             inkscape:connector-curvature="0" /></g><g
           id="g102"
           transform="translate(367.3357,337.5291)"><path
             d="m 0,0 c -0.311,-7.086 -6.016,-12.565 -12.746,-12.238 -6.729,0.327 -11.932,6.336 -11.621,13.422 0.31,7.086 6.017,12.565 12.746,12.238 C -4.892,13.095 0.311,7.086 0,0"
             style="fill:#c2c5cb;fill-opacity:1;fill-rule:nonzero;stroke:none"
             id="path104"
             inkscape:connector-curvature="0" /></g><g
           id="g106"
           transform="translate(358.8424,669.0174)"><path
             d="m 0,0 c -0.311,-7.086 -6.016,-12.565 -12.746,-12.238 -6.729,0.327 -11.931,6.336 -11.621,13.422 0.311,7.086 6.017,12.565 12.746,12.238 C -4.891,13.095 0.311,7.086 0,0"
             style="fill:#b3b8bf;fill-opacity:1;fill-rule:nonzero;stroke:none"
             id="path108"
             inkscape:connector-curvature="0" /></g><g
           id="g110"
           transform="translate(253.4948,510.0171)"><path
             d="m 0,0 c -0.311,-7.086 -6.016,-12.565 -12.746,-12.238 -6.729,0.327 -11.931,6.336 -11.621,13.422 0.311,7.086 6.017,12.565 12.746,12.238 C -4.891,13.095 0.311,7.086 0,0"
             style="fill:#c2c5cb;fill-opacity:1;fill-rule:nonzero;stroke:none"
             id="path112"
             inkscape:connector-curvature="0" /></g><g
           id="g114"
           transform="translate(345.4444,550.3089)"><path
             d="m 0,0 c 0.214,-9.517 -15.976,-35.166 -15.976,-35.166 0,0 -16.536,24.834 -16.75,34.351 -0.213,9.517 6.939,17.413 15.976,17.639 C -7.711,17.049 -0.214,9.517 0,0"
             style="fill:#c2c5cb;fill-opacity:1;fill-rule:nonzero;stroke:none"
             id="path116"
             inkscape:connector-curvature="0" /></g><g
           id="g118"
           transform="translate(319.5923,550.8604)"><path
             d="m 0,0 c 0,5.518 4.248,9.991 9.488,9.991 5.24,0 9.488,-4.473 9.488,-9.991 0,-5.518 -4.248,-9.991 -9.488,-9.991 C 4.248,-9.991 0,-5.518 0,0"
             style="fill:#ffffff;fill-opacity:1;fill-rule:nonzero;stroke:none"
             id="path120"
             inkscape:connector-curvature="0" /></g></g></g></g></svg>