<?xml version="1.0" encoding="UTF-8" standalone="no"?>
<!-- Created with Inkscape (http://www.inkscape.org/) -->

<svg
   xmlns:dc="http://purl.org/dc/elements/1.1/"
   xmlns:cc="http://creativecommons.org/ns#"
   xmlns:rdf="http://www.w3.org/1999/02/22-rdf-syntax-ns#"
   xmlns:svg="http://www.w3.org/2000/svg"
   xmlns="http://www.w3.org/2000/svg"
   xmlns:xlink="http://www.w3.org/1999/xlink"
   version="1.1"
   width="38.09"
   height="38.272999"
   viewBox="0 0 38.090001 38.273"
   id="Camada_1"
   xml:space="preserve"><metadata
     id="metadata3577"><rdf:RDF><cc:Work
         rdf:about=""><dc:format>image/svg+xml</dc:format><dc:type
           rdf:resource="http://purl.org/dc/dcmitype/StillImage" /><dc:title></dc:title></cc:Work></rdf:RDF></metadata><defs
     id="defs3575" /><g
     transform="translate(-3.8550003,-2.421)"
     id="g3489"><defs
       id="defs3491"><rect
         width="375"
         height="667"
         x="-190.166"
         y="-342.67099"
         id="SVGID_1_" /></defs><clipPath
       id="SVGID_2_"><use
         id="use3495"
         style="overflow:visible"
         x="0"
         y="0"
         width="80.726997"
         height="42.759998"
         xlink:href="#SVGID_1_" /></clipPath></g><g
     transform="translate(-3.8550003,-2.421)"
     id="g3497"><defs
       id="defs3499"><rect
         width="375"
         height="667"
         x="-190.166"
         y="-342.67099"
         id="SVGID_3_" /></defs><clipPath
       id="SVGID_4_"><use
         id="use3503"
         style="overflow:visible"
         x="0"
         y="0"
         width="80.726997"
         height="42.759998"
         xlink:href="#SVGID_3_" /></clipPath></g><g
     transform="translate(-3.8550003,-2.421)"
     id="g3505"><defs
       id="defs3507"><rect
         width="375"
         height="667"
         x="-190.166"
         y="-342.67099"
         id="SVGID_5_" /></defs><clipPath
       id="SVGID_6_"><use
         id="use3511"
         style="overflow:visible"
         x="0"
         y="0"
         width="80.726997"
         height="42.759998"
         xlink:href="#SVGID_5_" /></clipPath></g><g
     transform="translate(-3.8550003,-2.421)"
     id="g3513"><defs
       id="defs3515"><rect
         width="375"
         height="667"
         x="-190.166"
         y="-342.67099"
         id="SVGID_7_" /></defs><clipPath
       id="SVGID_8_"><use
         id="use3519"
         style="overflow:visible"
         x="0"
         y="0"
         width="80.726997"
         height="42.759998"
         xlink:href="#SVGID_7_" /></clipPath></g><g
     transform="translate(-3.8550003,-2.421)"
     id="g3521"><defs
       id="defs3523"><rect
         width="375"
         height="667"
         x="-190.166"
         y="-312.67099"
         id="SVGID_9_" /></defs><clipPath
       id="SVGID_10_"><use
         id="use3527"
         style="overflow:visible"
         x="0"
         y="0"
         width="80.726997"
         height="42.759998"
         xlink:href="#SVGID_9_" /></clipPath></g><g
     transform="translate(-3.8550003,-2.421)"
     id="g3529"><g
       id="g3533"><path
         d="m 38.588,11.396 c -3.435,-4.892 -9.179,-8.1 -15.688,-8.1 -4.754,0 -19.045,0 -19.045,0 0,0 0,13.04 0,18.699 0,10.327 8.526,18.699 19.045,18.699 5.259,0 19.045,0 19.045,0 0,0 0,-13.536 0,-18.699 0,-3.675 -1.084,-7.099 -2.949,-9.989"
         id="path3535"
         style="fill:#939393" /><path
         d="m 41.479,21.194 c 0,-10.368 -8.406,-18.773 -18.774,-18.773 -4.687,0 -18.774,0 -18.774,0 0,0 0,13.091 0,18.773 0,10.368 8.405,18.774 18.774,18.774 5.184,0 18.774,0 18.774,0 0,0 0,-13.59 0,-18.774 z"
         id="path3537"
         style="fill:#ffffff" /></g><g
       id="g3539"><g
         id="g3541" /></g><g
       id="g3561"><path
         d="m 39.249,20.93 c 0,-9.199 -7.458,-16.657 -16.657,-16.657 -4.158,0 -16.657,0 -16.657,0 0,0 0,11.615 0,16.657 0,9.199 7.457,16.657 16.657,16.657 4.599,0 16.657,0 16.657,0 0,0 0,-12.057 0,-16.657 z"
         id="path3563"
         style="fill:#eda53a" /></g><g
       id="g3565"><g
         id="g3567"><path
           d="m 8.622,26.025 5.635,-5.135 c 2.104,-1.937 2.927,-2.958 2.927,-4.518 0,-1.586 -0.943,-2.446 -2.273,-2.446 -1.307,0 -2.201,0.807 -3.459,2.527 L 8.84,14.115 c 1.668,-2.527 3.289,-3.898 6.312,-3.898 3.507,0 5.829,2.285 5.829,5.808 v 0.054 c 0,3.146 -1.451,4.705 -4.45,7.286 l -2.757,2.365 h 7.376 v 3.576 H 8.622 v -3.281 z"
           id="path3569"
           style="fill:#ffffff" /><path
           d="m 22.937,26.806 2.249,-2.984 c 1.281,1.29 2.539,2.043 4.039,2.043 1.741,0 2.829,-0.941 2.829,-2.608 v -0.054 c 0,-1.612 -1.233,-2.554 -2.999,-2.554 -1.063,0 -2.031,0.322 -2.829,0.699 l -2.152,-1.587 0.483,-9.275 h 10.399 v 3.63 h -7.207 l -0.193,3.253 c 0.677,-0.188 1.281,-0.322 2.225,-0.322 3.289,0 5.926,1.774 5.926,6.022 v 0.054 c 0,3.979 -2.539,6.506 -6.434,6.506 -2.708,-0.001 -4.692,-1.076 -6.336,-2.823 z"
           id="path3571"
           style="fill:#ffffff" /></g></g></g></svg>