<?xml version="1.0" encoding="UTF-8" standalone="no"?>
<!-- Created with Inkscape (http://www.inkscape.org/) -->

<svg
   xmlns:dc="http://purl.org/dc/elements/1.1/"
   xmlns:cc="http://creativecommons.org/ns#"
   xmlns:rdf="http://www.w3.org/1999/02/22-rdf-syntax-ns#"
   xmlns:svg="http://www.w3.org/2000/svg"
   xmlns="http://www.w3.org/2000/svg"
   xmlns:sodipodi="http://sodipodi.sourceforge.net/DTD/sodipodi-0.dtd"
   xmlns:inkscape="http://www.inkscape.org/namespaces/inkscape"
   width="239.11375"
   height="239.11125"
   id="svg3212"
   version="1.1"
   inkscape:version="0.48.4 r9939"
   sodipodi:docname="Logo_BomRetiro.svg">
  <defs
     id="defs3214">
    <clipPath
       clipPathUnits="userSpaceOnUse"
       id="clipPath38">
      <path
         inkscape:connector-curvature="0"
         d="m 244.766,387.011 154.704,0 0,82.729 -154.704,0 0,-82.729 z"
         id="path40" />
    </clipPath>
    <clipPath
       clipPathUnits="userSpaceOnUse"
       id="clipPath50">
      <path
         inkscape:connector-curvature="0"
         d="m 0,595.28 1275.59,0 L 1275.59,0 0,0 0,595.28 z"
         id="path52" />
    </clipPath>
    <clipPath
       clipPathUnits="userSpaceOnUse"
       id="clipPath160">
      <path
         inkscape:connector-curvature="0"
         d="m 673.844,453.17 38.051,0 0,40.724 -38.051,0 0,-40.724 z"
         id="path162" />
    </clipPath>
  </defs>
  <sodipodi:namedview
     id="base"
     pagecolor="#ffffff"
     bordercolor="#666666"
     borderopacity="1.0"
     inkscape:pageopacity="0.0"
     inkscape:pageshadow="2"
     inkscape:zoom="0.35"
     inkscape:cx="151.97089"
     inkscape:cy="53.396921"
     inkscape:document-units="px"
     inkscape:current-layer="layer1"
     showgrid="false"
     fit-margin-top="0"
     fit-margin-left="0"
     fit-margin-right="0"
     fit-margin-bottom="0"
     inkscape:window-width="650"
     inkscape:window-height="716"
     inkscape:window-x="715"
     inkscape:window-y="336"
     inkscape:window-maximized="0" />
  <metadata
     id="metadata3217">
    <rdf:RDF>
      <cc:Work
         rdf:about="">
        <dc:format>image/svg+xml</dc:format>
        <dc:type
           rdf:resource="http://purl.org/dc/dcmitype/StillImage" />
        <dc:title></dc:title>
      </cc:Work>
    </rdf:RDF>
  </metadata>
  <g
     inkscape:label="Camada 1"
     inkscape:groupmode="layer"
     id="layer1"
     transform="translate(-198.02911,-346.64786)">
    <g
       transform="matrix(1.25,0,0,-1.25,-609.64489,986.79811)"
       id="g3348">
      <g
         transform="translate(837.4302,416.4762)"
         id="g118">
        <path
           inkscape:connector-curvature="0"
           id="path120"
           style="fill:#ffffff;fill-opacity:1;fill-rule:nonzero;stroke:none"
           d="m 0,0 c 0,52.822 -42.825,95.644 -95.645,95.644 l -95.646,0 0,-95.644 c 0,-52.822 42.821,-95.645 95.646,-95.645 L 0,-95.645 0,0 z" />
      </g>
      <g
         transform="translate(823.5035,419.3039)"
         id="g122">
        <path
           inkscape:connector-curvature="0"
           id="path124"
           style="fill:#55bf35;fill-opacity:1;fill-rule:nonzero;stroke:none"
           d="m 0,0 c 0,47.116 -36.683,85.313 -81.928,85.313 l -81.928,0 0,-85.313 c 0,-47.116 36.68,-85.314 81.928,-85.314 L 0,-85.314 0,0 z" />
      </g>
      <g
         transform="translate(806.7432,421.2922)"
         id="g126">
        <path
           inkscape:connector-curvature="0"
           id="path128"
           style="fill:#ffffff;fill-opacity:1;fill-rule:nonzero;stroke:none"
           d="m 0,0 c -1.567,-3.893 -4.866,-7.246 -8.702,-7.246 -4.391,0 -8.103,3.064 -9.283,7.246 L 0,0 z" />
      </g>
      <g
         transform="translate(794.1082,456.3128)"
         id="g130">
        <path
           inkscape:connector-curvature="0"
           id="path132"
           style="fill:#ffffff;fill-opacity:1;fill-rule:nonzero;stroke:none"
           d="m 0,0 c 1.788,0 3.393,-1.18 3.992,-2.935 l 7.728,-22.646 -100.835,0 7.728,22.646 C -80.788,-1.18 -79.183,0 -77.394,0" />
      </g>
      <g
         transform="translate(778.9026,421.2922)"
         id="g134">
        <path
           inkscape:connector-curvature="0"
           id="path136"
           style="fill:#ffffff;fill-opacity:1;fill-rule:nonzero;stroke:none"
           d="m 0,0 c -1.181,-4.182 -4.89,-7.246 -9.28,-7.246 -4.394,0 -8.103,3.064 -9.283,7.246 L 0,0 z" />
      </g>
      <g
         transform="translate(750.4834,421.2922)"
         id="g138">
        <path
           inkscape:connector-curvature="0"
           id="path140"
           style="fill:#ffffff;fill-opacity:1;fill-rule:nonzero;stroke:none"
           d="m 0,0 c -1.181,-4.182 -4.89,-7.246 -9.28,-7.246 -4.391,0 -8.103,3.064 -9.283,7.246 L 0,0 z" />
      </g>
      <g
         transform="translate(722.0642,421.2922)"
         id="g142">
        <path
           inkscape:connector-curvature="0"
           id="path144"
           style="fill:#ffffff;fill-opacity:1;fill-rule:nonzero;stroke:none"
           d="m 0,0 c -1.181,-4.182 -4.89,-7.246 -9.283,-7.246 -3.837,0 -7.136,3.353 -8.703,7.246 L 0,0 z" />
      </g>
      <g
         transform="translate(796.9553,353.6084)"
         id="g146">
        <path
           inkscape:connector-curvature="0"
           id="path148"
           style="fill:#ffffff;fill-opacity:1;fill-rule:nonzero;stroke:none"
           d="m 0,0 -50.624,0 0,34.184 c 0,2.607 -2.03,4.72 -4.532,4.72 l -18.272,0 c -2.505,0 -4.532,-2.113 -4.532,-4.72 l 0,-34.184 -5.129,0 c -2.75,0 -4.989,2.332 -4.989,5.196 l 0,46.291 c 1.248,-0.316 2.549,-0.488 3.904,-0.488 5.677,0 10.77,2.648 14.21,6.812 3.438,-4.164 8.531,-6.812 14.209,-6.812 5.677,0 10.77,2.648 14.211,6.812 3.437,-4.164 8.53,-6.812 14.208,-6.812 5.677,0 10.771,2.648 14.211,6.812 3.438,-4.164 8.531,-6.812 14.208,-6.812 1.355,0 2.659,0.172 3.904,0.488 l 0,-46.291 C 4.99,2.332 2.75,0 0,0" />
      </g>
      <path
         inkscape:connector-curvature="0"
         id="path150"
         style="fill:#ffffff;fill-opacity:1;fill-rule:nonzero;stroke:none"
         d="m 752.108,353.608 -35.576,0 0,45.913 35.576,0 0,-45.913 z" />
      <g
         transform="translate(706.8729,383.0218)"
         id="g152">
        <path
           inkscape:connector-curvature="0"
           id="path154"
           style="fill:none;stroke:#55bf35;stroke-width:1;stroke-linecap:butt;stroke-linejoin:miter;stroke-miterlimit:10;stroke-opacity:1;stroke-dasharray:none"
           d="M 0,0 96.456,0" />
      </g>
      <g
         id="g156">
        <g
           clip-path="url(#clipPath160)"
           id="g158">
          <g
             transform="translate(698.1761,464.099)"
             id="g164">
            <path
               inkscape:connector-curvature="0"
               id="path166"
               style="fill:#ffffff;fill-opacity:1;fill-rule:nonzero;stroke:none"
               d="m 0,0 c -6.504,0.86 -11.698,6.385 -12.408,13.169 -0.652,6.248 2.391,11.815 7.135,14.657 0.92,0.55 0.541,2.021 -0.524,1.969 -1.185,-0.06 -2.399,-0.237 -3.633,-0.55 -8.2,-2.076 -14.303,-9.541 -14.856,-18.311 -0.748,-11.807 8.224,-21.623 19.401,-21.623 8.522,0 15.763,5.711 18.39,13.651 0.351,1.062 -0.896,1.862 -1.672,1.084 C 8.835,1.053 4.599,-0.607 0,0" />
          </g>
        </g>
      </g>
    </g>
  </g>
</svg>
