<?xml version="1.0" encoding="UTF-8" standalone="no"?>
<!-- Created with Inkscape (http://www.inkscape.org/) -->

<svg
   xmlns:dc="http://purl.org/dc/elements/1.1/"
   xmlns:cc="http://creativecommons.org/ns#"
   xmlns:rdf="http://www.w3.org/1999/02/22-rdf-syntax-ns#"
   xmlns:svg="http://www.w3.org/2000/svg"
   xmlns="http://www.w3.org/2000/svg"
   xmlns:sodipodi="http://sodipodi.sourceforge.net/DTD/sodipodi-0.dtd"
   xmlns:inkscape="http://www.inkscape.org/namespaces/inkscape"
   width="239.11375"
   height="239.11125"
   id="svg3212"
   version="1.1"
   inkscape:version="0.48.4 r9939"
   sodipodi:docname="Logo_Bras.svg">
  <defs
     id="defs3214">
    <clipPath
       clipPathUnits="userSpaceOnUse"
       id="clipPath38">
      <path
         inkscape:connector-curvature="0"
         d="m 244.766,387.011 154.704,0 0,82.729 -154.704,0 0,-82.729 z"
         id="path40" />
    </clipPath>
    <clipPath
       clipPathUnits="userSpaceOnUse"
       id="clipPath50">
      <path
         inkscape:connector-curvature="0"
         d="m 0,595.28 1275.59,0 L 1275.59,0 0,0 0,595.28 z"
         id="path52" />
    </clipPath>
    <clipPath
       clipPathUnits="userSpaceOnUse"
       id="clipPath160">
      <path
         inkscape:connector-curvature="0"
         d="m 673.844,453.17 38.051,0 0,40.724 -38.051,0 0,-40.724 z"
         id="path162" />
    </clipPath>
  </defs>
  <sodipodi:namedview
     id="base"
     pagecolor="#ffffff"
     bordercolor="#666666"
     borderopacity="1.0"
     inkscape:pageopacity="0.0"
     inkscape:pageshadow="2"
     inkscape:zoom="0.49497475"
     inkscape:cx="174.03864"
     inkscape:cy="141.64714"
     inkscape:document-units="px"
     inkscape:current-layer="layer1"
     showgrid="false"
     fit-margin-top="0"
     fit-margin-left="0"
     fit-margin-right="0"
     fit-margin-bottom="0"
     inkscape:window-width="650"
     inkscape:window-height="716"
     inkscape:window-x="715"
     inkscape:window-y="336"
     inkscape:window-maximized="0" />
  <metadata
     id="metadata3217">
    <rdf:RDF>
      <cc:Work
         rdf:about="">
        <dc:format>image/svg+xml</dc:format>
        <dc:type
           rdf:resource="http://purl.org/dc/dcmitype/StillImage" />
        <dc:title></dc:title>
      </cc:Work>
    </rdf:RDF>
  </metadata>
  <g
     inkscape:label="Camada 1"
     inkscape:groupmode="layer"
     id="layer1"
     transform="translate(-191.8717,-344.23513)">
    <g
       id="g3198"
       transform="matrix(1.25,0,0,-1.25,-86.862179,983.2)">
      <g
         transform="translate(414.2781,415.5279)"
         id="g26">
        <path
           inkscape:connector-curvature="0"
           id="path28"
           style="fill:#ffffff;fill-opacity:1;fill-rule:nonzero;stroke:none"
           d="m 0,0 c 0,52.822 -42.825,95.644 -95.645,95.644 l -95.646,0 0,-95.644 c 0,-52.822 42.821,-95.645 95.646,-95.645 L 0,-95.645 0,0 z" />
      </g>
      <g
         transform="translate(405.8339,415.3642)"
         id="g30">
        <path
           inkscape:connector-curvature="0"
           id="path32"
           style="fill:#e31d25;fill-opacity:1;fill-rule:nonzero;stroke:none"
           d="m 0,0 c 0,47.7 -38.672,86.369 -86.37,86.369 l -86.37,0 0,-86.369 c 0,-47.7 38.668,-86.37 86.37,-86.37 L 0,-86.37 0,0 z" />
      </g>
      <g
         id="g34">
        <g
           clip-path="url(#clipPath38)"
           id="g36">
          <g
             transform="translate(371.6346,407.6654)"
             id="g42">
            <path
               id="path44"
               style="fill:#ffffff;fill-opacity:1;fill-rule:nonzero;stroke:none"
               d="m 0,0 c -15.377,7.259 -27.738,19.862 -33.785,26.77 -2.302,2.626 -6.852,4.888 -10.354,4.888 l -3.151,0 c 0.203,0.324 0.338,0.686 0.324,1.089 l -0.148,7.287 c 5.922,3.271 7.687,8.886 6.746,13.237 -1.131,5.263 -5.912,8.803 -11.879,8.803 -3.554,0 -6.422,-1.061 -8.507,-3.164 -3.275,-3.299 -3.275,-7.904 -3.275,-8.104 0.014,-1.158 0.958,-2.089 2.116,-2.089 1.173,0 2.114,0.958 2.114,2.117 0,1.168 0.389,7.028 7.552,7.028 3.988,0 7.032,-2.154 7.756,-5.481 0.593,-2.761 -0.524,-6.814 -5.626,-9.131 -0.768,-0.348 -1.268,-1.117 -1.241,-1.965 l 0.176,-8.617 c 0,-0.376 0.135,-0.7 0.324,-1.01 l -5.953,0 c -3.499,0 -8.052,-2.248 -10.355,-4.888 C -73.212,19.862 -85.573,7.259 -100.947,0 c -17.938,-8.456 -23.809,-8.373 -25.746,-15.698 -0.903,-3.381 1.831,-5.226 5.036,-3.826 11.041,4.808 36.112,16.67 60.982,34.836 0,0 4.74,4.04 9.845,4.04 l 0.713,0 c 5.102,0 9.842,-4.04 9.842,-4.04 24.87,-18.166 49.94,-30.028 60.981,-34.836 3.206,-1.4 5.926,0.445 5.037,3.826 C 23.819,-8.387 17.949,-8.47 0,0"
               inkscape:connector-curvature="0" />
          </g>
        </g>
      </g>
      <g
         id="g46">
        <g
           clip-path="url(#clipPath50)"
           id="g48">
          <g
             transform="translate(253.4865,395.3635)"
             id="g54">
            <path
               id="path56"
               style="fill:none;stroke:#ffffff;stroke-width:4;stroke-linecap:butt;stroke-linejoin:miter;stroke-miterlimit:10;stroke-opacity:1;stroke-dasharray:none"
               d="M 0,0 136.537,0"
               inkscape:connector-curvature="0" />
          </g>
        </g>
      </g>
    </g>
  </g>
</svg>
