<?xml version="1.0" encoding="UTF-8" standalone="no"?>
<!-- Created with Inkscape (http://www.inkscape.org/) -->

<svg
   xmlns:dc="http://purl.org/dc/elements/1.1/"
   xmlns:cc="http://creativecommons.org/ns#"
   xmlns:rdf="http://www.w3.org/1999/02/22-rdf-syntax-ns#"
   xmlns:svg="http://www.w3.org/2000/svg"
   xmlns="http://www.w3.org/2000/svg"
   xmlns:xlink="http://www.w3.org/1999/xlink"
   version="1.1"
   width="38.09"
   height="38.141998"
   viewBox="0 0 38.090001 38.142"
   id="Camada_1"
   xml:space="preserve"><metadata
     id="metadata3097"><rdf:RDF><cc:Work
         rdf:about=""><dc:format>image/svg+xml</dc:format><dc:type
           rdf:resource="http://purl.org/dc/dcmitype/StillImage" /><dc:title></dc:title></cc:Work></rdf:RDF></metadata><defs
     id="defs3095" /><g
     transform="translate(-3.9280003,-2.963)"
     id="g3005"><defs
       id="defs3007"><rect
         width="375"
         height="667"
         x="-106.536"
         y="-295.423"
         id="SVGID_1_" /></defs><clipPath
       id="SVGID_2_"><use
         id="use3011"
         style="overflow:visible"
         x="0"
         y="0"
         width="80.726997"
         height="42.759998"
         xlink:href="#SVGID_1_" /></clipPath></g><g
     transform="translate(-3.9280003,-2.963)"
     id="g3013"><defs
       id="defs3015"><rect
         width="375"
         height="667"
         x="-106.536"
         y="-295.423"
         id="SVGID_3_" /></defs><clipPath
       id="SVGID_4_"><use
         id="use3019"
         style="overflow:visible"
         x="0"
         y="0"
         width="80.726997"
         height="42.759998"
         xlink:href="#SVGID_3_" /></clipPath></g><g
     transform="translate(-3.9280003,-2.963)"
     id="g3021"><defs
       id="defs3023"><rect
         width="375"
         height="667"
         x="-106.536"
         y="-295.423"
         id="SVGID_5_" /></defs><clipPath
       id="SVGID_6_"><use
         id="use3027"
         style="overflow:visible"
         x="0"
         y="0"
         width="80.726997"
         height="42.759998"
         xlink:href="#SVGID_5_" /></clipPath></g><g
     transform="translate(-3.9280003,-2.963)"
     id="g3029"><defs
       id="defs3031"><rect
         width="375"
         height="667"
         x="-106.536"
         y="-295.423"
         id="SVGID_7_" /></defs><clipPath
       id="SVGID_8_"><use
         id="use3035"
         style="overflow:visible"
         x="0"
         y="0"
         width="80.726997"
         height="42.759998"
         xlink:href="#SVGID_7_" /></clipPath></g><g
     transform="translate(-3.9280003,-2.963)"
     id="g3037"><defs
       id="defs3039"><rect
         width="375"
         height="667"
         x="-106.536"
         y="-265.423"
         id="SVGID_9_" /></defs><clipPath
       id="SVGID_10_"><use
         id="use3043"
         style="overflow:visible"
         x="0"
         y="0"
         width="80.726997"
         height="42.759998"
         xlink:href="#SVGID_9_" /></clipPath></g><g
     transform="translate(-3.9280003,-2.963)"
     id="g3045"><path
       d="m 38.661,11.807 c -3.435,-4.892 -9.179,-8.1 -15.688,-8.1 -4.754,0 -19.045,0 -19.045,0 0,0 0,13.04 0,18.699 0,10.327 8.526,18.699 19.045,18.699 5.259,0 19.045,0 19.045,0 0,0 0,-13.536 0,-18.699 0,-3.675 -1.084,-7.099 -2.949,-9.989"
       id="path3049"
       style="fill:#939393" /><g
       id="g3051" /><g
       id="g3071"><path
         d="m 41.008,21.465 c 0,-10.218 -8.284,-18.502 -18.502,-18.502 -4.619,0 -18.502,0 -18.502,0 0,0 0,12.902 0,18.502 0,10.218 8.284,18.502 18.502,18.502 5.109,0 18.502,0 18.502,0 0,0 0,-13.393 0,-18.502 z"
         id="path3073"
         style="fill:#ffffff" /><path
         d="m 39.374,21.497 c 0,-9.227 -7.481,-16.708 -16.708,-16.708 -4.171,0 -16.708,0 -16.708,0 0,0 0,11.651 0,16.708 0,9.227 7.48,16.708 16.708,16.708 4.613,0 16.708,0 16.708,0 0,0 0,-12.095 0,-16.708 z"
         id="path3075"
         style="fill:#d23b37" /><g
         id="g3077"><g
           id="g3079"><g
             id="g3081"><defs
               id="defs3083"><rect
                 width="29.927"
                 height="16.004"
                 x="8.2159996"
                 y="10.978"
                 id="SVGID_13_" /></defs><clipPath
               id="SVGID_12_"><use
                 id="use3087"
                 style="overflow:visible"
                 x="0"
                 y="0"
                 width="80.726997"
                 height="42.759998"
                 xlink:href="#SVGID_13_" /></clipPath><path
               d="M 32.759,22.986 C 29.784,21.582 27.393,19.144 26.223,17.807 25.778,17.299 24.897,16.861 24.22,16.861 h -0.609 c 0.039,-0.063 0.065,-0.133 0.063,-0.211 l -0.029,-1.41 c 1.146,-0.633 1.487,-1.719 1.305,-2.561 -0.219,-1.018 -1.144,-1.703 -2.298,-1.703 -0.687,0 -1.242,0.205 -1.646,0.612 -0.633,0.638 -0.633,1.529 -0.633,1.568 0.003,0.224 0.185,0.404 0.409,0.404 0.227,0 0.409,-0.185 0.409,-0.409 0,-0.226 0.075,-1.36 1.461,-1.36 0.772,0 1.36,0.417 1.5,1.06 0.115,0.534 -0.101,1.318 -1.088,1.766 -0.149,0.067 -0.245,0.216 -0.24,0.38 l 0.034,1.667 c 0,0.073 0.026,0.135 0.063,0.195 h -1.152 c -0.677,0 -1.558,0.435 -2.003,0.946 -1.17,1.336 -3.561,3.774 -6.535,5.179 -3.47,1.636 -4.606,1.62 -4.98,3.037 -0.175,0.654 0.354,1.011 0.974,0.74 2.136,-0.93 6.986,-3.225 11.797,-6.739 0,0 0.917,-0.782 1.904,-0.782 h 0.138 c 0.987,0 1.904,0.782 1.904,0.782 4.811,3.514 9.661,5.809 11.797,6.739 0.62,0.271 1.146,-0.086 0.974,-0.74 -0.373,-1.413 -1.508,-1.397 -4.98,-3.035 l 0,0 z m 0,0"
               clip-path="url(#SVGID_12_)"
               id="path3089"
               style="fill:#ffffff" /></g></g><line
           stroke-miterlimit="10"
           x1="9.9029999"
           y1="25.365999"
           x2="36.316002"
           y2="25.365999"
           id="line3091"
           style="fill:none;stroke:#ffffff;stroke-width:0.75;stroke-miterlimit:10" /></g></g></g></svg>