<?xml version="1.0" encoding="UTF-8" standalone="no"?>
<!-- Created with Inkscape (http://www.inkscape.org/) -->

<svg
   xmlns:dc="http://purl.org/dc/elements/1.1/"
   xmlns:cc="http://creativecommons.org/ns#"
   xmlns:rdf="http://www.w3.org/1999/02/22-rdf-syntax-ns#"
   xmlns:svg="http://www.w3.org/2000/svg"
   xmlns="http://www.w3.org/2000/svg"
   xmlns:sodipodi="http://sodipodi.sourceforge.net/DTD/sodipodi-0.dtd"
   xmlns:inkscape="http://www.inkscape.org/namespaces/inkscape"
   width="239.11375"
   height="239.11125"
   id="svg3212"
   version="1.1"
   inkscape:version="0.48.4 r9939"
   sodipodi:docname="Logo_BomRetiro.svg">
  <defs
     id="defs3214">
    <clipPath
       clipPathUnits="userSpaceOnUse"
       id="clipPath38">
      <path
         inkscape:connector-curvature="0"
         d="m 244.766,387.011 154.704,0 0,82.729 -154.704,0 0,-82.729 z"
         id="path40" />
    </clipPath>
    <clipPath
       clipPathUnits="userSpaceOnUse"
       id="clipPath50">
      <path
         inkscape:connector-curvature="0"
         d="m 0,595.28 1275.59,0 L 1275.59,0 0,0 0,595.28 z"
         id="path52" />
    </clipPath>
    <clipPath
       clipPathUnits="userSpaceOnUse"
       id="clipPath160">
      <path
         inkscape:connector-curvature="0"
         d="m 673.844,453.17 38.051,0 0,40.724 -38.051,0 0,-40.724 z"
         id="path162" />
    </clipPath>
  </defs>
  <sodipodi:namedview
     id="base"
     pagecolor="#ffffff"
     bordercolor="#666666"
     borderopacity="1.0"
     inkscape:pageopacity="0.0"
     inkscape:pageshadow="2"
     inkscape:zoom="0.49497475"
     inkscape:cx="172.37721"
     inkscape:cy="144.02508"
     inkscape:document-units="px"
     inkscape:current-layer="layer1"
     showgrid="false"
     fit-margin-top="0"
     fit-margin-left="0"
     fit-margin-right="0"
     fit-margin-bottom="0"
     inkscape:window-width="650"
     inkscape:window-height="716"
     inkscape:window-x="715"
     inkscape:window-y="336"
     inkscape:window-maximized="0" />
  <metadata
     id="metadata3217">
    <rdf:RDF>
      <cc:Work
         rdf:about="">
        <dc:format>image/svg+xml</dc:format>
        <dc:type
           rdf:resource="http://purl.org/dc/dcmitype/StillImage" />
        <dc:title></dc:title>
      </cc:Work>
    </rdf:RDF>
  </metadata>
  <g
     inkscape:label="Camada 1"
     inkscape:groupmode="layer"
     id="layer1"
     transform="translate(-193.53313,-346.61307)">
    <g
       transform="matrix(1.25,0,0,-1.25,-88.656245,681.23357)"
       id="g3568">
      <g
         transform="translate(417.0425,172.0524)"
         id="g76">
        <path
           inkscape:connector-curvature="0"
           id="path78"
           style="fill:#ffffff;fill-opacity:1;fill-rule:nonzero;stroke:none"
           d="m 0,0 c 0,52.822 -42.825,95.644 -95.645,95.644 l -95.646,0 0,-95.644 c 0,-52.822 42.821,-95.645 95.646,-95.645 L 0,-95.645 0,0 z" />
      </g>
      <g
         transform="translate(405.8339,173.0438)"
         id="g80">
        <path
           inkscape:connector-curvature="0"
           id="path82"
           style="fill:#86175e;fill-opacity:1;fill-rule:nonzero;stroke:none"
           d="m 0,0 c 0,46.808 -37.95,84.755 -84.756,84.755 l -84.756,0 0,-84.755 c 0,-46.808 37.946,-84.756 84.756,-84.756 L 0,-84.756 0,0 z" />
      </g>
      <g
         transform="translate(371.2859,133.3832)"
         id="g84">
        <path
           inkscape:connector-curvature="0"
           id="path86"
           style="fill:#ffffff;fill-opacity:1;fill-rule:nonzero;stroke:none"
           d="m 0,0 0,-0.039 c 0,-0.883 -0.714,-1.61 -1.61,-1.61 l -6.948,0 c -0.883,0 -1.609,0.714 -1.609,1.61 l 0,0.039 c 0,0.883 0.713,1.611 1.609,1.611 m 15.428,4.155 -44.607,0 c -0.481,0 -0.871,-0.39 -0.871,-0.87 l 0,-0.039 c 0,-1.792 -1.454,-3.246 -3.246,-3.246 l -16.882,0 c -1.792,0 -3.247,1.454 -3.247,3.246 l 0,0.039 c 0,0.48 -0.389,0.87 -0.87,0.87 l -44.607,0 c -1.792,0 -3.247,-1.454 -3.247,-3.247 l 0,-5.064 c 0,-1.792 1.455,-3.247 3.247,-3.247 l 114.33,0 c 1.792,0 3.246,1.455 3.246,3.247 l 0,5.064 c 0,1.793 -1.454,3.247 -3.246,3.247" />
      </g>
      <g
         transform="translate(372.4812,155.1871)"
         id="g88">
        <path
           inkscape:connector-curvature="0"
           id="path90"
           style="fill:#ffffff;fill-opacity:1;fill-rule:nonzero;stroke:none"
           d="m 0,0 c 0,-0.896 -0.727,-1.623 -1.623,-1.623 l -98.955,0 c -0.896,0 -1.623,0.727 -1.623,1.623 l 0,58.191 c 0,0.896 0.727,1.623 1.623,1.623 l 98.955,0 C -0.727,59.814 0,59.087 0,58.191 L 0,0 z m -1.623,69.554 -98.955,0 c -6.259,0 -11.363,-5.104 -11.363,-11.363 l 0,-58.191 c 0,-6.259 5.104,-11.363 11.363,-11.363 l 98.955,0 C 4.636,-11.363 9.74,-6.259 9.74,0 l 0,58.191 c 0,6.259 -5.104,11.363 -11.363,11.363" />
      </g>
      <g
         transform="translate(374.1454,130.3757)"
         id="g92">
        <path
           inkscape:connector-curvature="0"
           id="path94"
           style="fill:#ffffff;fill-opacity:1;fill-rule:nonzero;stroke:none"
           d="m 0,0 -15.511,0 c -0.141,0 -0.256,0.115 -0.256,0.256 l 0,5.249 c 0,0.141 0.115,0.256 0.256,0.256 L 0,5.761 c 0.141,0 0.256,-0.115 0.256,-0.256 l 0,-5.249 C 0.256,0.115 0.141,0 0,0" />
      </g>
      <g
         transform="translate(323.4205,148.4085)"
         id="g96">
        <path
           inkscape:connector-curvature="0"
           id="path98"
           style="fill:#86175e;fill-opacity:1;fill-rule:nonzero;stroke:none"
           d="m 0,0 c 0,-1.75 -1.419,-3.169 -3.169,-3.169 -1.751,0 -3.17,1.419 -3.17,3.169 0,1.75 1.419,3.169 3.17,3.169 C -1.419,3.169 0,1.75 0,0" />
      </g>
    </g>
  </g>
</svg>
