<?xml version="1.0" encoding="UTF-8" standalone="no"?>
<!-- Created with Inkscape (http://www.inkscape.org/) -->

<svg
   xmlns:dc="http://purl.org/dc/elements/1.1/"
   xmlns:cc="http://creativecommons.org/ns#"
   xmlns:rdf="http://www.w3.org/1999/02/22-rdf-syntax-ns#"
   xmlns:svg="http://www.w3.org/2000/svg"
   xmlns="http://www.w3.org/2000/svg"
   xmlns:xlink="http://www.w3.org/1999/xlink"
   version="1.1"
   width="38.706997"
   height="38.085999"
   viewBox="0 0 38.706998 38.086"
   id="Camada_1"
   xml:space="preserve"><metadata
     id="metadata3702"><rdf:RDF><cc:Work
         rdf:about=""><dc:format>image/svg+xml</dc:format><dc:type
           rdf:resource="http://purl.org/dc/dcmitype/StillImage" /><dc:title></dc:title></cc:Work></rdf:RDF></metadata><defs
     id="defs3700" /><g
     transform="translate(-3.9310003,-2.421)"
     id="g3618"><defs
       id="defs3620"><rect
         width="375"
         height="667"
         x="-106.536"
         y="-389.91901"
         id="SVGID_1_" /></defs><clipPath
       id="SVGID_2_"><use
         id="use3624"
         style="overflow:visible"
         x="0"
         y="0"
         width="80.726997"
         height="42.759998"
         xlink:href="#SVGID_1_" /></clipPath></g><g
     transform="translate(-3.9310003,-2.421)"
     id="g3626"><defs
       id="defs3628"><rect
         width="375"
         height="667"
         x="-106.536"
         y="-389.91901"
         id="SVGID_3_" /></defs><clipPath
       id="SVGID_4_"><use
         id="use3632"
         style="overflow:visible"
         x="0"
         y="0"
         width="80.726997"
         height="42.759998"
         xlink:href="#SVGID_3_" /></clipPath></g><g
     transform="translate(-3.9310003,-2.421)"
     id="g3634"><defs
       id="defs3636"><rect
         width="375"
         height="667"
         x="-106.536"
         y="-389.91901"
         id="SVGID_5_" /></defs><clipPath
       id="SVGID_6_"><use
         id="use3640"
         style="overflow:visible"
         x="0"
         y="0"
         width="80.726997"
         height="42.759998"
         xlink:href="#SVGID_5_" /></clipPath></g><g
     transform="translate(-3.9310003,-2.421)"
     id="g3642"><defs
       id="defs3644"><rect
         width="375"
         height="667"
         x="-106.536"
         y="-389.91901"
         id="SVGID_7_" /></defs><clipPath
       id="SVGID_8_"><use
         id="use3648"
         style="overflow:visible"
         x="0"
         y="0"
         width="80.726997"
         height="42.759998"
         xlink:href="#SVGID_7_" /></clipPath></g><g
     transform="translate(-3.9310003,-2.421)"
     id="g3650"><defs
       id="defs3652"><rect
         width="375"
         height="667"
         x="-106.536"
         y="-359.91901"
         id="SVGID_9_" /></defs><clipPath
       id="SVGID_10_"><use
         id="use3656"
         style="overflow:visible"
         x="0"
         y="0"
         width="80.726997"
         height="42.759998"
         xlink:href="#SVGID_9_" /></clipPath></g><g
     transform="translate(-3.9310003,-2.421)"
     id="g3658"><g
       id="g3660"><g
         id="g3664"><path
           d="m 39.281,11.209 c -3.435,-4.892 -9.179,-8.1 -15.688,-8.1 -4.754,0 -19.045,0 -19.045,0 0,0 0,13.04 0,18.699 0,10.327 8.526,18.699 19.045,18.699 5.259,0 19.045,0 19.045,0 0,0 0,-13.536 0,-18.699 0,-3.675 -1.084,-7.099 -2.949,-9.989"
           id="path3666"
           style="fill:#939393" /><path
           d="m 41.479,21.194 c 0,-10.368 -8.406,-18.773 -18.774,-18.773 -4.687,0 -18.774,0 -18.774,0 0,0 0,13.091 0,18.773 0,10.368 8.405,18.774 18.774,18.774 5.184,0 18.774,0 18.774,0 0,0 0,-13.59 0,-18.774 z"
           id="path3668"
           style="fill:#ffffff" /></g><g
         id="g3670"><path
           d="m 39.278,20.999 c 0,-9.188 -7.449,-16.636 -16.636,-16.636 -4.153,0 -16.636,0 -16.636,0 0,0 0,11.601 0,16.636 0,9.188 7.448,16.636 16.636,16.636 4.594,0 16.636,0 16.636,0 0,0 0,-12.042 0,-16.636 z"
           id="path3672"
           style="fill:#355ea5" /></g><g
         id="g3674"><g
           id="g3676" /></g></g><g
       id="g3686"><g
         id="g3688"><defs
           id="defs3690"><rect
             width="25.606001"
             height="22.268"
             x="9.6969995"
             y="11.156"
             id="SVGID_15_" /></defs><clipPath
           id="SVGID_12_"><use
             id="use3694"
             style="overflow:visible"
             x="0"
             y="0"
             width="80.726997"
             height="42.759998"
             xlink:href="#SVGID_15_" /></clipPath><path
           d="m 34.704,14.962 c -0.05,-0.141 -0.155,-0.258 -0.292,-0.321 L 29.737,12.483 C 28.743,12.146 27.73,11.88 26.707,11.686 26.671,11.679 26.635,11.675 26.6,11.675 c -0.253,0 -0.48,0.175 -0.536,0.431 -0.373,1.644 -1.829,2.876 -3.588,2.876 -1.759,0 -3.215,-1.231 -3.589,-2.876 -0.057,-0.256 -0.283,-0.431 -0.536,-0.431 -0.035,0 -0.071,0.003 -0.107,0.011 -1.022,0.194 -2.036,0.461 -3.031,0.797 l -4.673,2.158 c -0.138,0.063 -0.243,0.18 -0.291,0.321 -0.05,0.143 -0.041,0.298 0.029,0.433 l 2.029,4.005 c 0.095,0.19 0.289,0.304 0.493,0.304 0.053,0 0.107,-0.008 0.159,-0.023 l 2.254,-0.668 v 13.438 c 0,0.305 0.249,0.554 0.555,0.554 h 13.417 c 0.306,0 0.554,-0.249 0.554,-0.554 V 19.013 l 2.255,0.668 c 0.053,0.016 0.106,0.023 0.159,0.023 0.204,0 0.397,-0.114 0.493,-0.304 l 2.03,-4.005 c 0.067,-0.135 0.077,-0.29 0.028,-0.433 l 0,0 z m 0.518,-0.38"
           clip-path="url(#SVGID_12_)"
           id="path3696"
           style="fill:#ffffff" /></g></g></g></svg>