<?xml version="1.0" encoding="UTF-8" standalone="no"?>
<!-- Created with Inkscape (http://www.inkscape.org/) -->

<svg
   xmlns:dc="http://purl.org/dc/elements/1.1/"
   xmlns:cc="http://creativecommons.org/ns#"
   xmlns:rdf="http://www.w3.org/1999/02/22-rdf-syntax-ns#"
   xmlns:svg="http://www.w3.org/2000/svg"
   xmlns="http://www.w3.org/2000/svg"
   xmlns:xlink="http://www.w3.org/1999/xlink"
   version="1.1"
   width="38.205997"
   height="38.563"
   viewBox="0 0 38.205999 38.563001"
   id="Camada_1"
   xml:space="preserve"><metadata
     id="metadata3307"><rdf:RDF><cc:Work
         rdf:about=""><dc:format>image/svg+xml</dc:format><dc:type
           rdf:resource="http://purl.org/dc/dcmitype/StillImage" /><dc:title></dc:title></cc:Work></rdf:RDF></metadata><defs
     id="defs3305" /><g
     transform="translate(-3.9310003,-2.421)"
     id="g3173"><defs
       id="defs3175"><rect
         width="375"
         height="667"
         x="-190.28"
         y="-295.423"
         id="SVGID_1_" /></defs><clipPath
       id="SVGID_2_"><use
         id="use3179"
         style="overflow:visible"
         x="0"
         y="0"
         width="80.726997"
         height="42.759998"
         xlink:href="#SVGID_1_" /></clipPath></g><g
     transform="translate(-3.9310003,-2.421)"
     id="g3181"><defs
       id="defs3183"><rect
         width="375"
         height="667"
         x="-190.28"
         y="-295.423"
         id="SVGID_3_" /></defs><clipPath
       id="SVGID_4_"><use
         id="use3187"
         style="overflow:visible"
         x="0"
         y="0"
         width="80.726997"
         height="42.759998"
         xlink:href="#SVGID_3_" /></clipPath></g><g
     transform="translate(-3.9310003,-2.421)"
     id="g3189"><defs
       id="defs3191"><rect
         width="375"
         height="667"
         x="-190.28"
         y="-295.423"
         id="SVGID_5_" /></defs><clipPath
       id="SVGID_6_"><use
         id="use3195"
         style="overflow:visible"
         x="0"
         y="0"
         width="80.726997"
         height="42.759998"
         xlink:href="#SVGID_5_" /></clipPath></g><g
     transform="translate(-3.9310003,-2.421)"
     id="g3197"><defs
       id="defs3199"><rect
         width="375"
         height="667"
         x="-190.28"
         y="-295.423"
         id="SVGID_7_" /></defs><clipPath
       id="SVGID_8_"><use
         id="use3203"
         style="overflow:visible"
         x="0"
         y="0"
         width="80.726997"
         height="42.759998"
         xlink:href="#SVGID_7_" /></clipPath></g><g
     transform="translate(-3.9310003,-2.421)"
     id="g3205"><defs
       id="defs3207"><rect
         width="375"
         height="667"
         x="-190.28"
         y="-265.423"
         id="SVGID_9_" /></defs><clipPath
       id="SVGID_10_"><use
         id="use3211"
         style="overflow:visible"
         x="0"
         y="0"
         width="80.726997"
         height="42.759998"
         xlink:href="#SVGID_9_" /></clipPath></g><g
     transform="translate(-3.9310003,-2.421)"
     id="g3213"><g
       id="g3217"><path
         d="m 38.78,11.686 c -3.435,-4.892 -9.179,-8.1 -15.688,-8.1 -4.754,0 -19.045,0 -19.045,0 0,0 0,13.04 0,18.699 0,10.327 8.526,18.699 19.045,18.699 5.259,0 19.045,0 19.045,0 0,0 0,-13.536 0,-18.699 0,-3.675 -1.084,-7.099 -2.949,-9.989"
         id="path3219"
         style="fill:#939393" /><path
         d="m 41.479,21.194 c 0,-10.368 -8.406,-18.773 -18.774,-18.773 -4.687,0 -18.774,0 -18.774,0 0,0 0,13.091 0,18.773 0,10.368 8.405,18.774 18.774,18.774 5.184,0 18.774,0 18.774,0 0,0 0,-13.59 0,-18.774 z"
         id="path3221"
         style="fill:#ffffff" /></g><g
       id="g3223"><g
         id="g3225"><path
           d="m 38.745,20.639 c 0,-9.248 -7.2,-16.745 -16.081,-16.745 -4.015,0 -16.081,0 -16.081,0 0,0 0,11.677 0,16.745 0,9.248 7.2,16.746 16.081,16.746 4.44,0 16.081,0 16.081,0 0,0 0,-12.122 0,-16.746 z"
           id="path3227"
           style="fill:#69b852" /></g><g
         id="g3229"><g
           id="g3231"><path
             d="m 35.455,20.248 c -0.308,0.764 -0.955,1.422 -1.708,1.422 -0.862,0 -1.591,-0.601 -1.822,-1.422 h 3.53 z"
             id="path3233"
             style="fill:#ffffff" /><path
             d="m 32.975,13.374 c 0.351,0 0.666,0.232 0.784,0.576 l 1.517,4.445 H 15.483 L 17,13.951 c 0.118,-0.344 0.433,-0.576 0.784,-0.576"
             id="path3235"
             style="fill:#ffffff" /><path
             d="m 29.991,20.248 c -0.232,0.821 -0.96,1.422 -1.822,1.422 -0.863,0 -1.591,-0.601 -1.822,-1.422 h 3.644 z"
             id="path3237"
             style="fill:#ffffff" /><path
             d="m 24.412,20.248 c -0.232,0.821 -0.96,1.422 -1.822,1.422 -0.862,0 -1.591,-0.601 -1.822,-1.422 h 3.644 z"
             id="path3239"
             style="fill:#ffffff" /><path
             d="m 18.834,20.248 c -0.232,0.821 -0.96,1.422 -1.822,1.422 -0.753,0 -1.401,-0.658 -1.708,-1.422 h 3.53 z"
             id="path3241"
             style="fill:#ffffff" /><path
             d="m 33.534,33.534 h -9.937 v -6.71 c 0,-0.512 -0.399,-0.926 -0.89,-0.926 h -3.586 c -0.492,0 -0.89,0.415 -0.89,0.926 v 6.71 h -1.007 c -0.54,0 -0.979,-0.458 -0.979,-1.02 v -9.086 c 0.245,0.062 0.5,0.096 0.766,0.096 1.114,0 2.114,-0.52 2.789,-1.337 0.675,0.817 1.674,1.337 2.789,1.337 1.114,0 2.114,-0.52 2.789,-1.337 0.675,0.817 1.674,1.337 2.789,1.337 1.114,0 2.114,-0.52 2.789,-1.337 0.675,0.817 1.674,1.337 2.789,1.337 0.266,0 0.522,-0.034 0.766,-0.096 v 9.086 c 0.003,0.562 -0.437,1.02 -0.977,1.02 l 0,0 z"
             id="path3243"
             style="fill:#ffffff" /><path
             d="M 33.534,33.534"
             id="path3245"
             style="fill:#ffffff" /></g><rect
           width="6.9829998"
           height="9.0120001"
           x="17.747999"
           y="24.521999"
           id="rect3247"
           style="fill:#ffffff" /><line
           stroke-miterlimit="10"
           x1="15.852"
           y1="27.76"
           x2="34.785"
           y2="27.76"
           id="line3249"
           style="fill:none;stroke:#69b852;stroke-miterlimit:10" /></g><g
         id="g3251"><g
           id="g3253"><defs
             id="defs3255"><rect
               width="7.4689999"
               height="7.994"
               x="9.3690004"
               y="5.9980001"
               id="SVGID_11_" /></defs><clipPath
             id="SVGID_12_"><use
               id="use3259"
               style="overflow:visible"
               x="0"
               y="0"
               width="80.726997"
               height="42.759998"
               xlink:href="#SVGID_11_" /></clipPath><path
             d="M 14.145,11.846 C 12.868,11.677 11.849,10.593 11.71,9.261 11.582,8.035 12.179,6.942 13.11,6.384 13.291,6.276 13.216,5.987 13.007,5.998 12.774,6.01 12.536,6.044 12.294,6.106 10.685,6.513 9.487,7.979 9.378,9.7 c -0.147,2.317 1.614,4.244 3.808,4.244 1.673,0 3.094,-1.121 3.61,-2.679 0.069,-0.208 -0.176,-0.366 -0.328,-0.213 -0.588,0.587 -1.42,0.913 -2.323,0.794 l 0,0 z m 0,0"
             clip-path="url(#SVGID_12_)"
             id="path3261"
             style="fill:#ffffff" /></g></g></g><g
       id="g3263"><g
         id="g3265" /><g
         id="g3281"><g
           id="g3283" /></g></g></g></svg>