<?xml version="1.0" encoding="UTF-8" standalone="no"?>
<!-- Created with Inkscape (http://www.inkscape.org/) -->

<svg
   xmlns:dc="http://purl.org/dc/elements/1.1/"
   xmlns:cc="http://creativecommons.org/ns#"
   xmlns:rdf="http://www.w3.org/1999/02/22-rdf-syntax-ns#"
   xmlns:svg="http://www.w3.org/2000/svg"
   xmlns="http://www.w3.org/2000/svg"
   xmlns:xlink="http://www.w3.org/1999/xlink"
   version="1.1"
   width="38.706997"
   height="38.085999"
   viewBox="0 0 38.706998 38.086"
   id="Camada_1"
   xml:space="preserve"><metadata
     id="metadata3448"><rdf:RDF><cc:Work
         rdf:about=""><dc:format>image/svg+xml</dc:format><dc:type
           rdf:resource="http://purl.org/dc/dcmitype/StillImage" /><dc:title></dc:title></cc:Work></rdf:RDF></metadata><defs
     id="defs3446" /><g
     transform="translate(-3.9310003,-2.421)"
     id="g3350"><defs
       id="defs3352"><rect
         width="375"
         height="667"
         x="-106.536"
         y="-342.67099"
         id="SVGID_1_" /></defs><clipPath
       id="SVGID_2_"><use
         id="use3356"
         style="overflow:visible"
         x="0"
         y="0"
         width="80.726997"
         height="42.759998"
         xlink:href="#SVGID_1_" /></clipPath></g><g
     transform="translate(-3.9310003,-2.421)"
     id="g3358"><defs
       id="defs3360"><rect
         width="375"
         height="667"
         x="-106.536"
         y="-342.67099"
         id="SVGID_3_" /></defs><clipPath
       id="SVGID_4_"><use
         id="use3364"
         style="overflow:visible"
         x="0"
         y="0"
         width="80.726997"
         height="42.759998"
         xlink:href="#SVGID_3_" /></clipPath></g><g
     transform="translate(-3.9310003,-2.421)"
     id="g3366"><defs
       id="defs3368"><rect
         width="375"
         height="667"
         x="-106.536"
         y="-342.67099"
         id="SVGID_5_" /></defs><clipPath
       id="SVGID_6_"><use
         id="use3372"
         style="overflow:visible"
         x="0"
         y="0"
         width="80.726997"
         height="42.759998"
         xlink:href="#SVGID_5_" /></clipPath></g><g
     transform="translate(-3.9310003,-2.421)"
     id="g3374"><defs
       id="defs3376"><rect
         width="375"
         height="667"
         x="-106.536"
         y="-342.67099"
         id="SVGID_7_" /></defs><clipPath
       id="SVGID_8_"><use
         id="use3380"
         style="overflow:visible"
         x="0"
         y="0"
         width="80.726997"
         height="42.759998"
         xlink:href="#SVGID_7_" /></clipPath></g><g
     transform="translate(-3.9310003,-2.421)"
     id="g3382"><defs
       id="defs3384"><rect
         width="375"
         height="667"
         x="-106.536"
         y="-312.67099"
         id="SVGID_9_" /></defs><clipPath
       id="SVGID_10_"><use
         id="use3388"
         style="overflow:visible"
         x="0"
         y="0"
         width="80.726997"
         height="42.759998"
         xlink:href="#SVGID_9_" /></clipPath></g><g
     transform="translate(-3.9310003,-2.421)"
     id="g3390"><g
       id="g3394"><path
         d="m 39.281,11.209 c -3.435,-4.892 -9.179,-8.1 -15.688,-8.1 -4.754,0 -19.045,0 -19.045,0 0,0 0,13.04 0,18.699 0,10.327 8.526,18.699 19.045,18.699 5.259,0 19.045,0 19.045,0 0,0 0,-13.536 0,-18.699 0,-3.675 -1.084,-7.099 -2.949,-9.989"
         id="path3396"
         style="fill:#939393" /><path
         d="m 41.479,21.194 c 0,-10.368 -8.406,-18.773 -18.774,-18.773 -4.687,0 -18.774,0 -18.774,0 0,0 0,13.091 0,18.773 0,10.368 8.405,18.774 18.774,18.774 5.184,0 18.774,0 18.774,0 0,0 0,-13.59 0,-18.774 z"
         id="path3398"
         style="fill:#ffffff" /></g><g
       id="g3400"><path
         d="m 39.278,20.999 c 0,-9.188 -7.449,-16.636 -16.636,-16.636 -4.153,0 -16.636,0 -16.636,0 0,0 0,11.601 0,16.636 0,9.188 7.448,16.636 16.636,16.636 4.594,0 16.636,0 16.636,0 0,0 0,-12.042 0,-16.636 z"
         id="path3402"
         style="fill:#9a3d70" /></g><g
       id="g3404"><g
         id="g3406"><path
           d="M 33.846,27.652 H 25.09 c -0.094,0 -0.171,0.076 -0.171,0.171 v 0.008 c 0,0.352 -0.285,0.637 -0.637,0.637 h -3.314 c -0.352,0 -0.637,-0.285 -0.637,-0.637 v -0.008 c 0,-0.094 -0.076,-0.171 -0.171,-0.171 h -8.756 c -0.352,0 -0.637,0.285 -0.637,0.637 v 0.994 c 0,0.352 0.286,0.637 0.637,0.637 h 22.441 c 0.352,0 0.637,-0.285 0.637,-0.637 v -0.994 c 10e-4,-0.352 -0.284,-0.637 -0.636,-0.637 l 0,0 z m -1.349,1.132 v 0.008 c 0,0.173 -0.14,0.316 -0.316,0.316 h -1.364 c -0.173,0 -0.316,-0.14 -0.316,-0.316 v -0.008 c 0,-0.173 0.14,-0.316 0.316,-0.316 m 1.68,0.323"
           id="path3408"
           style="fill:#ffffff" /><path
           d="M 32.413,10.852 H 12.99 c -1.229,0 -2.23,1.002 -2.23,2.23 v 11.422 c 0,1.229 1.002,2.23 2.23,2.23 h 19.423 c 1.229,0 2.23,-1.002 2.23,-2.23 V 13.082 c 10e-4,-1.228 -1.001,-2.23 -2.23,-2.23 l 0,0 z m 0.319,13.652 c 0,0.176 -0.143,0.319 -0.319,0.319 H 12.99 c -0.176,0 -0.319,-0.143 -0.319,-0.319 V 13.082 c 0,-0.176 0.143,-0.319 0.319,-0.319 h 19.423 c 0.176,0 0.319,0.143 0.319,0.319 v 11.422 z m 0,0"
           id="path3410"
           style="fill:#ffffff" /></g><path
         d="M 32.853,29.374 H 30.22 c -0.141,0 -0.256,-0.115 -0.256,-0.256 v -0.619 c 0,-0.141 0.115,-0.256 0.256,-0.256 h 2.633 c 0.141,0 0.256,0.115 0.256,0.256 v 0.619 c 0,0.141 -0.115,0.256 -0.256,0.256 z"
         id="path3412"
         style="fill:#ffffff" /><circle
         cx="22.48"
         cy="25.834999"
         r="0.62199998"
         id="circle3414"
         style="fill:#3073b0" /></g><g
       id="g3416"><g
         id="g3418" /></g></g></svg>