<?xml version="1.0" encoding="UTF-8" standalone="no"?>
<!-- Created with Inkscape (http://www.inkscape.org/) -->

<svg
   xmlns:dc="http://purl.org/dc/elements/1.1/"
   xmlns:cc="http://creativecommons.org/ns#"
   xmlns:rdf="http://www.w3.org/1999/02/22-rdf-syntax-ns#"
   xmlns:svg="http://www.w3.org/2000/svg"
   xmlns="http://www.w3.org/2000/svg"
   xmlns:xlink="http://www.w3.org/1999/xlink"
   version="1.1"
   width="38.706997"
   height="38.085999"
   viewBox="0 0 38.706998 38.086"
   id="Camada_1"
   xml:space="preserve"><metadata
     id="metadata3897"><rdf:RDF><cc:Work
         rdf:about=""><dc:format>image/svg+xml</dc:format><dc:type
           rdf:resource="http://purl.org/dc/dcmitype/StillImage" /><dc:title></dc:title></cc:Work></rdf:RDF></metadata><defs
     id="defs3895" /><g
     transform="translate(-3.9310003,-2.421)"
     id="g3743"><defs
       id="defs3745"><rect
         width="375"
         height="667"
         x="-189.91499"
         y="-389.91901"
         id="SVGID_1_" /></defs><clipPath
       id="SVGID_2_"><use
         id="use3749"
         style="overflow:visible"
         x="0"
         y="0"
         width="80.726997"
         height="42.759998"
         xlink:href="#SVGID_1_" /></clipPath></g><g
     transform="translate(-3.9310003,-2.421)"
     id="g3751"><defs
       id="defs3753"><rect
         width="375"
         height="667"
         x="-189.91499"
         y="-389.91901"
         id="SVGID_3_" /></defs><clipPath
       id="SVGID_4_"><use
         id="use3757"
         style="overflow:visible"
         x="0"
         y="0"
         width="80.726997"
         height="42.759998"
         xlink:href="#SVGID_3_" /></clipPath></g><g
     transform="translate(-3.9310003,-2.421)"
     id="g3759"><defs
       id="defs3761"><rect
         width="375"
         height="667"
         x="-189.91499"
         y="-389.91901"
         id="SVGID_5_" /></defs><clipPath
       id="SVGID_6_"><use
         id="use3765"
         style="overflow:visible"
         x="0"
         y="0"
         width="80.726997"
         height="42.759998"
         xlink:href="#SVGID_5_" /></clipPath></g><g
     transform="translate(-3.9310003,-2.421)"
     id="g3767"><defs
       id="defs3769"><rect
         width="375"
         height="667"
         x="-189.91499"
         y="-389.91901"
         id="SVGID_7_" /></defs><clipPath
       id="SVGID_8_"><use
         id="use3773"
         style="overflow:visible"
         x="0"
         y="0"
         width="80.726997"
         height="42.759998"
         xlink:href="#SVGID_7_" /></clipPath></g><g
     transform="translate(-3.9310003,-2.421)"
     id="g3775"><defs
       id="defs3777"><rect
         width="375"
         height="667"
         x="-189.91499"
         y="-359.91901"
         id="SVGID_9_" /></defs><clipPath
       id="SVGID_10_"><use
         id="use3781"
         style="overflow:visible"
         x="0"
         y="0"
         width="80.726997"
         height="42.759998"
         xlink:href="#SVGID_9_" /></clipPath></g><g
     transform="translate(-3.9310003,-2.421)"
     id="g3783"><g
       id="g3785"><g
         id="g3789"><path
           d="m 39.281,11.209 c -3.435,-4.892 -9.179,-8.1 -15.688,-8.1 -4.754,0 -19.045,0 -19.045,0 0,0 0,13.04 0,18.699 0,10.327 8.526,18.699 19.045,18.699 5.259,0 19.045,0 19.045,0 0,0 0,-13.536 0,-18.699 0,-3.675 -1.084,-7.099 -2.949,-9.989"
           id="path3791"
           style="fill:#939393" /><path
           d="m 41.479,21.194 c 0,-10.368 -8.406,-18.773 -18.774,-18.773 -4.687,0 -18.774,0 -18.774,0 0,0 0,13.091 0,18.773 0,10.368 8.405,18.774 18.774,18.774 5.184,0 18.774,0 18.774,0 0,0 0,-13.59 0,-18.774 z"
           id="path3793"
           style="fill:#ffffff" /></g><g
         id="g3795"><path
           d="m 39.278,20.999 c 0,-9.188 -7.449,-16.636 -16.636,-16.636 -4.153,0 -16.636,0 -16.636,0 0,0 0,11.601 0,16.636 0,9.188 7.448,16.636 16.636,16.636 4.594,0 16.636,0 16.636,0 0,0 0,-12.042 0,-16.636 z"
           id="path3797"
           style="fill:#65c298" /></g><g
         id="g3799"><g
           id="g3801" /></g></g><g
       id="g3835"><path
         d="m 38.082,18.941 c -0.211,-0.211 -0.458,-0.317 -0.74,-0.317 h -3.097 l -3.319,-7.122 c -0.165,-0.353 -0.435,-0.529 -0.811,-0.529 h -2.468 v -0.282 c 0,-0.141 -0.047,-0.259 -0.141,-0.353 -0.094,-0.094 -0.211,-0.141 -0.353,-0.141 h -7.227 c -0.141,0 -0.259,0.047 -0.353,0.141 -0.094,0.094 -0.141,0.211 -0.141,0.353 v 0.282 h -2.574 c -0.376,0 -0.646,0.176 -0.811,0.529 l -3.319,7.122 H 9.632 c -0.282,0 -0.529,0.106 -0.74,0.317 -0.212,0.212 -0.318,0.459 -0.318,0.741 0,0.141 0.024,0.27 0.071,0.388 l 4.83,11.987 c 0.07,0.188 0.2,0.347 0.388,0.476 0.188,0.129 0.388,0.194 0.599,0.194 h 18.05 c 0.212,0 0.412,-0.065 0.599,-0.194 0.188,-0.129 0.317,-0.288 0.388,-0.476 l 4.83,-11.987 c 0.047,-0.117 0.071,-0.247 0.071,-0.388 0,-0.282 -0.106,-0.529 -0.318,-0.741 l 0,0 z m -5.57,7.933 h -3.596 v -2.397 h 3.596 v 2.397 z m 1.199,-2.398 h 0.572 l -0.572,1.417 v -1.417 z m -19.32,0 h 3.067 v 2.397 h -3.067 v -2.397 z m -1.198,1.243 -0.501,-1.242 h 0.501 v 1.242 z m 4.266,-4.979 v 2.538 H 14.392 V 20.74 h 3.067 z m 10.259,0 v 2.538 l -3.631,0 V 20.74 h 3.631 z m -4.83,2.538 H 18.657 V 20.74 h 4.231 v 2.538 z m -4.231,1.198 h 4.231 v 2.397 h -4.231 v -2.397 z m 4.231,3.596 v 2.539 h -4.231 v -2.539 h 4.231 z m 1.198,0 h 3.631 v 2.539 h -3.631 v -2.539 z m 0,-1.198 v -2.397 h 3.631 v 2.397 h -3.631 z m 4.83,-3.596 V 20.74 h 3.596 v 2.538 H 28.916 z M 17.423,12.772 h 2.01 v 0.317 c 0,0.141 0.047,0.259 0.141,0.353 0.094,0.094 0.211,0.141 0.353,0.141 h 7.227 c 0.141,0 0.259,-0.047 0.353,-0.141 0.094,-0.094 0.141,-0.211 0.141,-0.353 v -0.317 h 1.904 l 2.686,5.852 h -17.5 l 2.685,-5.852 z m -4.23,7.968 v 2.538 H 12.208 L 11.184,20.74 h 2.009 z m 0.95,7.332 h 3.316 v 2.539 h -2.292 l -1.024,-2.539 z m 17.664,2.539 h -2.891 v -2.539 h 3.596 v 0.791 l -0.705,1.748 z m 2.96,-7.333 H 33.711 V 20.74 h 2.08 l -1.024,2.538 z m 0,0"
         id="path3837"
         style="fill:#ffffff" /></g><g
       id="g3839"><g
         id="g3843"><path
           d="m 39.281,11.209 c -3.435,-4.892 -9.179,-8.1 -15.688,-8.1 -4.754,0 -19.045,0 -19.045,0 0,0 0,13.04 0,18.699 0,10.327 8.526,18.699 19.045,18.699 5.259,0 19.045,0 19.045,0 0,0 0,-13.536 0,-18.699 0,-3.675 -1.084,-7.099 -2.949,-9.989"
           id="path3845"
           style="fill:#939393" /><path
           d="m 41.479,21.194 c 0,-10.368 -8.406,-18.773 -18.774,-18.773 -4.687,0 -18.774,0 -18.774,0 0,0 0,13.091 0,18.773 0,10.368 8.405,18.774 18.774,18.774 5.184,0 18.774,0 18.774,0 0,0 0,-13.59 0,-18.774 z"
           id="path3847"
           style="fill:#ffffff" /></g><g
         id="g3849"><path
           d="m 39.278,20.999 c 0,-9.188 -7.449,-16.636 -16.636,-16.636 -4.153,0 -16.636,0 -16.636,0 0,0 0,11.601 0,16.636 0,9.188 7.448,16.636 16.636,16.636 4.594,0 16.636,0 16.636,0 0,0 0,-12.042 0,-16.636 z"
           id="path3851"
           style="fill:#00beec" /></g><g
         id="g3853"><g
           id="g3855" /></g></g><g
       id="g3889"><path
         d="m 38.082,18.941 c -0.211,-0.211 -0.458,-0.317 -0.74,-0.317 h -3.097 l -3.319,-7.122 c -0.165,-0.353 -0.435,-0.529 -0.811,-0.529 h -2.468 v -0.282 c 0,-0.141 -0.047,-0.259 -0.141,-0.353 -0.094,-0.094 -0.211,-0.141 -0.353,-0.141 h -7.227 c -0.141,0 -0.259,0.047 -0.353,0.141 -0.094,0.094 -0.141,0.211 -0.141,0.353 v 0.282 h -2.574 c -0.376,0 -0.646,0.176 -0.811,0.529 l -3.319,7.122 H 9.632 c -0.282,0 -0.529,0.106 -0.74,0.317 -0.212,0.212 -0.318,0.459 -0.318,0.741 0,0.141 0.024,0.27 0.071,0.388 l 4.83,11.987 c 0.07,0.188 0.2,0.347 0.388,0.476 0.188,0.129 0.388,0.194 0.599,0.194 h 18.05 c 0.212,0 0.412,-0.065 0.599,-0.194 0.188,-0.129 0.317,-0.288 0.388,-0.476 l 4.83,-11.987 c 0.047,-0.117 0.071,-0.247 0.071,-0.388 0,-0.282 -0.106,-0.529 -0.318,-0.741 l 0,0 z m -5.57,7.933 h -3.596 v -2.397 h 3.596 v 2.397 z m 1.199,-2.398 h 0.572 l -0.572,1.417 v -1.417 z m -19.32,0 h 3.067 v 2.397 h -3.067 v -2.397 z m -1.198,1.243 -0.501,-1.242 h 0.501 v 1.242 z m 4.266,-4.979 v 2.538 H 14.392 V 20.74 h 3.067 z m 10.259,0 v 2.538 l -3.631,0 V 20.74 h 3.631 z m -4.83,2.538 H 18.657 V 20.74 h 4.231 v 2.538 z m -4.231,1.198 h 4.231 v 2.397 h -4.231 v -2.397 z m 4.231,3.596 v 2.539 h -4.231 v -2.539 h 4.231 z m 1.198,0 h 3.631 v 2.539 h -3.631 v -2.539 z m 0,-1.198 v -2.397 h 3.631 v 2.397 h -3.631 z m 4.83,-3.596 V 20.74 h 3.596 v 2.538 H 28.916 z M 17.423,12.772 h 2.01 v 0.317 c 0,0.141 0.047,0.259 0.141,0.353 0.094,0.094 0.211,0.141 0.353,0.141 h 7.227 c 0.141,0 0.259,-0.047 0.353,-0.141 0.094,-0.094 0.141,-0.211 0.141,-0.353 v -0.317 h 1.904 l 2.686,5.852 h -17.5 l 2.685,-5.852 z m -4.23,7.968 v 2.538 H 12.208 L 11.184,20.74 h 2.009 z m 0.95,7.332 h 3.316 v 2.539 h -2.292 l -1.024,-2.539 z m 17.664,2.539 h -2.891 v -2.539 h 3.596 v 0.791 l -0.705,1.748 z m 2.96,-7.333 H 33.711 V 20.74 h 2.08 l -1.024,2.538 z m 0,0"
         id="path3891"
         style="fill:#ffffff" /></g></g></svg>