<?xml version="1.0" encoding="UTF-8" standalone="no"?>
<!-- Created with Inkscape (http://www.inkscape.org/) -->

<svg
   xmlns:dc="http://purl.org/dc/elements/1.1/"
   xmlns:cc="http://creativecommons.org/ns#"
   xmlns:rdf="http://www.w3.org/1999/02/22-rdf-syntax-ns#"
   xmlns:svg="http://www.w3.org/2000/svg"
   xmlns="http://www.w3.org/2000/svg"
   version="1.1"
   width="259.04425"
   height="371.63776"
   id="svg2"
   xml:space="preserve"><metadata
     id="metadata8"><rdf:RDF><cc:Work
         rdf:about=""><dc:format>image/svg+xml</dc:format><dc:type
           rdf:resource="http://purl.org/dc/dcmitype/StillImage" /><dc:title></dc:title></cc:Work></rdf:RDF></metadata><defs
     id="defs6"><clipPath
       id="clipPath16"><path
         d="M 0,353 955,353 955,0 0,0 0,353 z"
         id="path18" /></clipPath><clipPath
       id="clipPath24"><path
         d="m -23919,24788 32766,0 0,-32766 -32766,0 0,32766 z"
         id="path26" /></clipPath><clipPath
       id="clipPath80"><path
         d="m 437.483,253.004 57.126,0 0,-48.869 -57.126,0 0,48.869 z"
         id="path82" /></clipPath><clipPath
       id="clipPath96"><path
         d="m 466.129,211.135 -74.967,0 -1.687,-126.539 76.654,0 76.654,0 -1.687,126.539 -74.967,0 z"
         id="path98" /></clipPath><clipPath
       id="clipPath192"><path
         d="M 0,353 955,353 955,0 0,0 0,353 z"
         id="path194" /></clipPath><clipPath
       id="clipPath224"><path
         d="M 0,353 955,353 955,0 0,0 0,353 z"
         id="path226" /></clipPath><clipPath
       id="clipPath232"><path
         d="m -23919,24788 32766,0 0,-32766 -32766,0 0,32766 z"
         id="path234" /></clipPath><clipPath
       id="clipPath288"><path
         d="m 137.5,323.217 72.535,0 0,-62.05 -72.535,0 0,62.05 z"
         id="path290" /></clipPath><clipPath
       id="clipPath304"><path
         d="m 174.155,268.71 -94.149,0 -2.119,-158.917 96.268,0 96.268,0 -2.119,158.917 -94.149,0 z"
         id="path306" /></clipPath><clipPath
       id="clipPath400"><path
         d="M 0,353 955,353 955,0 0,0 0,353 z"
         id="path402" /></clipPath></defs><g
     transform="matrix(1.25,0,0,-1.25,-92.166125,404.022)"
     id="g10"><g
       id="g220"><g
         clip-path="url(#clipPath224)"
         id="g222"><g
           id="g228"><g
             id="g230" /><g
             id="g236"><g
               clip-path="url(#clipPath232)"
               id="g238" /></g></g><g
           transform="translate(194.7829,308.6044)"
           id="g240"><path
             d="M 0,0 C -5.333,5.588 -12.403,8.504 -21.015,8.693 -29.628,8.504 -36.698,5.588 -42.031,0 c -12.754,-13.363 -11.038,-33.732 -10.958,-34.738 0.091,-1.139 1.111,-1.996 2.287,-1.905 1.174,0.087 2.052,1.081 1.964,2.22 -0.018,0.228 -1.645,19.596 9.844,31.62 4.495,4.705 10.509,7.174 17.879,7.358 7.369,-0.184 13.383,-2.653 17.878,-7.358 11.489,-12.024 9.862,-31.392 9.844,-31.62 -0.088,-1.139 0.791,-2.133 1.964,-2.22 1.176,-0.091 2.198,0.766 2.287,1.905 C 11.037,-33.732 12.754,-13.363 0,0"
             id="path242"
             style="fill:#b0b5bc;fill-opacity:1;fill-rule:nonzero;stroke:none" /></g><g
           transform="translate(173.7677,279.9356)"
           id="g244"><path
             d="M 0,0 -90.977,0 -72.958,-17.439 0,-18.387 72.958,-17.439 90.977,0 0,0 z"
             id="path246"
             style="fill:#ac1e7f;fill-opacity:1;fill-rule:nonzero;stroke:none" /></g><g
           transform="translate(264.7445,268.1624)"
           id="g248"><path
             d="m 0,0 0,11.773 -21.064,-5.911 0,-11.527 L 0,0 z"
             id="path250"
             style="fill:#711d55;fill-opacity:1;fill-rule:nonzero;stroke:none" /></g><g
           transform="translate(243.6807,274.0241)"
           id="g252"><path
             d="M 0,0 0,-10.049 25.275,-5.025 0,0 z"
             id="path254"
             style="fill:#85225d;fill-opacity:1;fill-rule:nonzero;stroke:none" /></g><g
           transform="translate(82.7902,268.1624)"
           id="g256"><path
             d="m 0,0 0,11.773 21.064,-5.911 0,-11.527 L 0,0 z"
             id="path258"
             style="fill:#721d55;fill-opacity:1;fill-rule:nonzero;stroke:none" /></g><g
           transform="translate(103.8546,274.0241)"
           id="g260"><path
             d="M 0,0 0,-10.049 -25.275,-5.025 0,0 z"
             id="path262"
             style="fill:#85225d;fill-opacity:1;fill-rule:nonzero;stroke:none" /></g><g
           transform="translate(268.9554,268.9991)"
           id="g264"><path
             d="m 0,0 -95.188,0 -95.188,0 -2.142,-160.671 97.33,0 97.33,0 L 0,0 z"
             id="path266"
             style="fill:#ffffff;fill-opacity:1;fill-rule:nonzero;stroke:none" /></g><g
           transform="translate(268.9554,268.9991)"
           id="g268"><path
             d="m 0,0 -95.188,0 -95.188,0 -2.142,-160.671 97.33,0 97.33,0 L 0,0 z"
             id="path270"
             style="fill:none;stroke:#231f20;stroke-width:0.75;stroke-linecap:butt;stroke-linejoin:miter;stroke-miterlimit:10;stroke-opacity:1;stroke-dasharray:none" /></g><g
           transform="translate(193.367,315.0466)"
           id="g272"><path
             d="M 0,0 C -5.405,5.327 -11.998,8.07 -19.599,8.171 -27.2,8.07 -33.794,5.327 -39.199,0 c -17.07,-16.823 -16.688,-50.282 -16.663,-51.843 0.018,-1.131 0.968,-2.037 2.131,-2.037 l 0.032,0 c 1.178,0.018 2.117,0.958 2.1,2.1 -0.006,0.366 -0.376,33.297 15.442,48.881 4.572,4.504 10.143,6.831 16.558,6.932 6.414,-0.101 11.984,-2.428 16.557,-6.932 15.819,-15.584 15.448,-48.515 15.443,-48.881 -0.017,-1.142 0.922,-2.082 2.099,-2.1 l 0.032,0 c 1.163,0 2.113,0.906 2.132,2.037 C 16.688,-50.282 17.07,-16.823 0,0"
             id="path274"
             style="fill:#eff0f2;fill-opacity:1;fill-rule:nonzero;stroke:none" /></g><g
           transform="translate(204.9348,262.8699)"
           id="g276"><path
             d="M 0,0 C 0,-1.706 1.425,-3.089 3.183,-3.089 4.94,-3.089 6.366,-1.706 6.366,0 6.366,1.706 4.94,3.089 3.183,3.089 1.425,3.089 0,1.706 0,0"
             id="path278"
             style="fill:#e4e6ea;fill-opacity:1;fill-rule:nonzero;stroke:none" /></g><g
           transform="translate(142.9121,262.3831)"
           id="g280"><path
             d="m 0,0 c 0,-1.706 -1.425,-3.089 -3.182,-3.089 -1.758,0 -3.183,1.383 -3.183,3.089 0,1.706 1.425,3.089 3.183,3.089 C -1.425,3.089 0,1.706 0,0"
             id="path282"
             style="fill:#e4e6ea;fill-opacity:1;fill-rule:nonzero;stroke:none" /></g><g
           id="g284"><g
             id="g286" /><g
             id="g292"><g
               clip-path="url(#clipPath288)"
               id="g294"
               style="opacity:0.08000183"><g
                 transform="translate(193.367,315.0466)"
                 id="g296"><path
                   d="M 0,0 C -5.405,5.327 -11.998,8.07 -19.599,8.171 -27.2,8.07 -33.794,5.327 -39.199,0 c -17.07,-16.823 -16.688,-50.282 -16.663,-51.843 0.018,-1.131 0.968,-2.037 2.131,-2.037 l 0.032,0 c 1.178,0.018 2.117,0.958 2.1,2.1 -0.006,0.366 -0.376,33.297 15.442,48.881 4.572,4.504 10.143,6.831 16.558,6.932 6.414,-0.101 11.984,-2.428 16.557,-6.932 15.819,-15.584 15.448,-48.515 15.443,-48.881 -0.017,-1.142 0.922,-2.082 2.099,-2.1 l 0.032,0 c 1.163,0 2.113,0.906 2.132,2.037 C 16.688,-50.282 17.07,-16.823 0,0"
                   id="path298"
                   style="fill:#eff0f2;fill-opacity:1;fill-rule:nonzero;stroke:none" /></g></g></g></g></g></g><g
       id="g300"><g
         clip-path="url(#clipPath304)"
         id="g302"><text
           transform="matrix(1,0,0,-1,83.5439,115.9971)"
           id="text308"><tspan
             x="0"
             y="0"
             id="tspan310"
             style="font-size:3.38590002px;font-variant:normal;font-weight:normal;font-stretch:normal;writing-mode:lr-tb;fill:#ffffff;fill-opacity:1;fill-rule:nonzero;stroke:none;font-family:Gotham;-inkscape-font-specification:Gotham-Light">4</tspan></text>
<g
           transform="translate(211.5959,155.3917)"
           id="g312"><path
             d="m 0,0 39.855,-59.953 c 0.584,-0.878 0.345,-2.063 -0.533,-2.646 L -11.61,-96.457 c -0.877,-0.584 -2.062,-0.345 -2.646,0.533 l -39.855,59.953 c -0.583,0.878 -0.345,2.063 0.533,2.646 L -2.646,0.533 C -1.768,1.116 -0.584,0.878 0,0"
             id="path314"
             style="fill:#61c67c;fill-opacity:1;fill-rule:nonzero;stroke:none" /></g><g
           transform="translate(211.5959,155.3917)"
           id="g316"><path
             d="m 0,0 39.855,-59.953 c 0.584,-0.878 0.345,-2.063 -0.533,-2.646 L -11.61,-96.457 c -0.877,-0.584 -2.062,-0.345 -2.646,0.533 l -39.855,59.953 c -0.583,0.878 -0.345,2.063 0.533,2.646 L -2.646,0.533 C -1.768,1.116 -0.584,0.878 0,0 z"
             id="path318"
             style="fill:none;stroke:#ffffff;stroke-width:1;stroke-linecap:butt;stroke-linejoin:miter;stroke-miterlimit:10;stroke-opacity:1;stroke-dasharray:none" /></g><g
           transform="translate(226.7368,171.3582)"
           id="g320"><path
             d="m 0,0 70.899,-12.495 c 1.038,-0.183 1.731,-1.173 1.548,-2.211 l -10.614,-60.23 c -0.183,-1.039 -1.173,-1.732 -2.211,-1.549 l -70.899,12.495 c -1.038,0.183 -1.732,1.173 -1.549,2.211 L -2.211,-1.548 C -2.028,-0.51 -1.038,0.183 0,0"
             id="path322"
             style="fill:#f48b12;fill-opacity:1;fill-rule:nonzero;stroke:none" /></g><g
           transform="translate(226.7368,171.3582)"
           id="g324"><path
             d="m 0,0 70.899,-12.495 c 1.038,-0.183 1.731,-1.173 1.548,-2.211 l -10.614,-60.23 c -0.183,-1.039 -1.173,-1.732 -2.211,-1.549 l -70.899,12.495 c -1.038,0.183 -1.732,1.173 -1.549,2.211 L -2.211,-1.548 C -2.028,-0.51 -1.038,0.183 0,0 z"
             id="path326"
             style="fill:none;stroke:#ffffff;stroke-width:1;stroke-linecap:butt;stroke-linejoin:miter;stroke-miterlimit:10;stroke-opacity:1;stroke-dasharray:none" /></g><g
           transform="translate(130.733,125.8528)"
           id="g328"><path
             d="m 0,0 -4.339,-55.263 c -0.064,-0.809 -0.771,-1.413 -1.581,-1.35 l -46.947,3.687 c -0.809,0.063 -1.413,0.771 -1.35,1.58 l 4.34,55.263 c 0.063,0.809 0.771,1.413 1.58,1.349 L -1.35,1.58 C -0.541,1.517 0.064,0.809 0,0"
             id="path330"
             style="fill:#86175e;fill-opacity:1;fill-rule:nonzero;stroke:none" /></g><g
           transform="translate(130.733,125.8528)"
           id="g332"><path
             d="m 0,0 -4.339,-55.263 c -0.064,-0.809 -0.771,-1.413 -1.581,-1.35 l -46.947,3.687 c -0.809,0.063 -1.413,0.771 -1.35,1.58 l 4.34,55.263 c 0.063,0.809 0.771,1.413 1.58,1.349 L -1.35,1.58 C -0.541,1.517 0.064,0.809 0,0 z"
             id="path334"
             style="fill:none;stroke:#ffffff;stroke-width:1;stroke-linecap:butt;stroke-linejoin:miter;stroke-miterlimit:10;stroke-opacity:1;stroke-dasharray:none" /></g><g
           transform="translate(170.877,182.4188)"
           id="g336"><path
             d="m 0,0 -21.239,-55.962 c -0.311,-0.819 -1.228,-1.231 -2.047,-0.92 l -47.541,18.043 c -0.819,0.311 -1.231,1.228 -0.92,2.047 l 21.239,55.962 c 0.311,0.819 1.228,1.231 2.047,0.92 L -0.921,2.047 C -0.101,1.736 0.311,0.819 0,0"
             id="path338"
             style="fill:#61c67c;fill-opacity:1;fill-rule:nonzero;stroke:none" /></g><g
           transform="translate(170.877,182.4188)"
           id="g340"><path
             d="m 0,0 -21.239,-55.962 c -0.311,-0.819 -1.228,-1.231 -2.047,-0.92 l -47.541,18.043 c -0.819,0.311 -1.231,1.228 -0.92,2.047 l 21.239,55.962 c 0.311,0.819 1.228,1.231 2.047,0.92 L -0.921,2.047 C -0.101,1.736 0.311,0.819 0,0 z"
             id="path342"
             style="fill:none;stroke:#ffffff;stroke-width:1;stroke-linecap:butt;stroke-linejoin:miter;stroke-miterlimit:10;stroke-opacity:1;stroke-dasharray:none" /></g><g
           transform="translate(211.2249,204.3567)"
           id="g344"><path
             d="m 0,0 -67.257,-28.624 c -0.985,-0.42 -2.123,0.039 -2.542,1.024 l -24.318,57.136 c -0.419,0.985 0.04,2.123 1.025,2.542 l 67.257,28.625 c 0.985,0.419 2.123,-0.039 2.542,-1.024 L 1.024,2.542 C 1.443,1.557 0.985,0.419 0,0"
             id="path346"
             style="fill:#86175e;fill-opacity:1;fill-rule:nonzero;stroke:none" /></g><g
           transform="translate(211.2249,204.3567)"
           id="g348"><path
             d="m 0,0 -67.257,-28.624 c -0.985,-0.42 -2.123,0.039 -2.542,1.024 l -24.318,57.136 c -0.419,0.985 0.04,2.123 1.025,2.542 l 67.257,28.625 c 0.985,0.419 2.123,-0.039 2.542,-1.024 L 1.024,2.542 C 1.443,1.557 0.985,0.419 0,0 z"
             id="path350"
             style="fill:none;stroke:#ffffff;stroke-width:1;stroke-linecap:butt;stroke-linejoin:miter;stroke-miterlimit:10;stroke-opacity:1;stroke-dasharray:none" /></g><g
           transform="translate(126.2602,119.7315)"
           id="g352"><path
             d="m 0,0 -49.471,-2.931 c -0.724,-0.043 -1.346,0.509 -1.389,1.234 l -2.49,42.026 c -0.043,0.725 0.51,1.347 1.234,1.39 l 49.471,2.931 c 0.724,0.043 1.346,-0.51 1.389,-1.234 L 1.234,1.39 C 1.277,0.665 0.724,0.043 0,0"
             id="path354"
             style="fill:#70c72d;fill-opacity:1;fill-rule:nonzero;stroke:none" /></g><g
           transform="translate(126.2602,119.7315)"
           id="g356"><path
             d="m 0,0 -49.471,-2.931 c -0.724,-0.043 -1.346,0.509 -1.389,1.234 l -2.49,42.026 c -0.043,0.725 0.51,1.347 1.234,1.39 l 49.471,2.931 c 0.724,0.043 1.346,-0.51 1.389,-1.234 L 1.234,1.39 C 1.277,0.665 0.724,0.043 0,0 z"
             id="path358"
             style="fill:none;stroke:#ffffff;stroke-width:1;stroke-linecap:butt;stroke-linejoin:miter;stroke-miterlimit:10;stroke-opacity:1;stroke-dasharray:none" /></g><g
           transform="translate(108.9499,158.8304)"
           id="g360"><path
             d="m 0,0 -34.343,16.982 c -0.502,0.248 -0.709,0.858 -0.46,1.361 l 14.427,29.174 c 0.249,0.503 0.858,0.709 1.361,0.461 L 15.327,30.996 c 0.503,-0.249 0.709,-0.858 0.46,-1.361 L 1.361,0.46 C 1.112,-0.043 0.503,-0.249 0,0"
             id="path362"
             style="fill:#f48b12;fill-opacity:1;fill-rule:nonzero;stroke:none" /></g><g
           transform="translate(108.9499,158.8304)"
           id="g364"><path
             d="m 0,0 -34.343,16.982 c -0.502,0.248 -0.709,0.858 -0.46,1.361 l 14.427,29.174 c 0.249,0.503 0.858,0.709 1.361,0.461 L 15.327,30.996 c 0.503,-0.249 0.709,-0.858 0.46,-1.361 L 1.361,0.46 C 1.112,-0.043 0.503,-0.249 0,0 z"
             id="path366"
             style="fill:none;stroke:#ffffff;stroke-width:1;stroke-linecap:butt;stroke-linejoin:miter;stroke-miterlimit:10;stroke-opacity:1;stroke-dasharray:none" /></g><g
           transform="translate(143.0479,186.9705)"
           id="g368"><path
             d="m 0,0 82.095,43.969 c 1.202,0.644 2.699,0.192 3.343,-1.011 l 37.353,-69.742 c 0.643,-1.202 0.191,-2.698 -1.011,-3.342 L 39.684,-74.095 c -1.202,-0.644 -2.698,-0.191 -3.342,1.011 L -1.011,-3.342 C -1.655,-2.14 -1.202,-0.644 0,0"
             id="path370"
             style="fill:#70c72d;fill-opacity:1;fill-rule:nonzero;stroke:none" /></g><g
           transform="translate(143.0479,186.9705)"
           id="g372"><path
             d="m 0,0 82.095,43.969 c 1.202,0.644 2.699,0.192 3.343,-1.011 l 37.353,-69.742 c 0.643,-1.202 0.191,-2.698 -1.011,-3.342 L 39.684,-74.095 c -1.202,-0.644 -2.698,-0.191 -3.342,1.011 L -1.011,-3.342 C -1.655,-2.14 -1.202,-0.644 0,0 z"
             id="path374"
             style="fill:none;stroke:#ffffff;stroke-width:1;stroke-linecap:butt;stroke-linejoin:miter;stroke-miterlimit:10;stroke-opacity:1;stroke-dasharray:none" /></g><g
           transform="translate(47.8436,180.7559)"
           id="g376"><path
             d="m 0,0 59.222,-11.692 c 0.867,-0.171 1.431,-1.013 1.26,-1.88 l -9.933,-50.31 c -0.171,-0.868 -1.013,-1.432 -1.88,-1.261 l -59.222,11.692 c -0.867,0.172 -1.431,1.013 -1.26,1.881 L -1.88,-1.26 C -1.709,-0.393 -0.867,0.171 0,0"
             id="path378"
             style="fill:#61c67c;fill-opacity:1;fill-rule:nonzero;stroke:none" /></g><g
           transform="translate(47.8436,180.7559)"
           id="g380"><path
             d="m 0,0 59.222,-11.692 c 0.867,-0.171 1.431,-1.013 1.26,-1.88 l -9.933,-50.31 c -0.171,-0.868 -1.013,-1.432 -1.88,-1.261 l -59.222,11.692 c -0.867,0.172 -1.431,1.013 -1.26,1.881 L -1.88,-1.26 C -1.709,-0.393 -0.867,0.171 0,0 z"
             id="path382"
             style="fill:none;stroke:#ffffff;stroke-width:1;stroke-linecap:butt;stroke-linejoin:miter;stroke-miterlimit:10;stroke-opacity:1;stroke-dasharray:none" /></g><g
           transform="translate(142.5587,165.2603)"
           id="g384"><path
             d="m 0,0 53.891,-30.822 c 0.789,-0.451 1.063,-1.457 0.612,-2.246 L 28.318,-78.85 c -0.451,-0.789 -1.457,-1.062 -2.246,-0.611 l -53.89,30.822 c -0.79,0.451 -1.063,1.457 -0.612,2.246 L -2.246,-0.612 C -1.795,0.177 -0.789,0.451 0,0"
             id="path386"
             style="fill:#f48b12;fill-opacity:1;fill-rule:nonzero;stroke:none" /></g><g
           transform="translate(142.5587,165.2603)"
           id="g388"><path
             d="m 0,0 53.891,-30.822 c 0.789,-0.451 1.063,-1.457 0.612,-2.246 L 28.318,-78.85 c -0.451,-0.789 -1.457,-1.062 -2.246,-0.611 l -53.89,30.822 c -0.79,0.451 -1.063,1.457 -0.612,2.246 L -2.246,-0.612 C -1.795,0.177 -0.789,0.451 0,0 z"
             id="path390"
             style="fill:none;stroke:#ffffff;stroke-width:1;stroke-linecap:butt;stroke-linejoin:miter;stroke-miterlimit:10;stroke-opacity:1;stroke-dasharray:none" /></g><g
           transform="translate(211.5959,155.3917)"
           id="g392"><path
             d="m 0,0 39.855,-59.953 c 0.584,-0.878 0.345,-2.063 -0.533,-2.646 L -11.61,-96.457 c -0.877,-0.584 -2.062,-0.345 -2.646,0.533 l -39.855,59.953 c -0.583,0.878 -0.345,2.063 0.533,2.646 L -2.646,0.533 C -1.768,1.116 -0.584,0.878 0,0 m 0,0 39.855,-59.953 c 0.584,-0.878 0.345,-2.063 -0.533,-2.646 L -11.61,-96.457 c -0.877,-0.584 -2.062,-0.345 -2.646,0.533 l -39.855,59.953 c -0.583,0.878 -0.345,2.063 0.533,2.646 L -2.646,0.533 C -1.768,1.116 -0.584,0.878 0,0 z M 15.141,15.966 86.04,3.472 C 87.078,3.289 87.771,2.299 87.588,1.261 L 76.974,-58.97 c -0.183,-1.038 -1.173,-1.731 -2.211,-1.548 L 3.864,-48.024 c -1.038,0.183 -1.732,1.173 -1.549,2.211 L 12.93,14.418 c 0.183,1.038 1.173,1.731 2.211,1.548 m 0,0 L 86.04,3.472 C 87.078,3.289 87.771,2.299 87.588,1.261 L 76.974,-58.97 c -0.183,-1.038 -1.173,-1.731 -2.211,-1.548 L 3.864,-48.024 c -1.038,0.183 -1.732,1.173 -1.549,2.211 L 12.93,14.418 c 0.183,1.038 1.173,1.731 2.211,1.548 z m -96.004,-45.505 -4.339,-55.263 c -0.064,-0.809 -0.771,-1.413 -1.581,-1.35 l -46.946,3.687 c -0.81,0.063 -1.414,0.77 -1.351,1.58 l 4.34,55.263 c 0.063,0.809 0.771,1.413 1.58,1.349 l 46.947,-3.686 c 0.809,-0.063 1.414,-0.771 1.35,-1.58 m 0,0 -4.339,-55.263 c -0.064,-0.809 -0.771,-1.413 -1.581,-1.35 l -46.946,3.687 c -0.81,0.063 -1.414,0.77 -1.351,1.58 l 4.34,55.263 c 0.063,0.809 0.771,1.413 1.58,1.349 l 46.947,-3.686 c 0.809,-0.063 1.414,-0.771 1.35,-1.58 z m 57.34,-34.365 -14.741,-38.84 c -0.216,-0.569 -0.852,-0.855 -1.42,-0.639 L -72.68,-90.86 c -0.568,0.216 -0.854,0.852 -0.639,1.421 l 14.741,38.84 c 0.216,0.568 0.852,0.854 1.421,0.639 l 32.996,-12.523 c 0.568,-0.217 0.854,-0.852 0.638,-1.421 m 0,0 -14.741,-38.84 c -0.216,-0.569 -0.852,-0.855 -1.42,-0.639 L -72.68,-90.86 c -0.568,0.216 -0.854,0.852 -0.639,1.421 l 14.741,38.84 c 0.216,0.568 0.852,0.854 1.421,0.639 l 32.996,-12.523 c 0.568,-0.217 0.854,-0.852 0.638,-1.421 z m -17.196,90.931 -21.239,-55.962 c -0.311,-0.819 -1.228,-1.231 -2.047,-0.92 l -47.541,18.043 c -0.819,0.311 -1.231,1.228 -0.92,2.047 l 21.239,55.962 c 0.311,0.819 1.228,1.231 2.047,0.92 l 47.541,-18.043 c 0.819,-0.311 1.231,-1.228 0.92,-2.047 m 0,0 -21.239,-55.962 c -0.311,-0.819 -1.228,-1.231 -2.047,-0.92 l -47.541,18.043 c -0.819,0.311 -1.231,1.228 -0.92,2.047 l 21.239,55.962 c 0.311,0.819 1.228,1.231 2.047,0.92 l 47.541,-18.043 c 0.819,-0.311 1.231,-1.228 0.92,-2.047 z M -0.371,48.965 -67.628,20.34 c -0.985,-0.419 -2.123,0.04 -2.542,1.025 l -24.318,57.136 c -0.418,0.985 0.04,2.123 1.025,2.542 l 67.257,28.625 c 0.985,0.419 2.123,-0.039 2.542,-1.024 L 0.653,51.507 C 1.072,50.522 0.614,49.384 -0.371,48.965 m 0,0 -67.257,-28.625 c -0.985,-0.419 -2.123,0.04 -2.542,1.025 l -24.318,57.136 c -0.418,0.985 0.04,2.123 1.025,2.542 l 67.257,28.625 c 0.985,0.419 2.123,-0.039 2.542,-1.024 L 0.653,51.507 C 1.072,50.522 0.614,49.384 -0.371,48.965 z m -84.965,-84.625 -49.471,-2.931 c -0.723,-0.043 -1.346,0.509 -1.388,1.234 l -2.49,42.026 c -0.043,0.725 0.509,1.347 1.233,1.389 l 49.471,2.932 c 0.724,0.042 1.346,-0.51 1.389,-1.234 l 2.49,-42.027 c 0.043,-0.724 -0.51,-1.346 -1.234,-1.389 m 0,0 -49.471,-2.931 c -0.723,-0.043 -1.346,0.509 -1.388,1.234 l -2.49,42.026 c -0.043,0.725 0.509,1.347 1.233,1.389 l 49.471,2.932 c 0.724,0.042 1.346,-0.51 1.389,-1.234 l 2.49,-42.027 c 0.043,-0.724 -0.51,-1.346 -1.234,-1.389 z m -17.31,39.099 -34.343,16.982 c -0.502,0.248 -0.709,0.858 -0.46,1.36 l 14.427,29.175 c 0.248,0.503 0.858,0.709 1.361,0.461 l 34.342,-16.983 c 0.503,-0.248 0.709,-0.857 0.46,-1.36 L -101.285,3.899 c -0.249,-0.503 -0.858,-0.709 -1.361,-0.46 m 0,0 -34.343,16.982 c -0.502,0.248 -0.709,0.858 -0.46,1.36 l 14.427,29.175 c 0.248,0.503 0.858,0.709 1.361,0.461 l 34.342,-16.983 c 0.503,-0.248 0.709,-0.857 0.46,-1.36 L -101.285,3.899 c -0.249,-0.503 -0.858,-0.709 -1.361,-0.46 z m 36.405,-96.404 -34.342,16.982 c -0.503,0.248 -0.709,0.858 -0.461,1.361 l 14.427,29.174 c 0.249,0.503 0.858,0.709 1.361,0.461 l 34.342,-16.982 c 0.503,-0.249 0.71,-0.858 0.461,-1.361 L -64.88,-92.505 c -0.248,-0.503 -0.858,-0.709 -1.361,-0.46 m 0,0 -34.342,16.982 c -0.503,0.248 -0.709,0.858 -0.461,1.361 l 14.427,29.174 c 0.249,0.503 0.858,0.709 1.361,0.461 l 34.342,-16.982 c 0.503,-0.249 0.71,-0.858 0.461,-1.361 L -64.88,-92.505 c -0.248,-0.503 -0.858,-0.709 -1.361,-0.46 z m -2.307,124.544 82.096,43.969 c 1.202,0.644 2.698,0.191 3.342,-1.011 L 54.243,4.795 C 54.887,3.594 54.434,2.097 53.232,1.453 l -82.096,-43.969 c -1.202,-0.644 -2.698,-0.192 -3.342,1.01 l -37.353,69.742 c -0.644,1.202 -0.191,2.699 1.011,3.343 m 0,0 82.096,43.969 c 1.202,0.644 2.698,0.191 3.342,-1.011 L 54.243,4.795 C 54.887,3.594 54.434,2.097 53.232,1.453 l -82.096,-43.969 c -1.202,-0.644 -2.698,-0.192 -3.342,1.01 l -37.353,69.742 c -0.644,1.202 -0.191,2.699 1.011,3.343 z m -95.204,-6.215 59.221,-11.692 c 0.867,-0.171 1.432,-1.013 1.26,-1.88 l -9.932,-50.31 c -0.171,-0.868 -1.013,-1.432 -1.881,-1.261 l -59.221,11.693 c -0.867,0.171 -1.432,1.013 -1.26,1.88 l 9.932,50.31 c 0.172,0.867 1.014,1.431 1.881,1.26 m 0,0 59.221,-11.692 c 0.867,-0.171 1.432,-1.013 1.26,-1.88 l -9.932,-50.31 c -0.171,-0.868 -1.013,-1.432 -1.881,-1.261 l -59.221,11.693 c -0.867,0.171 -1.432,1.013 -1.26,1.88 l 9.932,50.31 c 0.172,0.867 1.014,1.431 1.881,1.26 z m 94.715,-15.495 53.891,-30.822 c 0.789,-0.452 1.063,-1.457 0.611,-2.246 l -26.184,-45.782 c -0.451,-0.789 -1.457,-1.063 -2.246,-0.611 l -53.89,30.822 c -0.79,0.451 -1.064,1.456 -0.612,2.245 l 26.184,45.782 c 0.451,0.789 1.457,1.063 2.246,0.612 m 0,0 53.891,-30.822 c 0.789,-0.452 1.063,-1.457 0.611,-2.246 l -26.184,-45.782 c -0.451,-0.789 -1.457,-1.063 -2.246,-0.611 l -53.89,30.822 c -0.79,0.451 -1.064,1.456 -0.612,2.245 l 26.184,45.782 c 0.451,0.789 1.457,1.063 2.246,0.612 z"
             id="path394"
             style="fill:none;stroke:#ffffff;stroke-width:2;stroke-linecap:butt;stroke-linejoin:miter;stroke-miterlimit:10;stroke-opacity:1;stroke-dasharray:none" /></g></g></g><g
       id="g396"><g
         clip-path="url(#clipPath400)"
         id="g398"><g
           transform="translate(85.1689,59.7874)"
           id="g404"><path
             d="m 0,0 c 0,1.484 0.998,3.806 6.184,3.806 4.454,0 6.514,-1.613 7.38,-1.613 1.594,0 3.656,3.872 3.656,5.614 0,2.13 -4.92,4.518 -11.967,4.518 -7.778,0 -15.756,-3.743 -15.756,-13.229 0,-15.164 19.214,-12.196 19.214,-19.811 0,-3.871 -3.391,-4.71 -6.249,-4.71 -5.32,0 -8.578,2.969 -9.772,2.969 -1.399,0 -4.126,-3.743 -4.126,-5.745 0,-2.193 5.52,-5.679 15.625,-5.679 7.247,0 15.025,3.615 15.025,14.327 C 19.214,-4.387 0,-7.357 0,0"
             id="path406"
             style="fill:#d82f30;fill-opacity:1;fill-rule:nonzero;stroke:none" /></g><g
           transform="translate(193.739,71.7249)"
           id="g408"><path
             d="M 0,0 -3.458,0 C -5.385,0 -6.915,-0.452 -7.645,-1.742 L -19.48,-21.939 -31.181,-1.742 C -31.912,-0.452 -33.441,0 -35.368,0 l -3.526,0 c -2.791,0 -3.987,-0.709 -3.987,-2.065 l 0,-41.3 c 0,-1.355 1.196,-2.063 3.987,-2.063 l 1.931,0 c 2.791,0 3.987,0.708 3.987,2.063 l 0,26.716 0.268,0.066 9.64,-16.714 c 0.598,-0.775 1.396,-1.227 2.657,-1.227 l 1.93,0 c 1.263,0 2.059,0.452 2.658,1.227 l 9.639,16.714 0.268,-0.066 0,-26.716 c 0,-1.355 1.194,-2.063 3.989,-2.063 l 1.927,0 c 2.793,0 3.989,0.708 3.989,2.063 l 0,41.3 C 3.989,-0.709 2.793,0 0,0"
             id="path410"
             style="fill:#d82f30;fill-opacity:1;fill-rule:nonzero;stroke:none" /></g><g
           transform="translate(146.0703,28.8775)"
           id="g412"><path
             d="m 0,0 -14.627,41.492 c -0.398,1.033 -1.86,1.356 -3.789,1.356 l -3.458,0 c -1.928,0 -3.389,-0.323 -3.789,-1.356 L -40.288,0 c -0.135,-0.452 -0.268,-0.84 -0.268,-1.161 0,-0.904 1.262,-1.421 4.057,-1.421 l 2.66,0 c 1.594,0 2.725,0.389 3.058,1.355 l 2.66,7.873 12.862,0 -2.617,8.518 -7.387,0 3.921,11.487 c 0.401,1.098 0.997,4.129 0.997,4.129 l 0.267,0 c 0,0 0.666,-3.291 0.996,-4.129 l 9.307,-27.878 c 0.335,-1.032 1.797,-1.355 3.726,-1.355 l 2.923,0 c 2.328,0 3.324,0.517 3.324,1.421 C 0.198,-0.84 0.133,-0.452 0,0"
             id="path414"
             style="fill:#d82f30;fill-opacity:1;fill-rule:nonzero;stroke:none" /></g><g
           transform="translate(280.7683,28.8775)"
           id="g416"><path
             d="m 0,0 -14.625,41.492 c -0.4,1.033 -1.864,1.356 -3.791,1.356 l -3.456,0 c -1.927,0 -3.391,-0.323 -3.791,-1.356 L -40.288,0 c -0.133,-0.452 -0.268,-0.84 -0.268,-1.161 0,-0.904 1.266,-1.421 4.057,-1.421 l 2.66,0 c 1.596,0 2.725,0.389 3.058,1.355 l 2.66,7.873 12.799,0 -2.617,8.518 -7.324,0 3.921,11.487 c 0.398,1.098 0.999,4.129 0.999,4.129 l 0.265,0 c 0,0 0.666,-3.291 0.999,-4.129 l 9.307,-27.878 c 0.332,-1.032 1.796,-1.355 3.721,-1.355 l 2.928,0 c 2.327,0 3.323,0.517 3.323,1.421 C 0.2,-0.84 0.133,-0.452 0,0"
             id="path418"
             style="fill:#d82f30;fill-opacity:1;fill-rule:nonzero;stroke:none" /></g><g
           transform="translate(223.5254,71.5955)"
           id="g420"><path
             d="m 0,0 -13.962,0 c -1.864,0 -2.66,-0.773 -2.66,-2.58 l 0,-40.654 c 0,-1.356 1.197,-2.065 3.989,-2.065 l 2.262,0 c 2.791,0 3.989,0.709 3.989,2.065 l 0,34.781 5.917,0 c 2.527,0 5.785,-1.032 5.785,-5.679 0,-4.645 -3.258,-5.614 -5.785,-5.614 l -3.054,0 0,-8.518 4.185,0 c 3.588,0 15.157,1.678 15.157,14.132 C 15.823,-1.676 5.916,0 0,0"
             id="path422"
             style="fill:#d82f30;fill-opacity:1;fill-rule:nonzero;stroke:none" /></g></g></g><text
       transform="matrix(1,0,0,-0.9706228,78.3145,78.8701)"
       id="text424"><tspan
         x="0 15.278514 30.011366 36.559299 51.954742 57.801113 73.040649 86.097542 91.943909 105.93623 122.50094 139.41644 152.43436 166.52411 181.72467"
         y="0"
         id="tspan426"
         style="font-size:19.48789978px;font-variant:normal;font-weight:bold;font-stretch:normal;writing-mode:lr-tb;fill:#4c5355;fill-opacity:1;fill-rule:nonzero;stroke:none;font-family:Gotham;-inkscape-font-specification:Gotham-Bold">GUIA DE COMPRAS</tspan></text>
</g></svg>