<?xml version="1.0" encoding="UTF-8" standalone="no"?>
<!-- Created with Inkscape (http://www.inkscape.org/) -->

<svg
   xmlns:dc="http://purl.org/dc/elements/1.1/"
   xmlns:cc="http://creativecommons.org/ns#"
   xmlns:rdf="http://www.w3.org/1999/02/22-rdf-syntax-ns#"
   xmlns:svg="http://www.w3.org/2000/svg"
   xmlns="http://www.w3.org/2000/svg"
   xmlns:xlink="http://www.w3.org/1999/xlink"
   version="1.1"
   width="695.68591"
   height="299.41586"
   viewBox="0 0 695.68591 299.41586"
   id="svg68">
  <metadata
     id="metadata72">
    <rdf:RDF>
      <cc:Work
         rdf:about="">
        <dc:format>image/svg+xml</dc:format>
        <dc:type
           rdf:resource="http://purl.org/dc/dcmitype/StillImage" />
        <dc:title></dc:title>
      </cc:Work>
    </rdf:RDF>
  </metadata>
  <path
     d="M 0,68.386248 H 233.7735 V 299.41585 H 0 z"
     id="path2"
     style="fill:none" />
  <path
     d="M 0,299.41585 V 76.471348 H 233.7735 V 299.41585 z"
     id="path6"
     style="fill:#3a3a3d;fill-rule:evenodd" />
  <path
     d="m 207.1792,299.41585 -77.2969,-77.2966 37.6414,-37.6415 66.2498,66.2491 v 48.689 z"
     id="path8"
     style="fill:#46494b;fill-rule:evenodd" />
  <path
     d="M 0,153.07595 53.3111,206.38815 183.228,76.471348 H 0 z"
     id="path10"
     style="fill:#eff2f4;fill-rule:evenodd" />
  <defs
     id="defs24">
    <linearGradient
       id="grad1">
      <stop
         id="stop12"
         style="stop-color:#ffffff;stop-opacity:0"
         offset="0" />
      <stop
         id="stop14"
         style="stop-color:#ffffff;stop-opacity:0"
         offset="0.12" />
      <stop
         id="stop16"
         style="stop-color:#d6d6d6;stop-opacity:0"
         offset="0" />
      <stop
         id="stop18"
         style="stop-color:#ffffff;stop-opacity:0"
         offset="838873.625" />
      <stop
         id="stop20"
         style="stop-color:#ffffff;stop-opacity:0"
         offset="0" />
    </linearGradient>
    <linearGradient
       x1="224.4444"
       y1="300.14227"
       x2="224.4444"
       y2="409.41739"
       id="grad2"
       xlink:href="#grad1"
       gradientUnits="userSpaceOnUse"
       gradientTransform="matrix(0.95073039,0,0,1.0518229,-83.5038,-131.21875)" />
  </defs>
  <path
     d="m 207.1792,299.41585 -77.2969,-77.2966 37.6414,-37.6415 66.2498,66.2491 v 48.689 z"
     id="path26"
     style="fill:url(#grad2);fill-opacity:0" />
  <path
     d="M 7.5358003,238.51985 169.5843,76.471349 h 64.1892 V 195.38795 L 129.7453,299.41585 H 68.431 z"
     id="path28"
     style="fill:#ed2323;fill-rule:evenodd" />
  <path
     d="M 7.5358003,238.51985 169.5843,76.471349 h 64.1892 V 195.38795 L 129.7453,299.41585 H 68.431 z"
     id="path30"
     style="fill:#ff000c;fill-opacity:0;fill-rule:evenodd" />
  <path
     d="M 3.2003985e-7,299.41585 V 148.18365 L 151.231,299.41585 z"
     id="path32"
     style="fill:#46494b;fill-rule:evenodd" />
  <defs
     id="defs40">
    <linearGradient
       id="grad3">
      <stop
         id="stop34"
         style="stop-color:#ffffff;stop-opacity:1"
         offset="0" />
      <stop
         id="stop36"
         style="stop-color:#ffffff;stop-opacity:1"
         offset="1" />
    </linearGradient>
    <linearGradient
       x1="83.504128"
       y1="279.40128"
       x2="83.504128"
       y2="430.6329"
       id="grad4"
       xlink:href="#grad3"
       gradientUnits="userSpaceOnUse"
       gradientTransform="matrix(0.99999603,0,0,1.000004,-83.5038,-131.21875)" />
  </defs>
  <path
     d="M 3.2003985e-7,299.41585 V 148.18365 L 151.231,299.41585 z"
     id="path42"
     style="fill:url(#grad4);fill-opacity:0" />
  <g
     transform="translate(-83.5038,-131.21875)"
     id="g48">
    <path
       d="m 187.7423,156.9118 c -2.057,0 -4.0617,0.1995 -6.0388,0.4912 -9.0164,11.2604 -14.4457,25.5135 -14.4457,41.0282 v 65.873 h 14.5612 v -65.873 c 0,-15.8849 7.2676,-30.1007 18.6505,-39.5051 -4.0149,-1.2961 -8.2857,-2.0143 -12.7272,-2.0143 z"
       id="path44"
       style="fill:#2f3032;fill-rule:evenodd;stroke:#2f3032;stroke-width:2.83459997;stroke-linecap:butt;stroke-linejoin:miter;stroke-dasharray:none" />
    <path
       d="m 233.0441,132.6422 c -2.573,0 -5.106,0.1885 -7.6033,0.476 7.0488,4.0865 13.3628,9.2778 18.7385,15.34 22.9047,5.1033 40.0926,25.552 40.0926,49.973 v 65.873 h 14.5612 v -65.873 c 0,-36.2758 -29.5118,-65.789 -65.789,-65.789 z"
       id="path46"
       style="fill:#2f3032;fill-rule:evenodd;stroke:#2f3032;stroke-width:2.83459997;stroke-linecap:butt;stroke-linejoin:miter;stroke-dasharray:none" />
  </g>
  <g
     transform="translate(-83.5038,-131.21875)"
     id="g52">
    <path
       d="m 253.5272,264.3042 h -14.5626 v -65.873 c 0,-28.246 -22.9763,-51.2264 -51.2223,-51.2264 -28.246,0 -51.2264,22.9804 -51.2264,51.2264 v 65.873 h -14.5626 v -65.873 c 0,-36.2758 29.5132,-65.789 65.789,-65.789 36.2758,0 65.7849,29.5132 65.7849,65.789 z"
       id="path50"
       style="fill:#2f3032;fill-rule:evenodd;stroke:#2f3032;stroke-width:2.83459997;stroke-linecap:butt;stroke-linejoin:miter;stroke-dasharray:none" />
  </g>
  <text
     x="261.92807"
     y="278.31665"
     id="text56">
    <tspan
       id="tspan54"
       style="font-size:46.5px;fill:#231f20;font-family:Arial Black">Guia de Compras</tspan>
  </text>
  <path
     d="m 287.1658,144.06765 c 0,-3.1239 2.0362,-8.014 12.6303,-8.014 9.1012,0 13.3104,3.3958 15.0771,3.3958 3.2583,0 7.4698,-8.15 7.4698,-11.8165 0,-4.4823 -10.0499,-9.508 -24.4484,-9.508 -15.8909,0 -32.1881,7.8776 -32.1881,27.8437 0,31.9186 39.2512,25.67 39.2512,41.6969 0,8.1496 -6.9259,9.9151 -12.767,9.9151 -10.8656,0 -17.522,-6.2478 -19.9649,-6.2478 -2.8539,0 -8.4227,7.8781 -8.4227,12.0884 0,4.6183 11.2747,11.9533 31.9182,11.9533 14.8056,0 30.6961,-7.607 30.6961,-30.1531 0,-31.9185 -39.2516,-25.6712 -39.2516,-41.1538 z"
     id="path58"
     style="fill:#ff000c;fill-rule:evenodd" />
  <path
     d="m 508.9657,118.94065 h -7.0631 c -3.9373,0 -7.0612,0.9505 -8.5555,3.6665 l -24.1765,42.5123 -23.9049,-42.5123 c -1.4943,-2.716 -4.6182,-3.6665 -8.5574,-3.6665 H 429.51 c -5.7036,0 -8.1488,1.4932 -8.1488,4.3459 v 86.9259 c 0,2.852 2.4452,4.3463 8.1488,4.3463 h 3.9396 c 5.7035,0 8.1484,-1.4943 8.1484,-4.3463 v -56.2298 l 0.5442,-0.1359 19.693,35.1772 c 1.2225,1.6303 2.8539,2.5808 5.434,2.5808 h 3.9396 c 2.5797,0 4.2092,-0.9505 5.4316,-2.5808 l 19.693,-35.1772 0.5442,0.1359 v 56.2298 c 0,2.852 2.4449,4.3463 8.1488,4.3463 h 3.9393 c 5.7058,0 8.1488,-1.4943 8.1488,-4.3463 v -86.9259 c 0,-2.8527 -2.443,-4.3459 -8.1488,-4.3459 z"
     id="path60"
     style="fill:#ff000c;fill-rule:evenodd" />
  <path
     d="m 411.5809,209.12595 -29.8823,-87.3337 c -0.8138,-2.173 -3.8025,-2.8516 -7.7421,-2.8516 h -7.0612 c -3.9392,0 -6.9283,0.6786 -7.7417,2.8516 l -29.88,87.3337 c -0.2719,0.9506 -0.5438,1.7655 -0.5438,2.4441 0,1.9011 2.5801,2.9887 8.2836,2.9887 h 5.434 c 3.2582,0 5.5683,-0.8157 6.2473,-2.8527 l 5.434,-16.5695 h 26.2779 l -5.3458,-17.9291 H 359.967 l 8.014,-24.1764 c 0.8158,-2.309 2.0382,-8.6927 2.0382,-8.6927 h 0.5438 c 0,0 1.3576,6.9276 2.0363,8.6927 l 19.0143,58.675 c 0.681,2.1741 3.6677,2.8527 7.607,2.8527 h 5.9758 c 4.753,0 6.7912,-1.0876 6.7912,-2.9887 0,-0.6786 -0.1348,-1.4935 -0.4067,-2.4441 z"
     id="path62"
     style="fill:#ff000c;fill-rule:evenodd" />
  <path
     d="m 686.7613,209.12595 -29.88,-87.3337 c -0.8161,-2.173 -3.8025,-2.8516 -7.7421,-2.8516 h -7.0635 c -3.9372,0 -6.9259,0.6786 -7.7417,2.8516 l -29.8803,87.3337 c -0.272,0.9506 -0.5439,1.7655 -0.5439,2.4441 0,1.9011 2.5824,2.9887 8.286,2.9887 h 5.4316 c 3.261,0 5.5691,-0.8157 6.2497,-2.8527 l 5.432,-16.5695 h 26.1478 l -5.3462,-17.9291 h -14.9609 l 8.0136,-24.1764 c 0.8138,-2.309 2.0362,-8.6927 2.0362,-8.6927 h 0.5438 c 0,0 1.3573,6.9276 2.0382,8.6927 l 19.0148,58.675 c 0.6786,2.1741 3.6677,2.8527 7.605,2.8527 h 5.9774 c 4.7534,0 6.7892,-1.0876 6.7892,-2.9887 0,-0.6786 -0.1348,-1.4935 -0.4067,-2.4441 z"
     id="path64"
     style="fill:#ff000c;fill-rule:evenodd" />
  <path
     d="m 569.816,119.21255 h -28.5228 c -3.8024,0 -5.4316,1.6292 -5.4316,5.4317 v 85.5682 c 0,2.852 2.4449,4.3463 8.1484,4.3463 h 4.6183 c 5.7039,0 8.1488,-1.4943 8.1488,-4.3463 v -73.2083 h 12.0884 c 5.162,0 11.8165,2.1733 11.8165,11.9525 0,9.7791 -6.6545,11.8165 -11.8165,11.8165 h -6.235 v 17.9286 h 8.5451 c 7.333,0 30.9656,-3.5313 30.9656,-29.7451 0,-26.2135 -20.2368,-29.7441 -32.3252,-29.7441 z"
     id="path66"
     style="fill:#ff000c;fill-rule:evenodd" />
</svg>
