<?xml version="1.0" encoding="UTF-8" standalone="no"?>
<!-- Created with Inkscape (http://www.inkscape.org/) -->

<svg
   xmlns:dc="http://purl.org/dc/elements/1.1/"
   xmlns:cc="http://creativecommons.org/ns#"
   xmlns:rdf="http://www.w3.org/1999/02/22-rdf-syntax-ns#"
   xmlns:svg="http://www.w3.org/2000/svg"
   xmlns="http://www.w3.org/2000/svg"
   version="1.1"
   width="659.44263"
   height="212.00856"
   id="svg2"
   xml:space="preserve"><metadata
     id="metadata8"><rdf:RDF><cc:Work
         rdf:about=""><dc:format>image/svg+xml</dc:format><dc:type
           rdf:resource="http://purl.org/dc/dcmitype/StillImage" /><dc:title></dc:title></cc:Work></rdf:RDF></metadata><defs
     id="defs6"><clipPath
       id="clipPath16"><path
         d="M 0,353 955,353 955,0 0,0 0,353 z"
         id="path18" /></clipPath><clipPath
       id="clipPath24"><path
         d="m -23919,24788 32766,0 0,-32766 -32766,0 0,32766 z"
         id="path26" /></clipPath><clipPath
       id="clipPath80"><path
         d="m 437.483,253.004 57.126,0 0,-48.869 -57.126,0 0,48.869 z"
         id="path82" /></clipPath><clipPath
       id="clipPath96"><path
         d="m 466.129,211.135 -74.967,0 -1.687,-126.539 76.654,0 76.654,0 -1.687,126.539 -74.967,0 z"
         id="path98" /></clipPath><clipPath
       id="clipPath192"><path
         d="M 0,353 955,353 955,0 0,0 0,353 z"
         id="path194" /></clipPath><clipPath
       id="clipPath224"><path
         d="M 0,353 955,353 955,0 0,0 0,353 z"
         id="path226" /></clipPath><clipPath
       id="clipPath232"><path
         d="m -23919,24788 32766,0 0,-32766 -32766,0 0,32766 z"
         id="path234" /></clipPath><clipPath
       id="clipPath288"><path
         d="m 137.5,323.217 72.535,0 0,-62.05 -72.535,0 0,62.05 z"
         id="path290" /></clipPath><clipPath
       id="clipPath304"><path
         d="m 174.155,268.71 -94.149,0 -2.119,-158.917 96.268,0 96.268,0 -2.119,158.917 -94.149,0 z"
         id="path306" /></clipPath><clipPath
       id="clipPath400"><path
         d="M 0,353 955,353 955,0 0,0 0,353 z"
         id="path402" /></clipPath></defs><g
     transform="matrix(1.25,0,0,-1.25,-486.266,316.25525)"
     id="g10"><g
       id="g12"><g
         clip-path="url(#clipPath16)"
         id="g14"><g
           id="g20"><g
             id="g22" /><g
             id="g28"><g
               clip-path="url(#clipPath24)"
               id="g30" /></g></g><g
           transform="translate(482.5969,241.4955)"
           id="g32"><path
             d="M 0,0 C -4.2,4.401 -9.768,6.697 -16.551,6.846 -23.334,6.697 -28.902,4.401 -33.102,0 c -10.045,-10.525 -8.693,-26.566 -8.63,-27.359 0.071,-0.897 0.875,-1.571 1.8,-1.5 0.925,0.068 1.617,0.851 1.548,1.748 -0.014,0.18 -1.296,15.433 7.752,24.904 3.541,3.705 8.277,5.649 14.081,5.794 5.804,-0.145 10.54,-2.089 14.081,-5.794 9.048,-9.471 7.767,-24.724 7.753,-24.904 -0.07,-0.897 0.622,-1.68 1.546,-1.748 0.927,-0.071 1.731,0.603 1.801,1.5 C 8.693,-26.566 10.044,-10.525 0,0"
             id="path34"
             style="fill:#b0b5bc;fill-opacity:1;fill-rule:nonzero;stroke:none" /></g><g
           transform="translate(466.046,218.9169)"
           id="g36"><path
             d="M 0,0 -71.651,0 -57.459,-13.734 0,-14.481 57.459,-13.734 71.65,0 0,0 z"
             id="path38"
             style="fill:#ac1e7f;fill-opacity:1;fill-rule:nonzero;stroke:none" /></g><g
           transform="translate(537.6964,209.6447)"
           id="g40"><path
             d="m 0,0 0,9.272 -16.589,-4.655 0,-9.079 L 0,0 z"
             id="path42"
             style="fill:#711d55;fill-opacity:1;fill-rule:nonzero;stroke:none" /></g><g
           transform="translate(521.1072,214.2612)"
           id="g44"><path
             d="M 0,0 0,-7.915 19.906,-3.958 0,0 z"
             id="path46"
             style="fill:#85225d;fill-opacity:1;fill-rule:nonzero;stroke:none" /></g><g
           transform="translate(394.3951,209.6447)"
           id="g48"><path
             d="m 0,0 0,9.272 16.59,-4.655 0,-9.079 L 0,0 z"
             id="path50"
             style="fill:#721d55;fill-opacity:1;fill-rule:nonzero;stroke:none" /></g><g
           transform="translate(410.9847,214.2612)"
           id="g52"><path
             d="M 0,0 0,-7.915 -19.906,-3.958 0,0 z"
             id="path54"
             style="fill:#85225d;fill-opacity:1;fill-rule:nonzero;stroke:none" /></g><g
           transform="translate(541.0128,210.3036)"
           id="g56"><path
             d="m 0,0 -74.967,0 -74.967,0 -1.687,-126.539 76.654,0 76.654,0 L 0,0 z"
             id="path58"
             style="fill:#ffffff;fill-opacity:1;fill-rule:nonzero;stroke:none" /></g><g
           transform="translate(541.0128,210.3036)"
           id="g60"><path
             d="m 0,0 -74.967,0 -74.967,0 -1.687,-126.539 76.654,0 76.654,0 L 0,0 z"
             id="path62"
             style="fill:none;stroke:#231f20;stroke-width:0.75;stroke-linecap:butt;stroke-linejoin:miter;stroke-miterlimit:10;stroke-opacity:1;stroke-dasharray:none" /></g><g
           transform="translate(481.4818,246.5692)"
           id="g64"><path
             d="M 0,0 C -4.257,4.195 -9.449,6.356 -15.436,6.435 -21.422,6.356 -26.615,4.195 -30.872,0 c -13.443,-13.25 -13.143,-39.6 -13.123,-40.83 0.014,-0.891 0.763,-1.604 1.678,-1.604 l 0.025,0 c 0.928,0.014 1.668,0.754 1.654,1.654 -0.004,0.288 -0.296,26.224 12.162,38.497 3.601,3.547 7.988,5.38 13.04,5.459 5.052,-0.079 9.439,-1.912 13.041,-5.459 12.458,-12.273 12.166,-38.209 12.161,-38.497 -0.013,-0.9 0.727,-1.64 1.653,-1.654 l 0.026,0 c 0.916,0 1.664,0.713 1.679,1.604 C 13.143,-39.6 13.444,-13.25 0,0"
             id="path66"
             style="fill:#eff0f2;fill-opacity:1;fill-rule:nonzero;stroke:none" /></g><g
           transform="translate(490.5922,205.4765)"
           id="g68"><path
             d="m 0,0 c 0,-1.344 1.123,-2.433 2.507,-2.433 1.384,0 2.506,1.089 2.506,2.433 0,1.343 -1.122,2.433 -2.506,2.433 C 1.123,2.433 0,1.343 0,0"
             id="path70"
             style="fill:#e4e6ea;fill-opacity:1;fill-rule:nonzero;stroke:none" /></g><g
           transform="translate(441.7451,205.0931)"
           id="g72"><path
             d="m 0,0 c 0,-1.344 -1.122,-2.433 -2.506,-2.433 -1.385,0 -2.507,1.089 -2.507,2.433 0,1.343 1.122,2.433 2.507,2.433 C -1.122,2.433 0,1.343 0,0"
             id="path74"
             style="fill:#e4e6ea;fill-opacity:1;fill-rule:nonzero;stroke:none" /></g><g
           id="g76"><g
             id="g78" /><g
             id="g84"><g
               clip-path="url(#clipPath80)"
               id="g86"
               style="opacity:0.08000183"><g
                 transform="translate(481.4818,246.5692)"
                 id="g88"><path
                   d="M 0,0 C -4.257,4.195 -9.449,6.356 -15.436,6.435 -21.422,6.356 -26.615,4.195 -30.872,0 c -13.443,-13.25 -13.143,-39.6 -13.123,-40.83 0.014,-0.891 0.763,-1.604 1.678,-1.604 l 0.025,0 c 0.928,0.014 1.668,0.754 1.654,1.654 -0.004,0.288 -0.296,26.224 12.162,38.497 3.601,3.547 7.988,5.38 13.04,5.459 5.052,-0.079 9.439,-1.912 13.041,-5.459 12.458,-12.273 12.166,-38.209 12.161,-38.497 -0.013,-0.9 0.727,-1.64 1.653,-1.654 l 0.026,0 c 0.916,0 1.664,0.713 1.679,1.604 C 13.143,-39.6 13.444,-13.25 0,0"
                   id="path90"
                   style="fill:#eff0f2;fill-opacity:1;fill-rule:nonzero;stroke:none" /></g></g></g></g></g></g><g
       id="g92"><g
         clip-path="url(#clipPath96)"
         id="g94"><text
           transform="matrix(1,0,0,-1,393.978,89.5352)"
           id="text100"><tspan
             x="0"
             y="0"
             id="tspan102"
             style="font-size:2.6961px;font-variant:normal;font-weight:normal;font-stretch:normal;writing-mode:lr-tb;fill:#ffffff;fill-opacity:1;fill-rule:nonzero;stroke:none;font-family:Gotham;-inkscape-font-specification:Gotham-Light">4</tspan></text>
<g
           transform="translate(495.9414,120.9042)"
           id="g104"><path
             d="m 0,0 31.735,-47.738 c 0.465,-0.699 0.275,-1.643 -0.425,-2.107 l -40.554,-26.96 c -0.699,-0.464 -1.643,-0.274 -2.107,0.425 l -31.735,47.738 c -0.465,0.699 -0.275,1.642 0.424,2.107 L -2.107,0.424 C -1.408,0.889 -0.465,0.699 0,0"
             id="path106"
             style="fill:#61c67c;fill-opacity:1;fill-rule:nonzero;stroke:none" /></g><g
           transform="translate(495.9414,120.9042)"
           id="g108"><path
             d="m 0,0 31.735,-47.738 c 0.465,-0.699 0.275,-1.643 -0.425,-2.107 l -40.554,-26.96 c -0.699,-0.464 -1.643,-0.274 -2.107,0.425 l -31.735,47.738 c -0.465,0.699 -0.275,1.642 0.424,2.107 L -2.107,0.424 C -1.408,0.889 -0.465,0.699 0,0 z"
             id="path110"
             style="fill:none;stroke:#ffffff;stroke-width:1;stroke-linecap:butt;stroke-linejoin:miter;stroke-miterlimit:10;stroke-opacity:1;stroke-dasharray:none" /></g><g
           transform="translate(507.9974,133.6177)"
           id="g112"><path
             d="m 0,0 56.454,-9.949 c 0.827,-0.146 1.378,-0.934 1.233,-1.761 l -8.452,-47.958 c -0.146,-0.827 -0.934,-1.379 -1.761,-1.234 l -56.454,9.949 c -0.826,0.146 -1.378,0.934 -1.233,1.761 l 8.452,47.959 C -1.615,-0.406 -0.827,0.146 0,0"
             id="path114"
             style="fill:#f48b12;fill-opacity:1;fill-rule:nonzero;stroke:none" /></g><g
           transform="translate(507.9974,133.6177)"
           id="g116"><path
             d="m 0,0 56.454,-9.949 c 0.827,-0.146 1.378,-0.934 1.233,-1.761 l -8.452,-47.958 c -0.146,-0.827 -0.934,-1.379 -1.761,-1.234 l -56.454,9.949 c -0.826,0.146 -1.378,0.934 -1.233,1.761 l 8.452,47.959 C -1.615,-0.406 -0.827,0.146 0,0 z"
             id="path118"
             style="fill:none;stroke:#ffffff;stroke-width:1;stroke-linecap:butt;stroke-linejoin:miter;stroke-miterlimit:10;stroke-opacity:1;stroke-dasharray:none" /></g><g
           transform="translate(431.5538,97.3837)"
           id="g120"><path
             d="m 0,0 -3.455,-44.003 c -0.051,-0.645 -0.614,-1.126 -1.259,-1.075 l -37.381,2.935 c -0.645,0.051 -1.126,0.614 -1.076,1.258 l 3.456,44.004 c 0.05,0.644 0.614,1.125 1.258,1.074 L -1.075,1.258 C -0.431,1.208 0.051,0.644 0,0"
             id="path122"
             style="fill:#86175e;fill-opacity:1;fill-rule:nonzero;stroke:none" /></g><g
           transform="translate(431.5538,97.3837)"
           id="g124"><path
             d="m 0,0 -3.455,-44.003 c -0.051,-0.645 -0.614,-1.126 -1.259,-1.075 l -37.381,2.935 c -0.645,0.051 -1.126,0.614 -1.076,1.258 l 3.456,44.004 c 0.05,0.644 0.614,1.125 1.258,1.074 L -1.075,1.258 C -0.431,1.208 0.051,0.644 0,0 z"
             id="path126"
             style="fill:none;stroke:#ffffff;stroke-width:1;stroke-linecap:butt;stroke-linejoin:miter;stroke-miterlimit:10;stroke-opacity:1;stroke-dasharray:none" /></g><g
           transform="translate(463.5187,142.4247)"
           id="g128"><path
             d="m 0,0 -16.912,-44.56 c -0.248,-0.652 -0.977,-0.98 -1.63,-0.733 l -37.854,14.367 c -0.653,0.248 -0.981,0.978 -0.733,1.63 l 16.912,44.56 c 0.247,0.652 0.977,0.981 1.63,0.733 L -0.733,1.63 C -0.081,1.382 0.248,0.652 0,0"
             id="path130"
             style="fill:#61c67c;fill-opacity:1;fill-rule:nonzero;stroke:none" /></g><g
           transform="translate(463.5187,142.4247)"
           id="g132"><path
             d="m 0,0 -16.912,-44.56 c -0.248,-0.652 -0.977,-0.98 -1.63,-0.733 l -37.854,14.367 c -0.653,0.248 -0.981,0.978 -0.733,1.63 l 16.912,44.56 c 0.247,0.652 0.977,0.981 1.63,0.733 L -0.733,1.63 C -0.081,1.382 0.248,0.652 0,0 z"
             id="path134"
             style="fill:none;stroke:#ffffff;stroke-width:1;stroke-linecap:butt;stroke-linejoin:miter;stroke-miterlimit:10;stroke-opacity:1;stroke-dasharray:none" /></g><g
           transform="translate(495.646,159.8929)"
           id="g136"><path
             d="m 0,0 -53.554,-22.792 c -0.784,-0.334 -1.69,0.031 -2.024,0.815 l -19.363,45.495 c -0.334,0.785 0.032,1.691 0.816,2.025 l 53.554,22.792 c 0.784,0.334 1.69,-0.031 2.024,-0.815 L 0.816,2.024 C 1.149,1.24 0.784,0.334 0,0"
             id="path138"
             style="fill:#86175e;fill-opacity:1;fill-rule:nonzero;stroke:none" /></g><g
           transform="translate(495.646,159.8929)"
           id="g140"><path
             d="m 0,0 -53.554,-22.792 c -0.784,-0.334 -1.69,0.031 -2.024,0.815 l -19.363,45.495 c -0.334,0.785 0.032,1.691 0.816,2.025 l 53.554,22.792 c 0.784,0.334 1.69,-0.031 2.024,-0.815 L 0.816,2.024 C 1.149,1.24 0.784,0.334 0,0 z"
             id="path142"
             style="fill:none;stroke:#ffffff;stroke-width:1;stroke-linecap:butt;stroke-linejoin:miter;stroke-miterlimit:10;stroke-opacity:1;stroke-dasharray:none" /></g><g
           transform="translate(427.9923,92.5096)"
           id="g144"><path
             d="m 0,0 -39.391,-2.334 c -0.577,-0.034 -1.072,0.406 -1.106,0.983 l -1.983,33.464 c -0.034,0.576 0.405,1.072 0.982,1.106 l 39.392,2.334 C -1.53,35.587 -1.034,35.147 -1,34.57 L 0.982,1.106 C 1.017,0.53 0.577,0.034 0,0"
             id="path146"
             style="fill:#70c72d;fill-opacity:1;fill-rule:nonzero;stroke:none" /></g><g
           transform="translate(427.9923,92.5096)"
           id="g148"><path
             d="m 0,0 -39.391,-2.334 c -0.577,-0.034 -1.072,0.406 -1.106,0.983 l -1.983,33.464 c -0.034,0.576 0.405,1.072 0.982,1.106 l 39.392,2.334 C -1.53,35.587 -1.034,35.147 -1,34.57 L 0.982,1.106 C 1.017,0.53 0.577,0.034 0,0 z"
             id="path150"
             style="fill:none;stroke:#ffffff;stroke-width:1;stroke-linecap:butt;stroke-linejoin:miter;stroke-miterlimit:10;stroke-opacity:1;stroke-dasharray:none" /></g><g
           transform="translate(414.2088,123.6424)"
           id="g152"><path
             d="m 0,0 -27.346,13.522 c -0.4,0.198 -0.564,0.683 -0.366,1.083 l 11.487,23.231 c 0.198,0.4 0.683,0.565 1.084,0.367 L 12.204,24.68 c 0.401,-0.197 0.565,-0.682 0.367,-1.083 L 1.084,0.366 C 0.885,-0.034 0.4,-0.198 0,0"
             id="path154"
             style="fill:#f48b12;fill-opacity:1;fill-rule:nonzero;stroke:none" /></g><g
           transform="translate(414.2088,123.6424)"
           id="g156"><path
             d="m 0,0 -27.346,13.522 c -0.4,0.198 -0.564,0.683 -0.366,1.083 l 11.487,23.231 c 0.198,0.4 0.683,0.565 1.084,0.367 L 12.204,24.68 c 0.401,-0.197 0.565,-0.682 0.367,-1.083 L 1.084,0.366 C 0.885,-0.034 0.4,-0.198 0,0 z"
             id="path158"
             style="fill:none;stroke:#ffffff;stroke-width:1;stroke-linecap:butt;stroke-linejoin:miter;stroke-miterlimit:10;stroke-opacity:1;stroke-dasharray:none" /></g><g
           transform="translate(441.3596,146.0491)"
           id="g160"><path
             d="m 0,0 65.369,35.011 c 0.957,0.512 2.149,0.152 2.661,-0.805 l 29.743,-55.533 c 0.513,-0.957 0.152,-2.148 -0.805,-2.661 L 31.599,-58.999 c -0.957,-0.513 -2.149,-0.152 -2.661,0.805 L -0.805,-2.661 C -1.318,-1.704 -0.957,-0.513 0,0"
             id="path162"
             style="fill:#70c72d;fill-opacity:1;fill-rule:nonzero;stroke:none" /></g><g
           transform="translate(441.3596,146.0491)"
           id="g164"><path
             d="m 0,0 65.369,35.011 c 0.957,0.512 2.149,0.152 2.661,-0.805 l 29.743,-55.533 c 0.513,-0.957 0.152,-2.148 -0.805,-2.661 L 31.599,-58.999 c -0.957,-0.513 -2.149,-0.152 -2.661,0.805 L -0.805,-2.661 C -1.318,-1.704 -0.957,-0.513 0,0 z"
             id="path166"
             style="fill:none;stroke:#ffffff;stroke-width:1;stroke-linecap:butt;stroke-linejoin:miter;stroke-miterlimit:10;stroke-opacity:1;stroke-dasharray:none" /></g><g
           transform="translate(365.5525,141.1007)"
           id="g168"><path
             d="m 0,0 47.156,-9.31 c 0.69,-0.136 1.139,-0.807 1.003,-1.497 l -7.909,-40.06 c -0.136,-0.691 -0.807,-1.14 -1.497,-1.004 l -47.156,9.311 c -0.69,0.136 -1.14,0.806 -1.003,1.497 l 7.909,40.06 C -1.361,-0.313 -0.69,0.136 0,0"
             id="path170"
             style="fill:#61c67c;fill-opacity:1;fill-rule:nonzero;stroke:none" /></g><g
           transform="translate(365.5525,141.1007)"
           id="g172"><path
             d="m 0,0 47.156,-9.31 c 0.69,-0.136 1.139,-0.807 1.003,-1.497 l -7.909,-40.06 c -0.136,-0.691 -0.807,-1.14 -1.497,-1.004 l -47.156,9.311 c -0.69,0.136 -1.14,0.806 -1.003,1.497 l 7.909,40.06 C -1.361,-0.313 -0.69,0.136 0,0 z"
             id="path174"
             style="fill:none;stroke:#ffffff;stroke-width:1;stroke-linecap:butt;stroke-linejoin:miter;stroke-miterlimit:10;stroke-opacity:1;stroke-dasharray:none" /></g><g
           transform="translate(440.9701,128.7622)"
           id="g176"><path
             d="m 0,0 42.911,-24.542 c 0.628,-0.36 0.846,-1.16 0.487,-1.789 L 22.549,-62.785 c -0.36,-0.628 -1.16,-0.846 -1.789,-0.486 l -42.911,24.542 c -0.628,0.359 -0.846,1.16 -0.487,1.788 l 20.85,36.454 C -1.429,0.141 -0.628,0.359 0,0"
             id="path178"
             style="fill:#f48b12;fill-opacity:1;fill-rule:nonzero;stroke:none" /></g><g
           transform="translate(440.9701,128.7622)"
           id="g180"><path
             d="m 0,0 42.911,-24.542 c 0.628,-0.36 0.846,-1.16 0.487,-1.789 L 22.549,-62.785 c -0.36,-0.628 -1.16,-0.846 -1.789,-0.486 l -42.911,24.542 c -0.628,0.359 -0.846,1.16 -0.487,1.788 l 20.85,36.454 C -1.429,0.141 -0.628,0.359 0,0 z"
             id="path182"
             style="fill:none;stroke:#ffffff;stroke-width:1;stroke-linecap:butt;stroke-linejoin:miter;stroke-miterlimit:10;stroke-opacity:1;stroke-dasharray:none" /></g><g
           transform="translate(495.9414,120.9042)"
           id="g184"><path
             d="m 0,0 31.735,-47.738 c 0.465,-0.699 0.275,-1.643 -0.425,-2.107 l -40.554,-26.96 c -0.699,-0.464 -1.643,-0.274 -2.107,0.425 l -31.735,47.738 c -0.465,0.699 -0.275,1.642 0.424,2.107 L -2.107,0.424 C -1.408,0.889 -0.465,0.699 0,0 m 0,0 31.735,-47.738 c 0.465,-0.699 0.275,-1.643 -0.425,-2.107 l -40.554,-26.96 c -0.699,-0.464 -1.643,-0.274 -2.107,0.425 l -31.735,47.738 c -0.465,0.699 -0.275,1.642 0.424,2.107 L -2.107,0.424 C -1.408,0.889 -0.465,0.699 0,0 z M 12.056,12.713 68.51,2.764 c 0.827,-0.145 1.378,-0.934 1.233,-1.76 l -8.452,-47.959 c -0.146,-0.827 -0.934,-1.379 -1.761,-1.233 l -56.454,9.949 c -0.826,0.145 -1.378,0.934 -1.232,1.76 l 8.452,47.959 c 0.145,0.827 0.933,1.379 1.76,1.233 m 0,0 56.454,-9.949 c 0.827,-0.145 1.378,-0.934 1.233,-1.76 l -8.452,-47.959 c -0.146,-0.827 -0.934,-1.379 -1.761,-1.233 l -56.454,9.949 c -0.826,0.145 -1.378,0.934 -1.232,1.76 l 8.452,47.959 c 0.145,0.827 0.933,1.379 1.76,1.233 z m -76.444,-36.234 -3.455,-44.003 c -0.05,-0.644 -0.614,-1.126 -1.258,-1.075 l -37.382,2.935 c -0.644,0.051 -1.126,0.614 -1.075,1.259 l 3.455,44.003 c 0.051,0.644 0.614,1.126 1.258,1.075 l 37.382,-2.935 c 0.644,-0.051 1.126,-0.614 1.075,-1.259 m 0,0 -3.455,-44.003 c -0.05,-0.644 -0.614,-1.126 -1.258,-1.075 l -37.382,2.935 c -0.644,0.051 -1.126,0.614 -1.075,1.259 l 3.455,44.003 c 0.051,0.644 0.614,1.126 1.258,1.075 l 37.382,-2.935 c 0.644,-0.051 1.126,-0.614 1.075,-1.259 z m 45.658,-27.363 -11.738,-30.927 c -0.172,-0.453 -0.678,-0.681 -1.131,-0.508 l -26.273,9.971 c -0.452,0.172 -0.68,0.678 -0.509,1.131 l 11.738,30.927 c 0.172,0.453 0.678,0.68 1.131,0.509 l 26.273,-9.972 c 0.453,-0.172 0.681,-0.678 0.509,-1.131 m 0,0 -11.738,-30.927 c -0.172,-0.453 -0.678,-0.681 -1.131,-0.508 l -26.273,9.971 c -0.452,0.172 -0.68,0.678 -0.509,1.131 l 11.738,30.927 c 0.172,0.453 0.678,0.68 1.131,0.509 l 26.273,-9.972 c 0.453,-0.172 0.681,-0.678 0.509,-1.131 z M -32.423,21.52 -49.335,-23.039 c -0.247,-0.653 -0.977,-0.981 -1.629,-0.733 l -37.855,14.367 c -0.653,0.247 -0.981,0.977 -0.733,1.63 l 16.912,44.559 c 0.248,0.653 0.977,0.981 1.63,0.733 L -33.156,23.15 c 0.653,-0.248 0.981,-0.977 0.733,-1.63 m 0,0 -16.912,-44.559 c -0.247,-0.653 -0.977,-0.981 -1.629,-0.733 l -37.855,14.367 c -0.653,0.247 -0.981,0.977 -0.733,1.63 l 16.912,44.559 c 0.248,0.653 0.977,0.981 1.63,0.733 L -33.156,23.15 c 0.653,-0.248 0.981,-0.977 0.733,-1.63 z M -0.296,38.989 -53.849,16.196 c -0.784,-0.334 -1.691,0.031 -2.025,0.816 l -19.362,45.495 c -0.334,0.784 0.031,1.691 0.815,2.024 l 53.554,22.793 c 0.784,0.334 1.691,-0.031 2.024,-0.816 L 0.52,41.013 C 0.854,40.229 0.489,39.322 -0.296,38.989 m 0,0 -53.553,-22.793 c -0.784,-0.334 -1.691,0.031 -2.025,0.816 l -19.362,45.495 c -0.334,0.784 0.031,1.691 0.815,2.024 l 53.554,22.793 c 0.784,0.334 1.691,-0.031 2.024,-0.816 L 0.52,41.013 C 0.854,40.229 0.489,39.322 -0.296,38.989 z m -67.653,-67.384 -39.392,-2.333 c -0.576,-0.035 -1.072,0.405 -1.106,0.982 l -1.982,33.464 c -0.035,0.577 0.405,1.072 0.982,1.106 l 39.391,2.334 c 0.577,0.034 1.073,-0.406 1.107,-0.983 l 1.982,-33.463 c 0.035,-0.577 -0.405,-1.072 -0.982,-1.107 m 0,0 -39.392,-2.333 c -0.576,-0.035 -1.072,0.405 -1.106,0.982 l -1.982,33.464 c -0.035,0.577 0.405,1.072 0.982,1.106 l 39.391,2.334 c 0.577,0.034 1.073,-0.406 1.107,-0.983 l 1.982,-33.463 c 0.035,-0.577 -0.405,-1.072 -0.982,-1.107 z M -81.733,2.738 -109.078,16.26 c -0.4,0.198 -0.565,0.683 -0.366,1.084 l 11.487,23.23 c 0.198,0.401 0.683,0.565 1.083,0.367 l 27.346,-13.522 c 0.4,-0.198 0.564,-0.683 0.366,-1.084 L -80.649,3.105 C -80.847,2.704 -81.332,2.54 -81.733,2.738 m 0,0 -27.345,13.522 c -0.4,0.198 -0.565,0.683 -0.366,1.084 l 11.487,23.23 c 0.198,0.401 0.683,0.565 1.083,0.367 l 27.346,-13.522 c 0.4,-0.198 0.564,-0.683 0.366,-1.084 L -80.649,3.105 C -80.847,2.704 -81.332,2.54 -81.733,2.738 z m 28.988,-76.762 -27.345,13.522 c -0.401,0.198 -0.565,0.683 -0.367,1.083 l 11.488,23.231 c 0.198,0.4 0.683,0.565 1.083,0.367 l 27.346,-13.522 c 0.4,-0.198 0.564,-0.684 0.366,-1.084 l -11.487,-23.231 c -0.198,-0.4 -0.683,-0.564 -1.084,-0.366 m 0,0 -27.345,13.522 c -0.401,0.198 -0.565,0.683 -0.367,1.083 l 11.488,23.231 c 0.198,0.4 0.683,0.565 1.083,0.367 l 27.346,-13.522 c 0.4,-0.198 0.564,-0.684 0.366,-1.084 l -11.487,-23.231 c -0.198,-0.4 -0.683,-0.564 -1.084,-0.366 z m -1.837,99.169 65.369,35.011 c 0.957,0.512 2.149,0.152 2.662,-0.805 L 43.191,3.818 C 43.704,2.861 43.343,1.669 42.386,1.157 l -65.369,-35.011 c -0.957,-0.513 -2.149,-0.152 -2.661,0.805 l -29.743,55.532 c -0.512,0.958 -0.152,2.149 0.805,2.662 m 0,0 65.369,35.011 c 0.957,0.512 2.149,0.152 2.662,-0.805 L 43.191,3.818 C 43.704,2.861 43.343,1.669 42.386,1.157 l -65.369,-35.011 c -0.957,-0.513 -2.149,-0.152 -2.661,0.805 l -29.743,55.532 c -0.512,0.958 -0.152,2.149 0.805,2.662 z m -75.807,-4.949 47.156,-9.31 c 0.69,-0.136 1.139,-0.806 1.003,-1.497 l -7.909,-40.059 c -0.136,-0.691 -0.806,-1.14 -1.497,-1.004 l -47.156,9.31 c -0.69,0.136 -1.139,0.807 -1.003,1.497 l 7.909,40.06 c 0.136,0.69 0.807,1.14 1.497,1.003 m 0,0 47.156,-9.31 c 0.69,-0.136 1.139,-0.806 1.003,-1.497 l -7.909,-40.059 c -0.136,-0.691 -0.806,-1.14 -1.497,-1.004 l -47.156,9.31 c -0.69,0.136 -1.139,0.807 -1.003,1.497 l 7.909,40.06 c 0.136,0.69 0.807,1.14 1.497,1.003 z M -54.971,7.858 -12.06,-16.684 c 0.628,-0.36 0.846,-1.16 0.487,-1.789 l -20.85,-36.454 c -0.359,-0.628 -1.16,-0.846 -1.788,-0.486 l -42.911,24.542 c -0.628,0.359 -0.846,1.16 -0.487,1.788 L -56.76,7.371 c 0.36,0.628 1.16,0.846 1.789,0.487 m 0,0 42.911,-24.542 c 0.628,-0.36 0.846,-1.16 0.487,-1.789 l -20.85,-36.454 c -0.359,-0.628 -1.16,-0.846 -1.788,-0.486 l -42.911,24.542 c -0.628,0.359 -0.846,1.16 -0.487,1.788 L -56.76,7.371 c 0.36,0.628 1.16,0.846 1.789,0.487 z"
             id="path186"
             style="fill:none;stroke:#ffffff;stroke-width:1;stroke-linecap:butt;stroke-linejoin:miter;stroke-miterlimit:10;stroke-opacity:1;stroke-dasharray:none" /></g></g></g><g
       id="g188"><g
         clip-path="url(#clipPath192)"
         id="g190"><g
           transform="translate(568.1942,147.5803)"
           id="g196"><path
             d="m 0,0 c 0,2.641 1.776,6.772 11.002,6.772 7.926,0 11.59,-2.869 13.131,-2.869 2.836,0 6.505,6.889 6.505,9.987 0,3.79 -8.754,8.039 -21.292,8.039 -13.839,0 -28.034,-6.66 -28.034,-23.537 0,-26.981 34.187,-21.699 34.187,-35.248 0,-6.889 -6.033,-8.38 -11.118,-8.38 -9.466,0 -15.263,5.281 -17.388,5.281 -2.488,0 -7.341,-6.66 -7.341,-10.221 0,-3.902 9.822,-10.104 27.801,-10.104 12.895,0 26.734,6.431 26.734,25.49 C 34.187,-7.805 0,-13.09 0,0"
             id="path198"
             style="fill:#d82f30;fill-opacity:1;fill-rule:nonzero;stroke:none" /></g><g
           transform="translate(761.3656,168.8198)"
           id="g200"><path
             d="m 0,0 -6.153,0 c -3.429,0 -6.15,-0.804 -7.45,-3.099 l -21.056,-35.936 -20.82,35.936 C -56.779,-0.804 -59.5,0 -62.929,0 l -6.273,0 c -4.965,0 -7.093,-1.262 -7.093,-3.674 l 0,-73.483 c 0,-2.411 2.128,-3.669 7.093,-3.669 l 3.437,0 c 4.965,0 7.093,1.258 7.093,3.669 l 0,47.535 0.476,0.117 17.152,-29.738 c 1.064,-1.379 2.484,-2.183 4.729,-2.183 l 3.432,0 c 2.249,0 3.665,0.804 4.729,2.183 l 17.152,29.738 0.476,-0.117 0,-47.535 c 0,-2.411 2.124,-3.669 7.097,-3.669 l 3.429,0 c 4.969,0 7.097,1.258 7.097,3.669 l 0,73.483 C 7.097,-1.262 4.969,0 0,0"
             id="path202"
             style="fill:#d82f30;fill-opacity:1;fill-rule:nonzero;stroke:none" /></g><g
           transform="translate(676.5518,92.5844)"
           id="g204"><path
             d="m 0,0 -26.025,73.825 c -0.708,1.836 -3.309,2.411 -6.742,2.411 l -6.153,0 c -3.428,0 -6.029,-0.575 -6.741,-2.411 L -71.682,0 c -0.24,-0.804 -0.476,-1.495 -0.476,-2.066 0,-1.608 2.244,-2.528 7.217,-2.528 l 4.733,0 c 2.837,0 4.849,0.691 5.441,2.412 l 4.733,14.006 22.885,0 -4.657,15.157 -13.143,0 6.977,20.437 c 0.713,1.954 1.773,7.348 1.773,7.348 l 0.476,0 c 0,0 1.184,-5.856 1.772,-7.348 l 16.56,-49.6 c 0.596,-1.837 3.196,-2.412 6.629,-2.412 l 5.201,0 c 4.141,0 5.913,0.92 5.913,2.528 C 0.352,-1.495 0.236,-0.804 0,0"
             id="path206"
             style="fill:#d82f30;fill-opacity:1;fill-rule:nonzero;stroke:none" /></g><g
           transform="translate(916.2109,92.5844)"
           id="g208"><path
             d="m 0,0 -26.021,73.825 c -0.712,1.836 -3.317,2.411 -6.746,2.411 l -6.149,0 c -3.428,0 -6.033,-0.575 -6.745,-2.411 L -71.682,0 c -0.236,-0.804 -0.476,-1.495 -0.476,-2.066 0,-1.608 2.252,-2.528 7.217,-2.528 l 4.733,0 c 2.841,0 4.849,0.691 5.441,2.412 l 4.733,14.006 22.773,0 -4.657,15.157 -13.031,0 6.977,20.437 c 0.709,1.954 1.777,7.348 1.777,7.348 l 0.472,0 c 0,0 1.184,-5.856 1.776,-7.348 l 16.559,-49.6 c 0.593,-1.837 3.197,-2.412 6.622,-2.412 l 5.209,0 c 4.141,0 5.913,0.92 5.913,2.528 C 0.356,-1.495 0.236,-0.804 0,0"
             id="path210"
             style="fill:#d82f30;fill-opacity:1;fill-rule:nonzero;stroke:none" /></g><g
           transform="translate(814.3625,168.5896)"
           id="g212"><path
             d="m 0,0 -24.841,0 c -3.317,0 -4.733,-1.375 -4.733,-4.59 l 0,-72.334 c 0,-2.411 2.129,-3.673 7.097,-3.673 l 4.025,0 c 4.965,0 7.098,1.262 7.098,3.673 l 0,61.884 10.526,0 c 4.497,0 10.294,-1.837 10.294,-10.104 0,-8.264 -5.797,-9.988 -10.294,-9.988 l -5.433,0 0,-15.156 7.445,0 c 6.386,0 26.97,2.986 26.97,25.144 C 28.154,-2.982 10.526,0 0,0"
             id="path214"
             style="fill:#d82f30;fill-opacity:1;fill-rule:nonzero;stroke:none" /></g></g></g><text
       transform="matrix(1,0,0,-0.97061741,552.6812,181.5322)"
       id="text216"><tspan
         x="0 27.184103 53.397343 65.047676 92.439819 102.8419 129.95665 153.18796 163.59004 188.48222 217.95479 248.05147 271.21344 296.28244 323.32785"
         y="0"
         id="tspan218"
         style="font-size:34.67359924px;font-variant:normal;font-weight:bold;font-stretch:normal;writing-mode:lr-tb;fill:#4c5355;fill-opacity:1;fill-rule:nonzero;stroke:none;font-family:Gotham;-inkscape-font-specification:Gotham-Bold">GUIA DE COMPRAS</tspan></text>
</g></svg>