<?xml version="1.0" encoding="UTF-8" standalone="no"?>
<!-- Created with Inkscape (http://www.inkscape.org/) -->

<svg
   xmlns:dc="http://purl.org/dc/elements/1.1/"
   xmlns:cc="http://creativecommons.org/ns#"
   xmlns:rdf="http://www.w3.org/1999/02/22-rdf-syntax-ns#"
   xmlns:svg="http://www.w3.org/2000/svg"
   xmlns="http://www.w3.org/2000/svg"
   xmlns:sodipodi="http://sodipodi.sourceforge.net/DTD/sodipodi-0.dtd"
   xmlns:inkscape="http://www.inkscape.org/namespaces/inkscape"
   id="svg2"
   version="1.1"
   inkscape:version="0.48.4 r9939"
   width="427.49496"
   height="138.36519"
   xml:space="preserve"
   sodipodi:docname="Logo_CircuitoDeComprasP_SVG_Curvas.svg"><metadata
     id="metadata8"><rdf:RDF><cc:Work
         rdf:about=""><dc:format>image/svg+xml</dc:format><dc:type
           rdf:resource="http://purl.org/dc/dcmitype/StillImage" /></cc:Work></rdf:RDF></metadata><defs
     id="defs6"><clipPath
       clipPathUnits="userSpaceOnUse"
       id="clipPath32"><path
         d="M 0,60 140,60 140,0 0,0 0,60 z"
         id="path34"
         inkscape:connector-curvature="0" /></clipPath></defs><sodipodi:namedview
     pagecolor="#ffffff"
     bordercolor="#666666"
     borderopacity="1"
     objecttolerance="10"
     gridtolerance="10"
     guidetolerance="10"
     inkscape:pageopacity="0"
     inkscape:pageshadow="2"
     inkscape:window-width="1301"
     inkscape:window-height="744"
     id="namedview4"
     showgrid="false"
     fit-margin-top="0"
     fit-margin-left="0"
     fit-margin-right="0"
     fit-margin-bottom="0"
     inkscape:zoom="1.26"
     inkscape:cx="299.40331"
     inkscape:cy="131.61532"
     inkscape:window-x="65"
     inkscape:window-y="336"
     inkscape:window-maximized="1"
     inkscape:current-layer="text12" /><g
     id="g10"
     inkscape:groupmode="layer"
     inkscape:label="Logo_CircuitoDeCompras"
     transform="matrix(1.25,0,0,-1.25,-3.0822499,65.278374)"><g
       transform="matrix(1,0,0,-1,43.5361,28.2969)"
       id="text12"><path
         d="m 79.486146,38.12679 c 4.437277,0 7.364001,-1.982617 9.818665,-4.767717 L 87.699837,31.94292 c -2.029819,2.265843 -4.673311,4.012435 -8.072076,4.012435 -5.522993,0 -9.913075,-4.626108 -9.913075,-10.432332 l 0,-0.09441 c 0,-5.759019 4.248466,-10.337921 9.724255,-10.337921 3.587585,0 5.947847,1.841002 8.02487,3.96523 l 1.652179,-1.699385 c -2.265843,-2.360254 -5.098157,-4.437282 -9.629844,-4.437282 -6.891941,0 -12.273331,5.853442 -12.273331,12.603767 l 0,0.09441 c 0,6.750325 5.334185,12.509356 12.273331,12.509356"
         style="font-size:18.36870003px;font-variant:normal;font-weight:normal;font-stretch:normal;writing-mode:lr-tb;fill:#231f20;fill-opacity:1;fill-rule:nonzero;stroke:none;font-family:Gotham;-inkscape-font-specification:Gotham-Light"
         id="path3061"
         inkscape:connector-curvature="0" /><path
         d="m 94.686194,7.2074372 2.879513,0 0,-3.1627433 -2.879513,0 0,3.1627433 m 0.283231,30.3528918 2.313052,0 0,-24.074611 -2.313052,0 0,24.074611"
         style="font-size:18.36870003px;font-variant:normal;font-weight:normal;font-stretch:normal;writing-mode:lr-tb;fill:#231f20;fill-opacity:1;fill-rule:nonzero;stroke:none;font-family:Gotham;-inkscape-font-specification:Gotham-Light"
         id="path3063"
         inkscape:connector-curvature="0" /><path
         d="m 105.21294,37.560329 2.31305,0 0,-9.86587 c 0,-7.836042 4.86213,-12.037306 10.43233,-12.037306 l 0.23601,0 0,-2.549076 c -4.76771,-0.188821 -8.78015,2.926722 -10.66835,7.222383 l 0,-6.844742 -2.31305,0 0,24.074611"
         style="font-size:18.36870003px;font-variant:normal;font-weight:normal;font-stretch:normal;writing-mode:lr-tb;fill:#231f20;fill-opacity:1;fill-rule:nonzero;stroke:none;font-family:Gotham;-inkscape-font-specification:Gotham-Light"
         id="path3065"
         inkscape:connector-curvature="0" /><path
         d="m 133.53601,38.12679 c 4.43727,0 7.364,-1.982617 9.81866,-4.767717 L 141.7497,31.94292 c -2.02982,2.265843 -4.67331,4.012435 -8.07208,4.012435 -5.52299,0 -9.91307,-4.626108 -9.91307,-10.432332 l 0,-0.09441 c 0,-5.759019 4.24847,-10.337921 9.72425,-10.337921 3.58759,0 5.94785,1.841002 8.02487,3.96523 l 1.65218,-1.699384 c -2.26584,-2.360254 -5.09815,-4.437282 -9.62984,-4.437282 -6.89194,0 -12.27333,5.853442 -12.27333,12.603767 l 0,0.09441 c 0,6.750325 5.33418,12.509356 12.27333,12.509356"
         style="font-size:18.36870003px;font-variant:normal;font-weight:normal;font-stretch:normal;writing-mode:lr-tb;fill:#231f20;fill-opacity:1;fill-rule:nonzero;stroke:none;font-family:Gotham;-inkscape-font-specification:Gotham-Light"
         id="path3067"
         inkscape:connector-curvature="0" /><path
         d="m 157.84665,38.12679 c 4.39007,0 7.08076,-2.218643 8.68574,-5.050947 l 0,4.484486 2.31305,0 0,-24.074611 -2.31305,0 0,13.92551 c 0,5.003738 -3.6348,8.591332 -8.35531,8.591332 -4.86212,0 -7.64723,-3.257158 -7.64723,-8.213691 l 0,-14.303151 -2.31305,0 0,14.727997 c 0,5.759019 3.54039,9.913075 9.62985,9.913075"
         style="font-size:18.36870003px;font-variant:normal;font-weight:normal;font-stretch:normal;writing-mode:lr-tb;fill:#231f20;fill-opacity:1;fill-rule:nonzero;stroke:none;font-family:Gotham;-inkscape-font-specification:Gotham-Light"
         id="path3069"
         inkscape:connector-curvature="0" /><path
         d="m 176.49266,7.2074372 2.87952,0 0,-3.1627433 -2.87952,0 0,3.1627433 m 0.28324,30.3528918 2.31305,0 0,-24.074611 -2.31305,0 0,24.074611"
         style="font-size:18.36870003px;font-variant:normal;font-weight:normal;font-stretch:normal;writing-mode:lr-tb;fill:#231f20;fill-opacity:1;fill-rule:nonzero;stroke:none;font-family:Gotham;-inkscape-font-specification:Gotham-Light"
         id="path3071"
         inkscape:connector-curvature="0" /><path
         d="m 195.04428,37.985175 c 1.51056,0 2.69069,-0.283231 3.91802,-0.849692 l 0,-2.171436 c -1.36894,0.613666 -2.36025,0.849693 -3.54038,0.849693 -2.7851,0 -4.81492,-1.227337 -4.81492,-4.673307 l 0,-15.530485 8.44972,0 0,-2.12423 -8.44972,0 0,-7.6944344 -2.31305,0 0,7.6944344 -3.49318,0 0,2.12423 3.49318,0 0,15.76651 c 0,4.578892 3.02113,6.608717 6.75033,6.608717"
         style="font-size:18.36870003px;font-variant:normal;font-weight:normal;font-stretch:normal;writing-mode:lr-tb;fill:#231f20;fill-opacity:1;fill-rule:nonzero;stroke:none;font-family:Gotham;-inkscape-font-specification:Gotham-Light"
         id="path3073"
         inkscape:connector-curvature="0" /><path
         d="m 215.38969,38.12679 c 7.17517,0 12.41495,-5.853441 12.41495,-12.603767 l 0,-0.09441 c 0,-6.750325 -5.19257,-12.509357 -12.32054,-12.509357 -7.17517,0 -12.41495,5.853442 -12.41495,12.603767 l 0,0.09441 c 0,6.750325 5.19257,12.509356 12.32054,12.509356 m 0.0944,-2.171435 c -5.5702,0 -9.91308,-4.626108 -9.91308,-10.432332 l 0,-0.09441 c 0,-5.664608 4.10685,-10.337921 9.81866,-10.337921 5.5702,0 9.91308,4.626107 9.91308,10.432331 l 0,0.09441 c 0,5.664608 -4.10685,10.337921 -9.81866,10.337921"
         style="font-size:18.36870003px;font-variant:normal;font-weight:normal;font-stretch:normal;writing-mode:lr-tb;fill:#231f20;fill-opacity:1;fill-rule:nonzero;stroke:none;font-family:Gotham;-inkscape-font-specification:Gotham-Light"
         id="path3075"
         inkscape:connector-curvature="0" /><path
         d="m 256.88299,38.12679 c 4.76772,0 7.83606,-2.785105 9.91308,-5.947845 l 0,5.381384 2.31305,0 0,-34.4597375 -2.31305,0 0,15.5776895 c -1.98262,-3.021125 -5.09816,-5.759025 -9.91308,-5.759025 -5.80622,0 -11.70687,4.767725 -11.70687,12.603767 l 0,0.09441 c 0,7.836042 5.90065,12.509356 11.70687,12.509356 m 0.23602,-2.21864 c -5.05094,0 -9.44102,-4.059647 -9.44102,-10.385127 l 0,-0.09441 c 0,-6.467095 4.20126,-10.290716 9.44102,-10.290716 5.00374,0 9.81866,4.154057 9.81866,10.337921 l 0,0.09441 c 0,6.136659 -4.81492,10.337921 -9.81866,10.337921"
         style="font-size:18.36870003px;font-variant:normal;font-weight:normal;font-stretch:normal;writing-mode:lr-tb;fill:#231f20;fill-opacity:1;fill-rule:nonzero;stroke:none;font-family:Gotham;-inkscape-font-specification:Gotham-Light"
         id="path3077"
         inkscape:connector-curvature="0" /><path
         d="m 286.85824,38.12679 c 4.6261,0 7.50562,-1.888207 9.96028,-4.531691 l -1.60497,-1.416154 c -1.98261,2.124229 -4.5317,3.77641 -8.2609,3.77641 -4.7205,0 -9.01618,-3.493185 -9.44102,-9.488229 l 19.96776,0 c 0.0472,-0.377641 0.0472,-0.519257 0.0472,-0.944103 0,-7.127965 -4.29567,-12.603767 -11.046,-12.603767 -6.5143,0 -11.42363,5.570212 -11.42363,12.556562 l 0,0.09441 c 0,7.505606 5.47579,12.556561 11.80128,12.556561 M 277.51163,24.3901 c 0.42485,-5.334174 4.10685,-9.346614 8.87456,-9.346614 5.523,0 8.30811,4.484491 8.63854,9.346614 l -17.5131,0"
         style="font-size:18.36870003px;font-variant:normal;font-weight:normal;font-stretch:normal;writing-mode:lr-tb;fill:#231f20;fill-opacity:1;fill-rule:nonzero;stroke:none;font-family:Gotham;-inkscape-font-specification:Gotham-Light"
         id="path3079"
         inkscape:connector-curvature="0" /></g><g
       transform="matrix(2.5305046,0,0,-2.5698672,108.01359,-51.435464)"
       id="text16"><path
         d="m 7.5826127,0.2208528 c 2.4845913,0 3.9569473,-0.88341261 5.2820633,-2.30055 l -1.803632,-1.8220356 c -1.012241,0.9202191 -1.9140587,1.5091608 -3.3864093,1.5091608 -2.2085257,0 -3.7360931,-1.8404422 -3.7360931,-4.048968 l 0,-0.036809 c 0,-2.2085257 1.5643761,-4.012159 3.7360931,-4.012159 1.2883067,0 2.300551,0.5521328 3.2943873,1.4539475 l 1.803632,-2.0796975 c -1.196285,-1.17788 -2.650236,-1.987675 -5.0796149,-1.987675 -3.956942,0 -6.71760591,2.999921 -6.71760591,6.6623928 l 0,0.036809 c 0,3.6992807 2.81587701,6.625584 6.60717951,6.625584"
         style="font-size:18.40439987px;font-variant:normal;font-weight:bold;font-stretch:normal;writing-mode:lr-tb;fill:#e31d25;fill-opacity:1;fill-rule:nonzero;stroke:none;font-family:Gotham;-inkscape-font-specification:Gotham-Bold"
         id="path3082"
         inkscape:connector-curvature="0" /><path
         d="m 20.925803,0.2208528 c 3.975346,0 6.864841,-2.9999208 6.864841,-6.6623928 l 0,-0.036809 c 0,-3.662472 -2.852686,-6.625584 -6.828032,-6.625584 -3.975347,0 -6.864841,2.999921 -6.864841,6.6623928 l 0,0.036809 c 0,3.662472 2.852685,6.625584 6.828032,6.625584 m 0.03681,-2.6134248 c -2.282144,0 -3.901733,-1.8404422 -3.901733,-4.048968 l 0,-0.036809 c 0,-2.2085257 1.582781,-4.012159 3.864924,-4.012159 2.282143,0 3.901733,1.8404421 3.901733,4.0489678 l 0,0.036809 c 0,2.2085258 -1.582781,4.0121592 -3.864924,4.0121592"
         style="font-size:18.40439987px;font-variant:normal;font-weight:bold;font-stretch:normal;writing-mode:lr-tb;fill:#e31d25;fill-opacity:1;fill-rule:nonzero;stroke:none;font-family:Gotham;-inkscape-font-specification:Gotham-Bold"
         id="path3084"
         inkscape:connector-curvature="0" /><path
         d="m 29.851937,0 2.779064,0 0,-8.3555975 3.588858,5.4477023 0.07362,0 3.625667,-5.5029155 0,8.4108107 2.815873,0 0,-12.88308 -3.055131,0 -3.386409,5.4477025 -3.38641,-5.4477025 -3.05513,0 0,12.88308"
         style="font-size:18.40439987px;font-variant:normal;font-weight:bold;font-stretch:normal;writing-mode:lr-tb;fill:#e31d25;fill-opacity:1;fill-rule:nonzero;stroke:none;font-family:Gotham;-inkscape-font-specification:Gotham-Bold"
         id="path3086"
         inkscape:connector-curvature="0" /><path
         d="m 45.366847,0 2.834277,0 0,-3.864924 2.153315,0 c 2.889488,0 5.208445,-1.5459725 5.208445,-4.5274823 l 0,-0.036809 c 0,-2.6318267 -1.858847,-4.4538647 -4.932379,-4.4538647 l -5.263658,0 0,12.8830798 m 2.834277,-6.3863268 0,-3.938541 2.190124,0 c 1.417137,0 2.30055,0.6809635 2.30055,1.9508659 l 0,0.036809 c 0,1.1042628 -0.8282,1.9508663 -2.245337,1.9508663 l -2.245337,0"
         style="font-size:18.40439987px;font-variant:normal;font-weight:bold;font-stretch:normal;writing-mode:lr-tb;fill:#e31d25;fill-opacity:1;fill-rule:nonzero;stroke:none;font-family:Gotham;-inkscape-font-specification:Gotham-Bold"
         id="path3088"
         inkscape:connector-curvature="0" /><path
         d="m 57.200877,0 2.834277,0 0,-4.1225856 2.190124,0 0.03681,0 L 65.022747,0 68.335539,0 65.188386,-4.6011 c 1.63799,-0.6073446 2.76066,-1.9140596 2.76066,-3.9937547 l 0,-0.036809 c 0,-1.2146892 -0.386493,-2.2269333 -1.104264,-2.9447043 -0.846601,-0.846601 -2.116507,-1.306712 -3.754497,-1.306712 l -5.889408,0 0,12.8830798 m 2.834277,-6.625584 0,-3.6992838 2.815874,0 c 1.380328,0 2.226932,0.6257503 2.226932,1.8404395 l 0,0.036809 c 0,1.0858585 -0.791391,1.8220355 -2.171719,1.8220355 l -2.871087,0"
         style="font-size:18.40439987px;font-variant:normal;font-weight:bold;font-stretch:normal;writing-mode:lr-tb;fill:#e31d25;fill-opacity:1;fill-rule:nonzero;stroke:none;font-family:Gotham;-inkscape-font-specification:Gotham-Bold"
         id="path3090"
         inkscape:connector-curvature="0" /><path
         d="m 68.942881,0 2.88949,0 1.177882,-2.8894908 5.447702,0 L 79.635837,0 l 2.963108,0 -5.52132,-12.975102 -2.613425,0 L 68.942881,0 m 5.079614,-5.3924892 1.711609,-4.1777987 1.711609,4.1777987 -3.423218,0"
         style="font-size:18.40439987px;font-variant:normal;font-weight:bold;font-stretch:normal;writing-mode:lr-tb;fill:#e31d25;fill-opacity:1;fill-rule:nonzero;stroke:none;font-family:Gotham;-inkscape-font-specification:Gotham-Bold"
         id="path3092"
         inkscape:connector-curvature="0" /><path
         d="m 88.709209,0.184044 c 2.779061,0 4.72993,-1.4355457 4.72993,-3.9937548 l 0,-0.036809 c 0,-2.2453345 -1.472354,-3.1839618 -4.085776,-3.8649239 -2.22693,-0.5705359 -2.779065,-0.8466033 -2.779065,-1.6932048 l 0,-0.036809 c 0,-0.6257485 0.570538,-1.1226685 1.656396,-1.1226685 1.085859,0 2.208529,0.478516 3.349601,1.2699037 l 1.472352,-2.1349097 c -1.306711,-1.04905 -2.907897,-1.637992 -4.785144,-1.637992 -2.631826,0 -4.509078,1.545972 -4.509078,3.8833281 l 0,0.036809 c 0,2.558209 1.674803,3.2759838 4.269821,3.9385415 2.153313,0.5521315 2.59502,0.9202207 2.59502,1.6379916 l 0,0.036809 c 0,0.7545797 -0.699368,1.2146904 -1.858844,1.2146904 -1.472351,0 -2.687044,-0.6073461 -3.84652,-1.564374 l -1.6748,2.0060796 c 1.545968,1.38032862 3.515242,2.0612928 5.466107,2.0612928"
         style="font-size:18.40439987px;font-variant:normal;font-weight:bold;font-stretch:normal;writing-mode:lr-tb;fill:#e31d25;fill-opacity:1;fill-rule:nonzero;stroke:none;font-family:Gotham;-inkscape-font-specification:Gotham-Bold"
         id="path3094"
         inkscape:connector-curvature="0" /></g><path
       d="m 52.141847,-16.451091 -42.9887385,0 0,33.86828 42.9887385,0 0,-33.86828 z"
       style="fill:#70c72d;fill-opacity:1;fill-rule:nonzero;stroke:none"
       id="path20"
       inkscape:connector-curvature="0" /><path
       d="m 96.040319,-16.451091 -42.988739,0 0,33.86828 42.988739,0 0,-33.86828 z"
       style="fill:#f48b12;fill-opacity:1;fill-rule:nonzero;stroke:none"
       id="path22"
       inkscape:connector-curvature="0" /><path
       d="m 52.141847,-50.977257 -42.9887385,0 0,33.86828 42.9887385,0 0,-33.86828 z"
       style="fill:#86175e;fill-opacity:1;fill-rule:nonzero;stroke:none"
       id="path24"
       inkscape:connector-curvature="0" /><path
       d="m 96.040319,-50.977257 -42.988739,0 0,33.86828 42.988739,0 0,-33.86828 z"
       style="fill:#e31d25;fill-opacity:1;fill-rule:nonzero;stroke:none"
       id="path26"
       inkscape:connector-curvature="0" /><g
       id="g28"
       transform="matrix(2.5698672,0,0,2.5698672,-3.8709786,-81.982705)"><g
         id="g30"
         clip-path="url(#clipPath32)"><g
           id="g36"
           transform="translate(28.7137,40.0795)"><path
             d="M 0,0 C 0.566,0 1.027,0.414 1.027,0.924 1.027,1.433 0.566,1.848 0,1.848 l -14.102,0 c -0.567,0 -1.027,-0.415 -1.027,-0.924 0,-0.51 0.46,-0.924 1.027,-0.924 L 0,0 z"
             style="fill:#d0d1cf;fill-opacity:1;fill-rule:nonzero;stroke:none"
             id="path38"
             inkscape:connector-curvature="0" /></g><g
           id="g40"
           transform="translate(40.5068,41.6246)"><path
             d="m 0,0 -6.291,0 c -0.509,0 -0.925,-0.387 -0.925,-0.86 0,-0.475 0.416,-0.861 0.925,-0.861 l 5.371,0 0,-29.034 -35.271,0 0,29.034 5.059,0 c 0.51,0 0.92,0.386 0.92,0.861 0,0.473 -0.41,0.86 -0.92,0.86 l -5.984,0 c -0.51,0 -0.925,-0.387 -0.925,-0.86 l 0,-30.755 c 0,-0.474 0.415,-0.86 0.925,-0.86 l 37.116,0 c 0.51,0 0.925,0.386 0.925,0.86 l 0,30.755 C 0.925,-0.387 0.515,0 0,0"
             style="fill:#d0d1cf;fill-opacity:1;fill-rule:nonzero;stroke:none"
             id="path42"
             inkscape:connector-curvature="0" /></g><g
           id="g44"
           transform="translate(30.9103,37.9737)"><path
             d="m 0,0 c 0.509,0 0.925,0.382 0.925,0.86 l 0,6.265 c 0,3.926 -4.561,7.124 -10.184,7.124 -5.601,0 -10.161,-3.198 -10.161,-7.124 l 0,-6.265 c 0,-0.478 0.415,-0.86 0.924,-0.86 0.511,0 0.925,0.382 0.925,0.86 l 0,6.265 c 0,2.978 3.729,5.403 8.335,5.403 4.581,0 8.311,-2.425 8.311,-5.403 l 0,-6.265 C -0.925,0.382 -0.51,0 0,0"
             style="fill:#d0d1cf;fill-opacity:1;fill-rule:nonzero;stroke:none"
             id="path46"
             inkscape:connector-curvature="0" /></g><g
           id="g48"
           transform="translate(28.6528,40.4568)"><path
             d="m 0,0 c 0.385,0 0.699,0.245 0.699,0.552 l 0,4.022 c 0,2.521 -3.447,4.574 -7.698,4.574 -4.233,0 -7.681,-2.053 -7.681,-4.574 l 0,-4.022 c 0,-0.307 0.315,-0.552 0.699,-0.552 0.386,0 0.699,0.245 0.699,0.552 l 0,4.022 c 0,1.912 2.819,3.469 6.3,3.469 3.463,0 6.283,-1.557 6.283,-3.469 l 0,-4.022 C -0.699,0.245 -0.386,0 0,0"
             style="fill:#d0d1cf;fill-opacity:1;fill-rule:nonzero;stroke:none"
             id="path50"
             inkscape:connector-curvature="0" /></g></g></g><text
       transform="scale(1,-1)"
       id="text52"
       x="11.351116"
       y="36.907234"
       style="font-size:30.83840752px"><tspan
         style="font-size:65.2532959px;font-variant:normal;font-weight:bold;font-stretch:normal;writing-mode:lr-tb;fill:#ffffff;fill-opacity:1;fill-rule:nonzero;stroke:none;font-family:Gotham;-inkscape-font-specification:Gotham-Bold"
         x="11.351116 51.481892"
         y="36.907234"
         sodipodi:role="line"
         id="tspan54">SP</tspan></text>
</g></svg>