<?xml version="1.0" encoding="UTF-8" standalone="no"?>
<!-- Created with Inkscape (http://www.inkscape.org/) -->

<svg
   xmlns:dc="http://purl.org/dc/elements/1.1/"
   xmlns:cc="http://creativecommons.org/ns#"
   xmlns:rdf="http://www.w3.org/1999/02/22-rdf-syntax-ns#"
   xmlns:svg="http://www.w3.org/2000/svg"
   xmlns="http://www.w3.org/2000/svg"
   xmlns:sodipodi="http://sodipodi.sourceforge.net/DTD/sodipodi-0.dtd"
   xmlns:inkscape="http://www.inkscape.org/namespaces/inkscape"
   id="svg2"
   version="1.1"
   inkscape:version="0.48.4 r9939"
   width="767.17749"
   height="248.30856"
   xml:space="preserve"
   sodipodi:docname="logo-app.svg"><metadata
     id="metadata8"><rdf:RDF><cc:Work
         rdf:about=""><dc:format>image/svg+xml</dc:format><dc:type
           rdf:resource="http://purl.org/dc/dcmitype/StillImage" /></cc:Work></rdf:RDF></metadata><defs
     id="defs6"><clipPath
       clipPathUnits="userSpaceOnUse"
       id="clipPath32"><path
         d="M 0,60 140,60 140,0 0,0 0,60 z"
         id="path34"
         inkscape:connector-curvature="0" /></clipPath></defs><sodipodi:namedview
     pagecolor="#ffffff"
     bordercolor="#666666"
     borderopacity="1"
     objecttolerance="10"
     gridtolerance="10"
     guidetolerance="10"
     inkscape:pageopacity="0"
     inkscape:pageshadow="2"
     inkscape:window-width="1301"
     inkscape:window-height="744"
     id="namedview4"
     showgrid="false"
     fit-margin-top="0"
     fit-margin-left="0"
     fit-margin-right="0"
     fit-margin-bottom="0"
     inkscape:zoom="1.26"
     inkscape:cx="299.40331"
     inkscape:cy="82.171299"
     inkscape:window-x="65"
     inkscape:window-y="336"
     inkscape:window-maximized="1"
     inkscape:current-layer="text12" /><g
     id="g10"
     inkscape:groupmode="layer"
     inkscape:label="Logo_CircuitoDeCompras"
     transform="matrix(1.25,0,0,-1.25,-3.0822501,65.278385)"><g
       transform="matrix(1,0,0,-1,43.5361,28.2969)"
       id="text12"><path
         d="m 175.2789,87.43306 c 7.96309,0 13.21535,-3.557982 17.62047,-8.55609 l -2.88027,-2.541412 c -3.6427,4.066255 -8.38667,7.200669 -14.48606,7.200669 -9.91149,0 -17.78989,-8.30196 -17.78989,-18.721742 l 0,-0.169427 c 0,-10.335069 7.62425,-18.552314 17.45104,-18.552314 6.43824,0 10.67393,3.303842 14.40133,7.115957 l 2.96498,-3.049698 c -4.06625,-4.235684 -9.14909,-7.963094 -17.2816,-7.963094 -12.36819,0 -22.02557,10.50452 -22.02557,22.618574 l 0,0.169427 c 0,12.114056 9.57266,22.449145 22.02557,22.449145"
         style="font-size:18.36870003px;font-variant:normal;font-weight:normal;font-stretch:normal;writing-mode:lr-tb;fill:#231f20;fill-opacity:1;fill-rule:nonzero;stroke:none;font-family:Gotham;-inkscape-font-specification:Gotham-Light"
         id="path3061"
         inkscape:connector-curvature="0" /><path
         d="m 202.55674,31.945547 5.16753,0 0,-5.675823 -5.16753,0 0,5.675823 m 0.50828,54.470948 4.15097,0 0,-43.204018 -4.15097,0 0,43.204018"
         style="font-size:18.36870003px;font-variant:normal;font-weight:normal;font-stretch:normal;writing-mode:lr-tb;fill:#231f20;fill-opacity:1;fill-rule:nonzero;stroke:none;font-family:Gotham;-inkscape-font-specification:Gotham-Light"
         id="path3063"
         inkscape:connector-curvature="0" /><path
         d="m 221.44791,86.416495 4.15097,0 0,-17.705176 c 0,-14.06247 8.72552,-21.60201 18.72175,-21.60201 l 0.42353,0 0,-4.574542 c -8.55607,-0.338857 -15.75676,5.252261 -19.1453,12.961204 l 0,-12.283494 -4.15097,0 0,43.204018"
         style="font-size:18.36870003px;font-variant:normal;font-weight:normal;font-stretch:normal;writing-mode:lr-tb;fill:#231f20;fill-opacity:1;fill-rule:nonzero;stroke:none;font-family:Gotham;-inkscape-font-specification:Gotham-Light"
         id="path3065"
         inkscape:connector-curvature="0" /><path
         d="m 272.27617,87.43306 c 7.96307,0 13.21534,-3.557982 17.62044,-8.55609 l -2.88026,-2.541412 c -3.64269,4.066255 -8.38666,7.200669 -14.48605,7.200669 -9.9115,0 -17.78989,-8.30196 -17.78989,-18.721742 l 0,-0.169427 c 0,-10.335069 7.62426,-18.552314 17.45102,-18.552314 6.43826,0 10.67395,3.303842 14.40135,7.115957 l 2.96498,-3.049695 c -4.06625,-4.235685 -9.14908,-7.963096 -17.28159,-7.963096 -12.3682,0 -22.02559,10.50452 -22.02559,22.618575 l 0,0.169427 c 0,12.114055 9.57267,22.449146 22.02559,22.449146"
         style="font-size:18.36870003px;font-variant:normal;font-weight:normal;font-stretch:normal;writing-mode:lr-tb;fill:#231f20;fill-opacity:1;fill-rule:nonzero;stroke:none;font-family:Gotham;-inkscape-font-specification:Gotham-Light"
         id="path3067"
         inkscape:connector-curvature="0" /><path
         d="m 315.90375,87.43306 c 7.87838,0 12.70706,-3.981552 15.58733,-9.064372 l 0,8.047807 4.15097,0 0,-43.204018 -4.15097,0 0,24.990559 c 0,8.97965 -6.52296,15.417904 -14.99434,15.417904 -8.72551,0 -13.72362,-5.845257 -13.72362,-14.740194 l 0,-25.668269 -4.15098,0 0,26.430693 c 0,10.335069 6.35355,17.78989 17.28161,17.78989"
         style="font-size:18.36870003px;font-variant:normal;font-weight:normal;font-stretch:normal;writing-mode:lr-tb;fill:#231f20;fill-opacity:1;fill-rule:nonzero;stroke:none;font-family:Gotham;-inkscape-font-specification:Gotham-Light"
         id="path3069"
         inkscape:connector-curvature="0" /><path
         d="m 349.36567,31.945547 5.16756,0 0,-5.675823 -5.16756,0 0,5.675823 m 0.5083,54.470948 4.15098,0 0,-43.204018 -4.15098,0 0,43.204018"
         style="font-size:18.36870003px;font-variant:normal;font-weight:normal;font-stretch:normal;writing-mode:lr-tb;fill:#231f20;fill-opacity:1;fill-rule:nonzero;stroke:none;font-family:Gotham;-inkscape-font-specification:Gotham-Light"
         id="path3071"
         inkscape:connector-curvature="0" /><path
         d="m 382.65819,87.178919 c 2.71084,0 4.82868,-0.508284 7.03123,-1.524848 l 0,-3.896834 c -2.45667,1.101279 -4.23567,1.524849 -6.35352,1.524849 -4.9981,0 -8.6408,-2.202564 -8.6408,-8.386662 l 0,-27.870829 15.16377,0 0,-3.812118 -15.16377,0 0,-13.808343 -4.15097,0 0,13.808343 -6.26882,0 0,3.812118 6.26882,0 0,28.294397 c 0,8.217226 5.42168,11.859927 12.11406,11.859927"
         style="font-size:18.36870003px;font-variant:normal;font-weight:normal;font-stretch:normal;writing-mode:lr-tb;fill:#231f20;fill-opacity:1;fill-rule:nonzero;stroke:none;font-family:Gotham;-inkscape-font-specification:Gotham-Light"
         id="path3073"
         inkscape:connector-curvature="0" /><path
         d="m 419.16983,87.43306 c 12.87648,0 22.27972,-10.504518 22.27972,-22.618575 l 0,-0.169427 c 0,-12.114056 -9.31852,-22.449148 -22.11029,-22.449148 -12.87648,0 -22.27974,10.50452 -22.27974,22.618575 l 0,0.169427 c 0,12.114055 9.31854,22.449146 22.11031,22.449146 m 0.16941,-3.896832 c -9.99621,0 -17.7899,-8.30196 -17.7899,-18.721743 l 0,-0.169427 c 0,-10.16564 7.3701,-18.552313 17.62045,-18.552313 9.99621,0 17.7899,8.301958 17.7899,18.72174 l 0,0.169427 c 0,10.165641 -7.3701,18.552314 -17.62045,18.552314"
         style="font-size:18.36870003px;font-variant:normal;font-weight:normal;font-stretch:normal;writing-mode:lr-tb;fill:#231f20;fill-opacity:1;fill-rule:nonzero;stroke:none;font-family:Gotham;-inkscape-font-specification:Gotham-Light"
         id="path3075"
         inkscape:connector-curvature="0" /><path
         d="m 493.63322,87.43306 c 8.5561,0 14.06251,-4.998117 17.7899,-10.673934 l 0,9.657369 4.15098,0 0,-61.841046 -4.15098,0 0,27.955542 c -3.55798,-5.421677 -9.1491,-10.335081 -17.7899,-10.335081 -10.41977,0 -21.009,8.556105 -21.009,22.618575 l 0,0.169427 c 0,14.06247 10.58923,22.449146 21.009,22.449146 m 0.42356,-3.981546 c -9.06435,0 -16.94274,-7.285396 -16.94274,-18.637029 l 0,-0.169427 c 0,-11.605773 7.53954,-18.4676 16.94274,-18.4676 8.97966,0 17.62046,7.454823 17.62046,18.552314 l 0,0.169427 c 0,11.012777 -8.6408,18.552314 -17.62046,18.552314"
         style="font-size:18.36870003px;font-variant:normal;font-weight:normal;font-stretch:normal;writing-mode:lr-tb;fill:#231f20;fill-opacity:1;fill-rule:nonzero;stroke:none;font-family:Gotham;-inkscape-font-specification:Gotham-Light"
         id="path3077"
         inkscape:connector-curvature="0" /><path
         d="m 547.42646,87.43306 c 8.30195,0 13.46949,-3.388555 17.87461,-8.132521 l -2.88027,-2.541413 c -3.55796,3.812116 -8.13253,6.777101 -14.82491,6.777101 -8.47135,0 -16.18033,-6.268829 -16.94274,-17.027466 l 35.8339,0 c 0.0847,-0.67771 0.0847,-0.931852 0.0847,-1.694276 0,-12.791763 -7.70895,-22.618575 -19.82302,-22.618575 -11.69049,0 -20.50072,9.996238 -20.50072,22.533861 l 0,0.169428 c 0,13.469473 9.82679,22.533859 21.17844,22.533859 M 530.6531,62.781355 c 0.76243,-9.572647 7.3701,-16.773326 15.92618,-16.773326 9.91151,0 14.90964,8.047815 15.50262,16.773326 l -31.4288,0"
         style="font-size:18.36870003px;font-variant:normal;font-weight:normal;font-stretch:normal;writing-mode:lr-tb;fill:#231f20;fill-opacity:1;fill-rule:nonzero;stroke:none;font-family:Gotham;-inkscape-font-specification:Gotham-Light"
         id="path3079"
         inkscape:connector-curvature="0" /></g><g
       transform="matrix(4.5412142,0,0,-4.611854,191.88065,-133.80105)"
       id="text16"><path
         d="m 7.5826127,0.2208528 c 2.4845913,0 3.9569473,-0.88341261 5.2820633,-2.30055 l -1.803632,-1.8220356 c -1.012241,0.9202191 -1.9140587,1.5091608 -3.3864093,1.5091608 -2.2085257,0 -3.7360931,-1.8404422 -3.7360931,-4.048968 l 0,-0.036809 c 0,-2.2085257 1.5643761,-4.012159 3.7360931,-4.012159 1.2883067,0 2.300551,0.5521328 3.2943873,1.4539475 l 1.803632,-2.0796975 c -1.196285,-1.17788 -2.650236,-1.987675 -5.0796149,-1.987675 -3.956942,0 -6.71760591,2.999921 -6.71760591,6.6623928 l 0,0.036809 c 0,3.6992807 2.81587701,6.625584 6.60717951,6.625584"
         style="font-size:18.40439987px;font-variant:normal;font-weight:bold;font-stretch:normal;writing-mode:lr-tb;fill:#e31d25;fill-opacity:1;fill-rule:nonzero;stroke:none;font-family:Gotham;-inkscape-font-specification:Gotham-Bold"
         id="path3082"
         inkscape:connector-curvature="0" /><path
         d="m 20.925803,0.2208528 c 3.975346,0 6.864841,-2.9999208 6.864841,-6.6623928 l 0,-0.036809 c 0,-3.662472 -2.852686,-6.625584 -6.828032,-6.625584 -3.975347,0 -6.864841,2.999921 -6.864841,6.6623928 l 0,0.036809 c 0,3.662472 2.852685,6.625584 6.828032,6.625584 m 0.03681,-2.6134248 c -2.282144,0 -3.901733,-1.8404422 -3.901733,-4.048968 l 0,-0.036809 c 0,-2.2085257 1.582781,-4.012159 3.864924,-4.012159 2.282143,0 3.901733,1.8404421 3.901733,4.0489678 l 0,0.036809 c 0,2.2085258 -1.582781,4.0121592 -3.864924,4.0121592"
         style="font-size:18.40439987px;font-variant:normal;font-weight:bold;font-stretch:normal;writing-mode:lr-tb;fill:#e31d25;fill-opacity:1;fill-rule:nonzero;stroke:none;font-family:Gotham;-inkscape-font-specification:Gotham-Bold"
         id="path3084"
         inkscape:connector-curvature="0" /><path
         d="m 29.851937,0 2.779064,0 0,-8.3555975 3.588858,5.4477023 0.07362,0 3.625667,-5.5029155 0,8.4108107 2.815873,0 0,-12.88308 -3.055131,0 -3.386409,5.4477025 -3.38641,-5.4477025 -3.05513,0 0,12.88308"
         style="font-size:18.40439987px;font-variant:normal;font-weight:bold;font-stretch:normal;writing-mode:lr-tb;fill:#e31d25;fill-opacity:1;fill-rule:nonzero;stroke:none;font-family:Gotham;-inkscape-font-specification:Gotham-Bold"
         id="path3086"
         inkscape:connector-curvature="0" /><path
         d="m 45.366847,0 2.834277,0 0,-3.864924 2.153315,0 c 2.889488,0 5.208445,-1.5459725 5.208445,-4.5274823 l 0,-0.036809 c 0,-2.6318267 -1.858847,-4.4538647 -4.932379,-4.4538647 l -5.263658,0 0,12.8830798 m 2.834277,-6.3863268 0,-3.938541 2.190124,0 c 1.417137,0 2.30055,0.6809635 2.30055,1.9508659 l 0,0.036809 c 0,1.1042628 -0.8282,1.9508663 -2.245337,1.9508663 l -2.245337,0"
         style="font-size:18.40439987px;font-variant:normal;font-weight:bold;font-stretch:normal;writing-mode:lr-tb;fill:#e31d25;fill-opacity:1;fill-rule:nonzero;stroke:none;font-family:Gotham;-inkscape-font-specification:Gotham-Bold"
         id="path3088"
         inkscape:connector-curvature="0" /><path
         d="m 57.200877,0 2.834277,0 0,-4.1225856 2.190124,0 0.03681,0 L 65.022747,0 68.335539,0 65.188386,-4.6011 c 1.63799,-0.6073446 2.76066,-1.9140596 2.76066,-3.9937547 l 0,-0.036809 c 0,-1.2146892 -0.386493,-2.2269333 -1.104264,-2.9447043 -0.846601,-0.846601 -2.116507,-1.306712 -3.754497,-1.306712 l -5.889408,0 0,12.8830798 m 2.834277,-6.625584 0,-3.6992838 2.815874,0 c 1.380328,0 2.226932,0.6257503 2.226932,1.8404395 l 0,0.036809 c 0,1.0858585 -0.791391,1.8220355 -2.171719,1.8220355 l -2.871087,0"
         style="font-size:18.40439987px;font-variant:normal;font-weight:bold;font-stretch:normal;writing-mode:lr-tb;fill:#e31d25;fill-opacity:1;fill-rule:nonzero;stroke:none;font-family:Gotham;-inkscape-font-specification:Gotham-Bold"
         id="path3090"
         inkscape:connector-curvature="0" /><path
         d="m 68.942881,0 2.88949,0 1.177882,-2.8894908 5.447702,0 L 79.635837,0 l 2.963108,0 -5.52132,-12.975102 -2.613425,0 L 68.942881,0 m 5.079614,-5.3924892 1.711609,-4.1777987 1.711609,4.1777987 -3.423218,0"
         style="font-size:18.40439987px;font-variant:normal;font-weight:bold;font-stretch:normal;writing-mode:lr-tb;fill:#e31d25;fill-opacity:1;fill-rule:nonzero;stroke:none;font-family:Gotham;-inkscape-font-specification:Gotham-Bold"
         id="path3092"
         inkscape:connector-curvature="0" /><path
         d="m 88.709209,0.184044 c 2.779061,0 4.72993,-1.4355457 4.72993,-3.9937548 l 0,-0.036809 c 0,-2.2453345 -1.472354,-3.1839618 -4.085776,-3.8649239 -2.22693,-0.5705359 -2.779065,-0.8466033 -2.779065,-1.6932048 l 0,-0.036809 c 0,-0.6257485 0.570538,-1.1226685 1.656396,-1.1226685 1.085859,0 2.208529,0.478516 3.349601,1.2699037 l 1.472352,-2.1349097 c -1.306711,-1.04905 -2.907897,-1.637992 -4.785144,-1.637992 -2.631826,0 -4.509078,1.545972 -4.509078,3.8833281 l 0,0.036809 c 0,2.558209 1.674803,3.2759838 4.269821,3.9385415 2.153313,0.5521315 2.59502,0.9202207 2.59502,1.6379916 l 0,0.036809 c 0,0.7545797 -0.699368,1.2146904 -1.858844,1.2146904 -1.472351,0 -2.687044,-0.6073461 -3.84652,-1.564374 l -1.6748,2.0060796 c 1.545968,1.38032862 3.515242,2.0612928 5.466107,2.0612928"
         style="font-size:18.40439987px;font-variant:normal;font-weight:bold;font-stretch:normal;writing-mode:lr-tb;fill:#e31d25;fill-opacity:1;fill-rule:nonzero;stroke:none;font-family:Gotham;-inkscape-font-specification:Gotham-Bold"
         id="path3094"
         inkscape:connector-curvature="0" /></g><path
       d="m 91.613859,-71.01849 -77.147093,0 0,60.779623 77.147093,0 0,-60.779623 z"
       style="fill:#70c72d;fill-opacity:1;fill-rule:nonzero;stroke:none"
       id="path20"
       inkscape:connector-curvature="0" /><path
       d="m 170.39355,-71.01849 -77.147095,0 0,60.779623 77.147095,0 0,-60.779623 z"
       style="fill:#f48b12;fill-opacity:1;fill-rule:nonzero;stroke:none"
       id="path22"
       inkscape:connector-curvature="0" /><path
       d="m 91.613859,-132.97875 -77.147093,0 0,60.779625 77.147093,0 0,-60.779625 z"
       style="fill:#86175e;fill-opacity:1;fill-rule:nonzero;stroke:none"
       id="path24"
       inkscape:connector-curvature="0" /><path
       d="m 170.39355,-132.97875 -77.147095,0 0,60.779625 77.147095,0 0,-60.779625 z"
       style="fill:#e31d25;fill-opacity:1;fill-rule:nonzero;stroke:none"
       id="path26"
       inkscape:connector-curvature="0" /><g
       id="g28"
       transform="matrix(4.611854,0,0,4.611854,-8.9061095,-188.62076)"><g
         id="g30"
         clip-path="url(#clipPath32)"><g
           id="g36"
           transform="translate(28.7137,40.0795)"><path
             d="M 0,0 C 0.566,0 1.027,0.414 1.027,0.924 1.027,1.433 0.566,1.848 0,1.848 l -14.102,0 c -0.567,0 -1.027,-0.415 -1.027,-0.924 0,-0.51 0.46,-0.924 1.027,-0.924 L 0,0 z"
             style="fill:#d0d1cf;fill-opacity:1;fill-rule:nonzero;stroke:none"
             id="path38"
             inkscape:connector-curvature="0" /></g><g
           id="g40"
           transform="translate(40.5068,41.6246)"><path
             d="m 0,0 -6.291,0 c -0.509,0 -0.925,-0.387 -0.925,-0.86 0,-0.475 0.416,-0.861 0.925,-0.861 l 5.371,0 0,-29.034 -35.271,0 0,29.034 5.059,0 c 0.51,0 0.92,0.386 0.92,0.861 0,0.473 -0.41,0.86 -0.92,0.86 l -5.984,0 c -0.51,0 -0.925,-0.387 -0.925,-0.86 l 0,-30.755 c 0,-0.474 0.415,-0.86 0.925,-0.86 l 37.116,0 c 0.51,0 0.925,0.386 0.925,0.86 l 0,30.755 C 0.925,-0.387 0.515,0 0,0"
             style="fill:#d0d1cf;fill-opacity:1;fill-rule:nonzero;stroke:none"
             id="path42"
             inkscape:connector-curvature="0" /></g><g
           id="g44"
           transform="translate(30.9103,37.9737)"><path
             d="m 0,0 c 0.509,0 0.925,0.382 0.925,0.86 l 0,6.265 c 0,3.926 -4.561,7.124 -10.184,7.124 -5.601,0 -10.161,-3.198 -10.161,-7.124 l 0,-6.265 c 0,-0.478 0.415,-0.86 0.924,-0.86 0.511,0 0.925,0.382 0.925,0.86 l 0,6.265 c 0,2.978 3.729,5.403 8.335,5.403 4.581,0 8.311,-2.425 8.311,-5.403 l 0,-6.265 C -0.925,0.382 -0.51,0 0,0"
             style="fill:#d0d1cf;fill-opacity:1;fill-rule:nonzero;stroke:none"
             id="path46"
             inkscape:connector-curvature="0" /></g><g
           id="g48"
           transform="translate(28.6528,40.4568)"><path
             d="m 0,0 c 0.385,0 0.699,0.245 0.699,0.552 l 0,4.022 c 0,2.521 -3.447,4.574 -7.698,4.574 -4.233,0 -7.681,-2.053 -7.681,-4.574 l 0,-4.022 c 0,-0.307 0.315,-0.552 0.699,-0.552 0.386,0 0.699,0.245 0.699,0.552 l 0,4.022 c 0,1.912 2.819,3.469 6.3,3.469 3.463,0 6.283,-1.557 6.283,-3.469 l 0,-4.022 C -0.699,0.245 -0.386,0 0,0"
             style="fill:#d0d1cf;fill-opacity:1;fill-rule:nonzero;stroke:none"
             id="path50"
             inkscape:connector-curvature="0" /></g></g></g><text
       transform="scale(1,-1)"
       id="text52"
       x="18.411285"
       y="107.72884"
       style="font-size:55.34224701px"><tspan
         style="font-size:117.10280609px;font-variant:normal;font-weight:bold;font-stretch:normal;writing-mode:lr-tb;fill:#ffffff;fill-opacity:1;fill-rule:nonzero;stroke:none;font-family:Gotham;-inkscape-font-specification:Gotham-Bold"
         x="18.411285 90.429504"
         y="107.72884"
         sodipodi:role="line"
         id="tspan54">SP</tspan></text>
</g></svg>