<?xml version="1.0" encoding="UTF-8" standalone="no"?>
<!-- Created with Inkscape (http://www.inkscape.org/) -->

<svg
   xmlns:dc="http://purl.org/dc/elements/1.1/"
   xmlns:cc="http://creativecommons.org/ns#"
   xmlns:rdf="http://www.w3.org/1999/02/22-rdf-syntax-ns#"
   xmlns:svg="http://www.w3.org/2000/svg"
   xmlns="http://www.w3.org/2000/svg"
   xmlns:sodipodi="http://sodipodi.sourceforge.net/DTD/sodipodi-0.dtd"
   xmlns:inkscape="http://www.inkscape.org/namespaces/inkscape"
   width="360.94452"
   height="134.01138"
   id="svg8645"
   version="1.1"
   inkscape:version="0.48.4 r9939"
   sodipodi:docname="Novo documento 2">
  <defs
     id="defs8647" />
  <sodipodi:namedview
     id="base"
     pagecolor="#ffffff"
     bordercolor="#666666"
     borderopacity="1.0"
     inkscape:pageopacity="0.0"
     inkscape:pageshadow="2"
     inkscape:zoom="0.35"
     inkscape:cx="159.04369"
     inkscape:cy="53.765913"
     inkscape:document-units="px"
     inkscape:current-layer="layer1"
     showgrid="false"
     fit-margin-top="0"
     fit-margin-left="0"
     fit-margin-right="0"
     fit-margin-bottom="0"
     inkscape:window-width="1301"
     inkscape:window-height="744"
     inkscape:window-x="65"
     inkscape:window-y="336"
     inkscape:window-maximized="1" />
  <metadata
     id="metadata8650">
    <rdf:RDF>
      <cc:Work
         rdf:about="">
        <dc:format>image/svg+xml</dc:format>
        <dc:type
           rdf:resource="http://purl.org/dc/dcmitype/StillImage" />
        <dc:title></dc:title>
      </cc:Work>
    </rdf:RDF>
  </metadata>
  <g
     inkscape:label="Camada 1"
     inkscape:groupmode="layer"
     id="layer1"
     transform="translate(-190.95631,-452.11671)">
    <g
       transform="matrix(2.9065254,0,0,-2.9065254,40.498567,661.29527)"
       id="g8624">
      <g
         transform="translate(61.3625,71.3046)"
         id="g550">
        <path
           inkscape:connector-curvature="0"
           id="path552"
           style="fill:#000000;fill-opacity:1;fill-rule:nonzero;stroke:none"
           d="m 0,0 c -0.147,0.394 -0.689,0.517 -1.403,0.517 l -1.279,0 C -3.396,0.517 -3.937,0.394 -4.085,0 l -5.414,-15.824 c -0.049,-0.173 -0.098,-0.32 -0.098,-0.443 0,-0.344 0.467,-0.541 1.501,-0.541 l 0.984,0 c 0.591,0 1.009,0.147 1.132,0.516 l 0.985,3.003 4.749,0 -0.968,3.248 -2.723,0 1.452,4.381 c 0.148,0.418 0.369,1.575 0.369,1.575 l 0.098,0 c 0,0 0.247,-1.255 0.37,-1.575 l 3.445,-10.632 c 0.123,-0.393 0.664,-0.516 1.378,-0.516 l 1.082,0 c 0.862,0 1.231,0.197 1.231,0.541 0,0.123 -0.024,0.27 -0.074,0.443 L 0,0 z" />
      </g>
      <g
         transform="translate(95.6695,57.7694)"
         id="g554">
        <path
           inkscape:connector-curvature="0"
           id="path556"
           style="fill:#000000;fill-opacity:1;fill-rule:nonzero;stroke:none"
           d="m 0,0 -6.226,0 0,3.987 5.537,0 c 0.516,0 0.738,0.369 0.738,1.23 l 0,0.763 c 0,0.861 -0.222,1.231 -0.738,1.231 l -5.537,0 0,3.568 6.202,0 c 0.516,0 0.736,0.369 0.736,1.23 l 0,0.763 c 0,0.862 -0.22,1.231 -0.736,1.231 l -9.009,0 c -0.688,0 -0.983,-0.296 -0.983,-0.984 l 0,-15.259 c 0,-0.689 0.295,-0.984 0.983,-0.984 l 9.033,0 c 0.517,0 0.738,0.369 0.738,1.231 l 0,0.763 C 0.738,-0.37 0.517,0 0,0" />
      </g>
      <g
         transform="translate(103.4727,67.2686)"
         id="g558">
        <path
           inkscape:connector-curvature="0"
           id="path560"
           style="fill:#e20613;fill-opacity:1;fill-rule:nonzero;stroke:none"
           d="m 0,0 c 0,0.566 0.37,1.452 2.289,1.452 1.649,0 2.411,-0.616 2.732,-0.616 0.59,0 1.353,1.477 1.353,2.141 0,0.813 -1.821,1.723 -4.43,1.723 -2.879,0 -5.832,-1.427 -5.832,-5.045 0,-5.783 7.112,-4.651 7.112,-7.555 0,-1.476 -1.255,-1.796 -2.313,-1.796 -1.969,0 -3.175,1.132 -3.617,1.132 -0.518,0 -1.527,-1.427 -1.527,-2.191 0,-0.836 2.043,-2.166 5.784,-2.166 2.682,0 5.561,1.379 5.561,5.464 C 7.112,-1.673 0,-2.806 0,0" />
      </g>
      <g
         transform="translate(143.661,71.8212)"
         id="g562">
        <path
           inkscape:connector-curvature="0"
           id="path564"
           style="fill:#e20613;fill-opacity:1;fill-rule:nonzero;stroke:none"
           d="m 0,0 -1.28,0 c -0.713,0 -1.279,-0.172 -1.55,-0.664 l -4.381,-7.703 -4.331,7.703 C -11.813,-0.172 -12.379,0 -13.092,0 l -1.305,0 c -1.033,0 -1.476,-0.271 -1.476,-0.787 l 0,-15.751 c 0,-0.517 0.443,-0.786 1.476,-0.786 l 0.715,0 c 1.033,0 1.476,0.269 1.476,0.786 l 0,10.189 0.099,0.025 3.568,-6.374 c 0.221,-0.296 0.517,-0.468 0.984,-0.468 l 0.714,0 c 0.468,0 0.762,0.172 0.984,0.468 l 3.568,6.374 0.099,-0.025 0,-10.189 c 0,-0.517 0.442,-0.786 1.477,-0.786 l 0.713,0 c 1.034,0 1.477,0.269 1.477,0.786 l 0,15.751 C 1.477,-0.271 1.034,0 0,0" />
      </g>
      <g
         transform="translate(126.016,55.4807)"
         id="g566">
        <path
           inkscape:connector-curvature="0"
           id="path568"
           style="fill:#e20613;fill-opacity:1;fill-rule:nonzero;stroke:none"
           d="m 0,0 -5.414,15.824 c -0.148,0.393 -0.689,0.517 -1.403,0.517 l -1.28,0 c -0.713,0 -1.254,-0.124 -1.403,-0.517 L -14.913,0 c -0.05,-0.172 -0.099,-0.32 -0.099,-0.443 0,-0.344 0.467,-0.542 1.501,-0.542 l 0.985,0 c 0.59,0 1.009,0.148 1.132,0.517 l 0.985,3.002 4.761,0 -0.969,3.249 -2.734,0 1.451,4.381 c 0.148,0.418 0.369,1.575 0.369,1.575 l 0.099,0 c 0,0 0.246,-1.256 0.369,-1.575 l 3.445,-10.632 c 0.124,-0.393 0.665,-0.517 1.379,-0.517 l 1.082,0 c 0.861,0 1.23,0.198 1.23,0.542 C 0.073,-0.32 0.049,-0.172 0,0" />
      </g>
      <g
         transform="translate(175.8757,55.4807)"
         id="g570">
        <path
           inkscape:connector-curvature="0"
           id="path572"
           style="fill:#e20613;fill-opacity:1;fill-rule:nonzero;stroke:none"
           d="m 0,0 -5.414,15.824 c -0.148,0.393 -0.69,0.517 -1.403,0.517 l -1.279,0 c -0.714,0 -1.255,-0.124 -1.404,-0.517 L -14.913,0 c -0.049,-0.172 -0.099,-0.32 -0.099,-0.443 0,-0.344 0.468,-0.542 1.501,-0.542 l 0.985,0 c 0.591,0 1.009,0.148 1.132,0.517 l 0.985,3.002 4.737,0 -0.968,3.249 -2.711,0 1.451,4.381 c 0.148,0.418 0.37,1.575 0.37,1.575 l 0.098,0 c 0,0 0.246,-1.256 0.37,-1.575 l 3.445,-10.632 c 0.123,-0.393 0.665,-0.517 1.377,-0.517 l 1.084,0 c 0.861,0 1.23,0.198 1.23,0.542 C 0.074,-0.32 0.049,-0.172 0,0" />
      </g>
      <g
         transform="translate(75.0458,71.7718)"
         id="g574">
        <path
           inkscape:connector-curvature="0"
           id="path576"
           style="fill:#000000;fill-opacity:1;fill-rule:nonzero;stroke:none"
           d="m 0,0 -5.513,0 c -0.689,0 -0.983,-0.295 -0.983,-0.984 l 0,-15.258 c 0,-0.69 0.294,-0.984 0.983,-0.984 l 2.829,0 0.002,14.002 2.682,0 c 2.634,0 3.988,-1.895 3.988,-5.389 0,-3.494 -1.354,-5.39 -3.988,-5.39 l -1.626,0 0,-3.223 1.626,0 c 5.07,0 7.875,3.051 7.875,8.613 C 7.875,-3.051 5.07,0 0,0" />
      </g>
      <g
         transform="translate(154.6867,71.7718)"
         id="g578">
        <path
           inkscape:connector-curvature="0"
           id="path580"
           style="fill:#e20613;fill-opacity:1;fill-rule:nonzero;stroke:none"
           d="m 0,0 -5.168,0 c -0.69,0 -0.985,-0.295 -0.985,-0.984 l 0,-15.504 c 0,-0.517 0.443,-0.787 1.477,-0.787 l 0.837,0 c 1.033,0 1.477,0.27 1.477,0.787 l 0,13.264 2.19,0 c 0.935,0 2.141,-0.393 2.141,-2.165 0,-1.772 -1.206,-2.141 -2.141,-2.141 l -1.131,0 0,-3.249 1.549,0 c 1.329,0 5.611,0.64 5.611,5.39 C 5.857,-0.639 2.19,0 0,0" />
      </g>
      <text
         id="text3096"
         transform="matrix(1,0,0,-1,58.1113,38.4902)">
        <tspan
           id="tspan3098"
           sodipodi:role="line"
           y="0"
           x="0 7.9710703 14.848072 20.933178 27.320454 33.270103 35.864609 41.845516 44.971424 51.640034 57.620941 64.289551 67.415459 74.375816 80.356728 86.744003 89.338509 96.007118 99.133026 106.01003"
           style="font-size:10.41969967px;font-variant:normal;font-weight:normal;font-stretch:normal;writing-mode:lr-tb;fill:#1d1d1b;fill-opacity:1;fill-rule:nonzero;stroke:none;font-family:Gotham;-inkscape-font-specification:Gotham-Light">Agência São Paulo de</tspan>
        <tspan
           id="tspan3100"
           sodipodi:role="line"
           y="12.50364"
           x="11.78468 19.932886 26.01799 31.196581 37.281685 43.470989 49.212242 55.880852 58.475357 64.539619 67.134125 77.043259 83.128365 89.51564 93.537643"
           style="font-size:10.41969967px;font-variant:normal;font-weight:normal;font-stretch:normal;writing-mode:lr-tb;fill:#1d1d1b;fill-opacity:1;fill-rule:nonzero;stroke:none;font-family:Gotham;-inkscape-font-specification:Gotham-Light">Desenvolvimento</tspan>
      </text>
    </g>
  </g>
</svg>
